<?xml version="1.0" encoding="UTF-8"?>
<!DOCTYPE svg PUBLIC "-//W3C//DTD SVG 1.1//EN" "http://www.w3.org/Graphics/SVG/1.1/DTD/svg11.dtd">
<svg xmlns="http://www.w3.org/2000/svg" version="1.1" width="956px" height="170px" style="shape-rendering:geometricPrecision; text-rendering:geometricPrecision; image-rendering:optimizeQuality; fill-rule:evenodd; clip-rule:evenodd" xmlns:xlink="http://www.w3.org/1999/xlink">
<g><path style="opacity:0.967" fill="#417e9e" d="M 39.5,19.5 C 39.6716,18.5084 39.3382,17.8417 38.5,17.5C 40.3774,14.4079 41.7107,11.0745 42.5,7.5C 41.1233,4.30526 39.1233,3.80526 36.5,6C 35.2668,8.31427 33.9334,10.4809 32.5,12.5C 31.8333,12.5 31.1667,12.5 30.5,12.5C 31.2136,6.61369 34.3802,2.61369 40,0.5C 45.023,1.60777 46.6897,4.60777 45,9.5C 43.9141,13.3464 42.0807,16.6797 39.5,19.5 Z"/></g>
<g><path style="opacity:0.31" fill="#67676c" d="M 680.5,7.5 C 681.449,6.84761 682.615,6.51428 684,6.5C 686.008,6.30684 687.508,6.9735 688.5,8.5C 685.904,7.73465 683.237,7.40132 680.5,7.5 Z"/></g>
<g><path style="opacity:0.295" fill="#6a6b6f" d="M 808.5,7.5 C 801.476,7.43506 794.476,7.76839 787.5,8.5C 791.574,7.04557 795.907,6.3789 800.5,6.5C 803.355,6.50255 806.022,6.83588 808.5,7.5 Z"/></g>
<g><path style="opacity:0.999" fill="#f4f4f5" d="M 346.5,18.5 C 346.66,20.153 347.326,21.4863 348.5,22.5C 357.675,42.8479 366.841,63.1813 376,83.5C 387.186,58.9512 398.186,34.2845 409,9.5C 415.993,4.58451 421.16,6.08451 424.5,14C 410.653,46.0163 396.32,77.683 381.5,109C 374.684,112.225 369.851,110.392 367,103.5C 353.794,73.7623 340.627,44.0956 327.5,14.5C 332.361,4.32844 338.361,3.82844 345.5,13C 345.167,13.3333 344.833,13.6667 344.5,14C 345.582,15.3297 346.249,16.8297 346.5,18.5 Z"/></g>
<g><path style="opacity:1" fill="#ececed" d="M 439.5,6.5 C 464.169,6.33336 488.836,6.50003 513.5,7C 519.529,9.16317 520.862,12.9965 517.5,18.5C 516.3,19.5312 514.966,20.3645 513.5,21C 489.167,21.6667 464.833,21.6667 440.5,21C 434.468,19.0468 432.968,15.2134 436,9.5C 437.145,8.36362 438.312,7.36362 439.5,6.5 Z"/></g>
<g><path style="opacity:0.999" fill="#f3f3f4" d="M 534.5,6.5 C 541.869,6.07702 545.869,9.24368 546.5,16C 557.071,38.4069 567.238,60.9069 577,83.5C 588.535,58.5496 599.868,33.5496 611,8.5C 616.545,5.31364 621.212,6.31364 625,11.5C 625.208,13.859 625.374,16.0257 625.5,18C 611.335,47.1659 597.835,76.6659 585,106.5C 580.867,110.9 576.2,111.567 571,108.5C 557.74,78.2633 544.073,48.2633 530,18.5C 528.309,13.1311 529.809,9.13112 534.5,6.5 Z"/></g>
<g><path style="opacity:0.999" fill="#f4f4f5" d="M 680.5,7.5 C 683.237,7.40132 685.904,7.73465 688.5,8.5C 690.451,9.71583 691.951,11.3825 693,13.5C 704.375,40.7084 716.708,68.3751 730,96.5C 733.985,107.065 730.485,111.565 719.5,110C 717.641,108.442 716.141,106.609 715,104.5C 705.222,80.9414 694.888,57.6081 684,34.5C 673.15,58.0369 662.483,81.7036 652,105.5C 648.634,110.609 644.134,111.776 638.5,109C 637.034,107.448 636.034,105.614 635.5,103.5C 648.392,73.3828 661.558,43.3828 675,13.5C 676.161,10.8152 677.994,8.81522 680.5,7.5 Z"/></g>
<g><path style="opacity:1" fill="#f3f3f4" d="M 808.5,7.5 C 811.946,8.6874 815.613,9.35407 819.5,9.5C 827.225,11.0287 834.225,14.1953 840.5,19C 843.615,27.4104 840.615,31.4104 831.5,31C 813.222,19.1696 794.555,18.5029 775.5,29C 757.965,43.0026 754.465,59.5026 765,78.5C 780.238,95.3534 798.738,100.187 820.5,93C 822.577,91.295 824.91,90.1283 827.5,89.5C 829.833,88.8333 832.167,88.1667 834.5,87.5C 840.367,88.2025 842.533,91.5359 841,97.5C 826.391,108.628 809.891,112.795 791.5,110C 772.514,107.347 758.014,97.8468 748,81.5C 736.247,51.5122 744.413,28.6788 772.5,13C 777.347,10.9054 782.347,9.40541 787.5,8.5C 794.476,7.76839 801.476,7.43506 808.5,7.5 Z"/></g>
<g><path style="opacity:0.694" fill="#9a9a9f" d="M 808.5,7.5 C 812.458,7.25108 816.124,7.91774 819.5,9.5C 815.613,9.35407 811.946,8.6874 808.5,7.5 Z"/></g>
<g><path style="opacity:1" fill="#f8f8f9" d="M 936.5,20.5 C 925.833,20.5 915.167,20.5 904.5,20.5C 904.5,48.8333 904.5,77.1667 904.5,105.5C 903.351,109.003 900.851,110.669 897,110.5C 892.571,110.722 890.071,108.722 889.5,104.5C 889.5,76.5 889.5,48.5 889.5,20.5C 879.167,20.5 868.833,20.5 858.5,20.5C 852.203,18.9073 850.536,15.2407 853.5,9.5C 854.665,8.41641 855.998,7.58308 857.5,7C 883.833,6.33333 910.167,6.33333 936.5,7C 944.47,11.6304 944.47,16.1304 936.5,20.5 Z"/></g>
<g><path style="opacity:0.651" fill="#387c9e" d="M 116.5,21.5 C 108.361,20.1686 99.8606,19.5019 91,19.5C 82.1394,19.5019 73.6394,20.1686 65.5,21.5C 64.596,20.791 64.2627,19.791 64.5,18.5C 82.1667,18.5 99.8333,18.5 117.5,18.5C 117.737,19.791 117.404,20.791 116.5,21.5 Z"/></g>
<g><path style="opacity:0.396" fill="#385b74" d="M 36.5,19.5 C 35.9689,22.7668 34.9689,23.1001 33.5,20.5C 34.1792,17.2932 35.3459,14.2932 37,11.5C 37.224,14.1105 36.724,16.6105 35.5,19C 35.7284,19.3988 36.0618,19.5654 36.5,19.5 Z"/></g>
<g><path style="opacity:1" fill="#42b1e0" d="M 116.5,21.5 C 113.747,21.8792 111.747,23.3792 110.5,26C 120.234,48.403 130.234,70.5697 140.5,92.5C 141.167,93.8333 141.833,95.1667 142.5,96.5C 142.5,96.8333 142.5,97.1667 142.5,97.5C 141.5,97.5 140.5,97.5 139.5,97.5C 136.921,106.668 133.755,115.668 130,124.5C 129.578,122.574 128.411,121.574 126.5,121.5C 118.069,106.302 110.402,90.6355 103.5,74.5C 101.608,68.3859 99.4411,62.3859 97,56.5C 96.2496,55.8742 95.4162,55.3742 94.5,55C 94.8333,54.6667 95.1667,54.3333 95.5,54C 94.0798,52.47 93.0798,50.6367 92.5,48.5C 91.8165,48.8627 91.1499,49.1961 90.5,49.5C 87.2317,42.3943 83.7317,35.3943 80,28.5C 75.7683,24.7121 70.935,22.3788 65.5,21.5C 73.6394,20.1686 82.1394,19.5019 91,19.5C 99.8606,19.5019 108.361,20.1686 116.5,21.5 Z"/></g>
<g><path style="opacity:1" fill="#449dc6" d="M 168.5,31.5 C 167.883,31.6107 167.383,31.944 167,32.5C 166.51,31.2068 166.343,29.8734 166.5,28.5C 166.519,23.984 164.186,21.984 159.5,22.5C 159.5,21.1667 159.5,19.8333 159.5,18.5C 167.5,18.5 175.5,18.5 183.5,18.5C 183.5,19.8333 183.5,21.1667 183.5,22.5C 176.724,22.6212 171.724,25.6212 168.5,31.5 Z"/></g>
<g><path style="opacity:0.067" fill="#67676f" d="M 346.5,18.5 C 348.104,19.287 348.771,20.6203 348.5,22.5C 347.326,21.4863 346.66,20.153 346.5,18.5 Z"/></g>
<g><path style="opacity:0.878" fill="#3d7392" d="M 228.5,15.5 C 227.833,15.5 227.167,15.5 226.5,15.5C 225.558,10.629 222.891,6.96232 218.5,4.5C 215.899,10.0855 217.066,15.0855 222,19.5C 222.224,16.8895 221.724,14.3895 220.5,12C 220.833,11.8333 221.167,11.6667 221.5,11.5C 222.893,14.1956 224.56,16.5289 226.5,18.5C 226.657,19.8734 226.49,21.2068 226,22.5C 224.757,21.6637 223.59,21.997 222.5,23.5C 224.556,25.93 225.723,28.5966 226,31.5C 225.667,30.8333 225.333,30.1667 225,29.5C 223.604,33.1131 221.77,33.4464 219.5,30.5C 220.239,30.631 220.906,30.4643 221.5,30C 219.833,28.8333 218.167,27.6667 216.5,26.5C 216.957,25.7025 217.624,25.3691 218.5,25.5C 216.898,23.9261 214.898,23.2594 212.5,23.5C 212.351,24.552 212.517,25.552 213,26.5C 214.812,27.9771 216.645,29.3104 218.5,30.5C 216.621,30.3932 216.288,30.8932 217.5,32C 220.684,32.7542 223.351,34.2542 225.5,36.5C 221.942,34.8883 218.275,33.555 214.5,32.5C 212.888,30.7024 211.388,28.7024 210,26.5C 210.175,20.3289 213.008,18.6623 218.5,21.5C 218.833,21.1667 219.167,20.8333 219.5,20.5C 216.519,16.7055 214.186,12.5388 212.5,8C 216.264,-1.6014 221.098,-1.76806 227,7.5C 228.079,10.0627 228.579,12.7294 228.5,15.5 Z M 218.5,25.5 C 217.624,25.3691 216.957,25.7025 216.5,26.5C 218.167,27.6667 219.833,28.8333 221.5,30C 220.906,30.4643 220.239,30.631 219.5,30.5C 219.167,30.5 218.833,30.5 218.5,30.5C 216.645,29.3104 214.812,27.9771 213,26.5C 212.517,25.552 212.351,24.552 212.5,23.5C 214.898,23.2594 216.898,23.9261 218.5,25.5 Z"/></g>
<g><path style="opacity:0.168" fill="#5a5a61" d="M 858.5,20.5 C 868.833,20.5 879.167,20.5 889.5,20.5C 889.5,48.5 889.5,76.5 889.5,104.5C 888.502,77.005 888.169,49.3384 888.5,21.5C 878.319,21.8274 868.319,21.494 858.5,20.5 Z"/></g>
<g><path style="opacity:0.493" fill="#86868d" d="M 936.5,20.5 C 926.347,21.4942 916.014,21.8276 905.5,21.5C 905.831,49.6716 905.498,77.6716 904.5,105.5C 904.5,77.1667 904.5,48.8333 904.5,20.5C 915.167,20.5 925.833,20.5 936.5,20.5 Z"/></g>
<g><path style="opacity:0.847" fill="#3d7696" d="M 30.5,12.5 C 30.7386,18.5652 30.2386,24.5652 29,30.5C 27.5391,31.8825 26.7058,31.5492 26.5,29.5C 26.1667,27.5 25.8333,25.5 25.5,23.5C 26.1515,24.0906 26.8182,24.7573 27.5,25.5C 27.9855,23.2229 27.3188,21.0563 25.5,19C 23.597,18.2263 21.9304,18.5596 20.5,20C 20.5699,21.6236 21.0699,23.4569 22,25.5C 23.3756,26.7051 24.5423,28.0384 25.5,29.5C 24.9569,29.56 24.6236,29.8933 24.5,30.5C 26.2255,32.2279 27.5589,34.2279 28.5,36.5C 27.5585,36.4895 26.8919,36.9895 26.5,38C 26.9755,39.7633 27.6422,41.43 28.5,43C 27.5842,43.2784 26.9175,43.7784 26.5,44.5C 25.1667,43.8333 24.1667,42.8333 23.5,41.5C 23.7035,39.6096 23.0368,38.1096 21.5,37C 22.4491,36.3828 23.2825,36.5494 24,37.5C 24.4643,36.9056 24.631,36.2389 24.5,35.5C 24.0387,32.6967 22.7053,30.3634 20.5,28.5C 19.0887,25.1594 18.0887,21.6594 17.5,18C 21.9649,13.0233 25.7982,13.5233 29,19.5C 29.1862,16.9644 29.6862,14.631 30.5,12.5 Z M 25.5,23.5 C 25.8333,25.5 26.1667,27.5 26.5,29.5C 26.1667,29.5 25.8333,29.5 25.5,29.5C 24.5423,28.0384 23.3756,26.7051 22,25.5C 21.0699,23.4569 20.5699,21.6236 20.5,20C 21.9304,18.5596 23.597,18.2263 25.5,19C 27.3188,21.0563 27.9855,23.2229 27.5,25.5C 26.8182,24.7573 26.1515,24.0906 25.5,23.5 Z"/></g>
<g><path style="opacity:1" fill="#3c7796" d="M 245.5,29.5 C 242.387,29.0646 241.721,30.0646 243.5,32.5C 243.332,34.1705 242.665,35.5039 241.5,36.5C 241.286,34.8561 241.62,33.3561 242.5,32C 242,31.5 241.5,31 241,30.5C 239.008,31.6647 237.175,32.998 235.5,34.5C 233.584,35.6653 232.751,37.332 233,39.5C 234.392,37.1582 235.225,37.1582 235.5,39.5C 234.11,40.8993 233.11,42.5659 232.5,44.5C 231.448,44.6495 230.448,44.4828 229.5,44C 230.692,42.0548 230.692,40.0548 229.5,38C 231.055,34.4391 233.388,31.4391 236.5,29C 235.906,28.5357 235.239,28.369 234.5,28.5C 236.302,25.4258 237.302,22.0924 237.5,18.5C 236.127,18.3433 234.793,18.51 233.5,19C 232.743,20.5122 231.743,21.8455 230.5,23C 231,23.5 231.5,24 232,24.5C 232.419,23.3279 233.085,22.3279 234,21.5C 234.167,21.8333 234.333,22.1667 234.5,22.5C 233.253,24.323 232.586,26.323 232.5,28.5C 231.167,28.8333 231.167,29.1667 232.5,29.5C 231.992,31.2327 231.159,31.566 230,30.5C 229.281,26.8546 228.781,23.1879 228.5,19.5C 230.384,18.6184 231.717,17.1184 232.5,15C 239.819,14.6847 242.319,18.1847 240,25.5C 239.5,26.6667 238.667,27.5 237.5,28C 238.899,28.5946 240.232,28.4279 241.5,27.5C 243.026,27.9943 244.359,28.661 245.5,29.5 Z M 234.5,28.5 C 233.833,28.5 233.167,28.5 232.5,28.5C 232.586,26.323 233.253,24.323 234.5,22.5C 234.333,22.1667 234.167,21.8333 234,21.5C 233.085,22.3279 232.419,23.3279 232,24.5C 231.5,24 231,23.5 230.5,23C 231.743,21.8455 232.743,20.5122 233.5,19C 234.793,18.51 236.127,18.3433 237.5,18.5C 237.302,22.0924 236.302,25.4258 234.5,28.5 Z"/></g>
<g><path style="opacity:0.141" fill="#223b51" d="M 235.5,34.5 C 236.528,35.0736 237.528,35.407 238.5,35.5C 237.479,36.9014 236.479,38.2347 235.5,39.5C 235.225,37.1582 234.392,37.1582 233,39.5C 232.751,37.332 233.584,35.6653 235.5,34.5 Z"/></g>
<g><path style="opacity:0.973" fill="#438aae" d="M 20.5,28.5 C 22.7053,30.3634 24.0387,32.6967 24.5,35.5C 22.405,33.2406 19.905,31.5739 17,30.5C 15.9289,35.6568 18.0956,39.3235 23.5,41.5C 24.1667,42.8333 25.1667,43.8333 26.5,44.5C 26.1961,45.1499 25.8627,45.8165 25.5,46.5C 27.0862,48.6705 28.4196,51.0038 29.5,53.5C 28.8333,53.8333 28.1667,54.1667 27.5,54.5C 28.9141,60.5771 28.2474,60.9104 25.5,55.5C 26.525,55.1034 26.6917,54.4368 26,53.5C 23.1949,48.6917 19.1949,45.3584 14,43.5C 13.2917,44.3805 12.4584,45.0472 11.5,45.5C 10.8333,46.8333 10.1667,48.1667 9.5,49.5C 7.50754,44.0985 9.50754,40.7652 15.5,39.5C 12.693,36.7219 11.8596,33.3885 13,29.5C 15.2446,27.2084 17.7446,26.875 20.5,28.5 Z"/></g>
<g><path style="opacity:0.671" fill="#325972" d="M 218.5,35.5 C 219.492,35.3284 220.158,35.6618 220.5,36.5C 222.754,37.4151 224.754,38.7484 226.5,40.5C 228.011,42.8375 227.677,43.5042 225.5,42.5C 224.671,42.8356 223.671,42.8356 222.5,42.5C 222.938,42.5654 223.272,42.3988 223.5,42C 222.271,40.4708 220.771,39.3041 219,38.5C 218.517,37.552 218.351,36.552 218.5,35.5 Z"/></g>
<g><path style="opacity:0.333" fill="#032e49" d="M 235.5,39.5 C 235.5,40.1667 235.833,40.5 236.5,40.5C 235.833,41.5 235.167,42.5 234.5,43.5C 233.833,43.8333 233.167,44.1667 232.5,44.5C 233.11,42.5659 234.11,40.8993 235.5,39.5 Z"/></g>
<g><path style="opacity:0.937" fill="#478db0" d="M 214.5,32.5 C 218.275,33.555 221.942,34.8883 225.5,36.5C 228.526,37.7591 228.86,39.0924 226.5,40.5C 224.754,38.7484 222.754,37.4151 220.5,36.5C 220.158,35.6618 219.492,35.3284 218.5,35.5C 217.07,35.5792 215.736,35.2458 214.5,34.5C 213.692,34.8076 213.025,35.3076 212.5,36C 215.379,38.9349 218.712,41.1015 222.5,42.5C 223.671,42.8356 224.671,42.8356 225.5,42.5C 225.423,43.7498 224.756,44.5831 223.5,45C 226.545,47.5838 228.045,50.7504 228,54.5C 227.31,53.2617 226.81,53.2617 226.5,54.5C 225.833,53.5 225.167,52.5 224.5,51.5C 221.597,46.5501 217.264,44.5501 211.5,45.5C 210.833,47.1667 210.167,48.8333 209.5,50.5C 206.708,46.0518 208.041,43.2184 213.5,42C 211.649,40.3163 209.982,38.4829 208.5,36.5C 209.832,34.1671 211.832,32.8337 214.5,32.5 Z"/></g>
<g><path style="opacity:1" fill="#468fb2" d="M 245.5,29.5 C 246.267,30.172 246.934,31.0053 247.5,32C 246.259,34.5628 244.926,37.0628 243.5,39.5C 246.155,39.9752 248.155,41.3085 249.5,43.5C 249.33,48.2745 248.33,48.6078 246.5,44.5C 244.094,43.6499 241.76,44.1499 239.5,46C 236.588,48.0147 234.255,50.5147 232.5,53.5C 232.225,51.1582 231.392,51.1582 230,53.5C 230.87,49.9456 232.703,46.779 235.5,44C 235.272,43.6012 234.938,43.4346 234.5,43.5C 235.167,42.5 235.833,41.5 236.5,40.5C 238.795,39.8645 240.461,38.5311 241.5,36.5C 242.665,35.5039 243.332,34.1705 243.5,32.5C 241.721,30.0646 242.387,29.0646 245.5,29.5 Z"/></g>
<g><path style="opacity:0.129" fill="#355369" d="M 25.5,55.5 C 24.6618,55.8417 24.3284,56.5084 24.5,57.5C 24.1667,57.5 23.8333,57.5 23.5,57.5C 22.4187,55.236 21.0854,53.0693 19.5,51C 22.1207,51.4265 24.1207,52.9265 25.5,55.5 Z"/></g>
<g><path style="opacity:0.598" fill="#a7a7ac" d="M 446.5,52.5 C 466.996,51.3374 487.663,51.1707 508.5,52C 509.416,52.2784 510.082,52.7784 510.5,53.5C 489.189,52.5569 467.856,52.2236 446.5,52.5 Z"/></g>
<g><path style="opacity:1" fill="#f0f0f0" d="M 446.5,52.5 C 467.856,52.2236 489.189,52.5569 510.5,53.5C 513.332,55.4065 514.166,58.0732 513,61.5C 512.167,63 511,64.1667 509.5,65C 498.735,66.1328 487.902,66.6328 477,66.5C 465.779,66.6213 454.612,66.1213 443.5,65C 440.651,62.4406 439.817,59.2739 441,55.5C 442.264,53.393 444.097,52.393 446.5,52.5 Z"/></g>
<g><path style="opacity:1" fill="#4aa9d4" d="M 30.5,12.5 C 31.1667,12.5 31.8333,12.5 32.5,12.5C 32.1936,15.3854 32.5269,18.0521 33.5,20.5C 34.9689,23.1001 35.9689,22.7668 36.5,19.5C 37.5,19.1667 38.1667,18.5 38.5,17.5C 39.3382,17.8417 39.6716,18.5084 39.5,19.5C 39.1667,20.1667 38.8333,20.8333 38.5,21.5C 36.154,23.6742 34.154,26.1742 32.5,29C 32.9444,30.7618 33.4444,30.5951 34,28.5C 35.113,29.7604 35.2797,30.927 34.5,32C 35.5,32.3333 36.5,32.6667 37.5,33C 34.6894,34.6437 32.356,36.8103 30.5,39.5C 31.1667,39.8333 31.8333,40.1667 32.5,40.5C 30.8858,43.1571 31.5525,44.9905 34.5,46C 32.7905,47.9157 31.4572,50.0824 30.5,52.5C 30.8457,53.6956 31.3457,53.6956 32,52.5C 32.4962,54.0349 32.3295,55.5349 31.5,57C 33.0706,57.3882 34.0706,58.8882 34.5,61.5C 33.4557,63.7676 33.289,66.1009 34,68.5C 34.3333,67.8333 34.6667,67.1667 35,66.5C 35.1981,68.3817 35.6981,70.0484 36.5,71.5C 37.1667,71.5 37.5,71.1667 37.5,70.5C 38.6775,75.1965 40.1775,79.8631 42,84.5C 42.1802,81.0445 42.8468,77.7111 44,74.5C 44.3988,74.7284 44.5654,75.0618 44.5,75.5C 44.5,78.8333 44.5,82.1667 44.5,85.5C 44.8333,86.8333 45.1667,88.1667 45.5,89.5C 45.7828,90.2891 46.2828,90.9558 47,91.5C 47.7412,90.3595 48.5745,90.3595 49.5,91.5C 50.4519,93.0453 50.7852,94.712 50.5,96.5C 47.8728,95.9084 45.2062,95.5751 42.5,95.5C 38.8333,95.5 35.1667,95.5 31.5,95.5C 30.7375,94.7321 29.7375,94.2321 28.5,94C 29.0944,93.5357 29.7611,93.369 30.5,93.5C 31.8333,93.5 33.1667,93.5 34.5,93.5C 37.9758,94.6433 41.6425,94.8099 45.5,94C 43.6652,93.0723 43.3318,91.9056 44.5,90.5C 42.8333,89.3333 41.1667,88.1667 39.5,87C 40.4506,86.2825 40.6172,85.4491 40,84.5C 38.0478,82.1064 35.5478,80.6064 32.5,80C 33.1667,79.6667 33.8333,79.3333 34.5,79C 34.2716,78.6012 33.9382,78.4346 33.5,78.5C 33.9175,77.7784 34.5842,77.2784 35.5,77C 33.0466,74.8293 32.0466,72.3293 32.5,69.5C 31.8671,67.2145 30.5338,65.5478 28.5,64.5C 28.5,64.1667 28.5,63.8333 28.5,63.5C 27.5707,62.6851 26.5707,61.8518 25.5,61C 26.7996,59.4212 26.4663,58.2545 24.5,57.5C 24.3284,56.5084 24.6618,55.8417 25.5,55.5C 28.2474,60.9104 28.9141,60.5771 27.5,54.5C 28.1667,54.1667 28.8333,53.8333 29.5,53.5C 28.4196,51.0038 27.0862,48.6705 25.5,46.5C 25.8627,45.8165 26.1961,45.1499 26.5,44.5C 26.9175,43.7784 27.5842,43.2784 28.5,43C 27.6422,41.43 26.9755,39.7633 26.5,38C 26.8919,36.9895 27.5585,36.4895 28.5,36.5C 27.5589,34.2279 26.2255,32.2279 24.5,30.5C 24.6236,29.8933 24.9569,29.56 25.5,29.5C 25.8333,29.5 26.1667,29.5 26.5,29.5C 26.7058,31.5492 27.5391,31.8825 29,30.5C 30.2386,24.5652 30.7386,18.5652 30.5,12.5 Z"/></g>
<g><path style="opacity:0.776" fill="#386c8b" d="M 11.5,45.5 C 12.2355,52.2394 16.2355,56.2394 23.5,57.5C 23.8333,58.8333 24.1667,58.8333 24.5,57.5C 26.4663,58.2545 26.7996,59.4212 25.5,61C 26.5707,61.8518 27.5707,62.6851 28.5,63.5C 27.1667,63.8333 27.1667,64.1667 28.5,64.5C 30.5338,65.5478 31.8671,67.2145 32.5,69.5C 32.0466,72.3293 33.0466,74.8293 35.5,77C 34.5842,77.2784 33.9175,77.7784 33.5,78.5C 32.209,78.7373 31.209,78.404 30.5,77.5C 30.9382,77.5654 31.2716,77.3988 31.5,77C 28.0171,73.7608 24.3504,70.7608 20.5,68C 24.2246,67.9973 27.3912,69.4973 30,72.5C 30.6667,71.8333 30.6667,71.1667 30,70.5C 27.9604,68.6298 26.1271,66.6298 24.5,64.5C 26.8418,64.2252 26.8418,63.3919 24.5,62C 20.9112,59.3694 16.9112,58.2028 12.5,58.5C 13.2625,57.7321 14.2625,57.2321 15.5,57C 12.8823,54.8943 10.8823,52.3943 9.5,49.5C 10.1667,48.1667 10.8333,46.8333 11.5,45.5 Z"/></g>
<g><path style="opacity:1" fill="#4babd6" d="M 226.5,15.5 C 227.167,15.5 227.833,15.5 228.5,15.5C 228.5,16.8333 228.5,18.1667 228.5,19.5C 228.781,23.1879 229.281,26.8546 230,30.5C 231.159,31.566 231.992,31.2327 232.5,29.5C 232.5,29.1667 232.5,28.8333 232.5,28.5C 233.167,28.5 233.833,28.5 234.5,28.5C 235.239,28.369 235.906,28.5357 236.5,29C 233.388,31.4391 231.055,34.4391 229.5,38C 230.692,40.0548 230.692,42.0548 229.5,44C 230.448,44.4828 231.448,44.6495 232.5,44.5C 233.167,44.1667 233.833,43.8333 234.5,43.5C 234.938,43.4346 235.272,43.6012 235.5,44C 232.703,46.779 230.87,49.9456 230,53.5C 231.392,51.1582 232.225,51.1582 232.5,53.5C 232.5,53.8333 232.5,54.1667 232.5,54.5C 229.954,55.9787 229.954,57.4787 232.5,59C 231.091,62.0818 229.258,64.9151 227,67.5C 226.405,68.8989 226.572,70.2322 227.5,71.5C 226.5,72.8333 225.5,74.1667 224.5,75.5C 224.723,76.9667 225.056,78.4667 225.5,80C 222.991,81.4213 220.657,83.0879 218.5,85C 219.416,85.2784 220.082,85.7784 220.5,86.5C 216.745,87.8712 214.078,90.3712 212.5,94C 214.066,94.765 215.399,94.5983 216.5,93.5C 220.167,93.5 223.833,93.5 227.5,93.5C 229.993,93.1307 230.66,93.7973 229.5,95.5C 229.167,95.5 228.833,95.5 228.5,95.5C 222.57,95.1282 216.903,95.7949 211.5,97.5C 210.167,97.8333 208.833,98.1667 207.5,98.5C 207.806,95.6146 207.473,92.9479 206.5,90.5C 205.897,87.9591 205.897,85.6257 206.5,83.5C 207.5,85.5 208.5,87.5 209.5,89.5C 209.369,90.2389 209.536,90.9056 210,91.5C 211.011,90.6634 212.178,90.33 213.5,90.5C 213.629,88.7839 213.962,87.1172 214.5,85.5C 214.5,82.8333 214.5,80.1667 214.5,77.5C 214.413,74.4017 214.913,74.0684 216,76.5C 216.333,79.1667 216.667,81.8333 217,84.5C 218.083,80.425 219.416,76.425 221,72.5C 221.333,73.5 221.667,74.5 222,75.5C 222.494,73.8659 222.66,72.1992 222.5,70.5C 225.562,68.3248 226.228,65.4915 224.5,62C 225.867,59.6985 226.534,57.1985 226.5,54.5C 226.81,53.2617 227.31,53.2617 228,54.5C 228.045,50.7504 226.545,47.5838 223.5,45C 224.756,44.5831 225.423,43.7498 225.5,42.5C 227.677,43.5042 228.011,42.8375 226.5,40.5C 228.86,39.0924 228.526,37.7591 225.5,36.5C 223.351,34.2542 220.684,32.7542 217.5,32C 216.288,30.8932 216.621,30.3932 218.5,30.5C 218.833,30.5 219.167,30.5 219.5,30.5C 221.77,33.4464 223.604,33.1131 225,29.5C 225.333,30.1667 225.667,30.8333 226,31.5C 225.723,28.5966 224.556,25.93 222.5,23.5C 223.59,21.997 224.757,21.6637 226,22.5C 226.49,21.2068 226.657,19.8734 226.5,18.5C 226.5,17.5 226.5,16.5 226.5,15.5 Z"/></g>
<g><path style="opacity:0.996" fill="#3c87ac" d="M 103.5,74.5 C 98.9432,66.3898 94.6099,58.0565 90.5,49.5C 91.1499,49.1961 91.8165,48.8627 92.5,48.5C 93.0798,50.6367 94.0798,52.47 95.5,54C 95.1667,54.3333 94.8333,54.6667 94.5,55C 95.4162,55.3742 96.2496,55.8742 97,56.5C 99.4411,62.3859 101.608,68.3859 103.5,74.5 Z"/></g>
<g><path style="opacity:0.922" fill="#447f9f" d="M 166.5,28.5 C 166.343,29.8734 166.51,31.2068 167,32.5C 167.383,31.944 167.883,31.6107 168.5,31.5C 160.592,53.4616 151.925,75.1282 142.5,96.5C 141.833,95.1667 141.167,93.8333 140.5,92.5C 141.117,92.3893 141.617,92.056 142,91.5C 150.388,69.3171 158.555,48.3171 166.5,28.5 Z"/></g>
<g><path style="opacity:0.937" fill="#3f7796" d="M 211.5,45.5 C 211.343,46.8734 211.51,48.2068 212,49.5C 215.312,52.656 218.979,55.3226 223,57.5C 223.065,54.8023 221.898,52.6356 219.5,51C 221.387,50.8374 222.887,51.6707 224,53.5C 224.464,52.9056 224.631,52.2389 224.5,51.5C 225.167,52.5 225.833,53.5 226.5,54.5C 226.534,57.1985 225.867,59.6985 224.5,62C 226.228,65.4915 225.562,68.3248 222.5,70.5C 222.66,72.1992 222.494,73.8659 222,75.5C 221.667,74.5 221.333,73.5 221,72.5C 219.416,76.425 218.083,80.425 217,84.5C 216.667,81.8333 216.333,79.1667 216,76.5C 214.913,74.0684 214.413,74.4017 214.5,77.5C 212.676,72.0884 209.009,70.0884 203.5,71.5C 202.818,75.8121 203.818,79.8121 206.5,83.5C 205.897,85.6257 205.897,87.9591 206.5,90.5C 207.473,92.9479 207.806,95.6146 207.5,98.5C 207.5,99.1667 207.833,99.5 208.5,99.5C 207.694,100.728 206.694,101.728 205.5,102.5C 203.158,102.225 203.158,101.392 205.5,100C 204.004,99.4926 202.837,99.9926 202,101.5C 201.667,100.833 201.333,100.167 201,99.5C 199.54,103.494 198.373,103.494 197.5,99.5C 198.045,96.1869 198.545,92.8536 199,89.5C 200.659,92.4302 200.992,95.4302 200,98.5C 202.436,94.5174 203.102,90.184 202,85.5C 199.577,81.1248 196.41,80.4581 192.5,83.5C 192.672,82.5084 192.338,81.8417 191.5,81.5C 194.266,78.0235 197.432,77.6901 201,80.5C 200.667,77.1667 200.333,73.8333 200,70.5C 200.833,69.6667 201.667,68.8333 202.5,68C 204.995,67.8425 207.328,67.6759 209.5,67.5C 206.775,65.2784 205.109,62.4451 204.5,59C 204.585,57.8926 204.919,56.8926 205.5,56C 207.715,54.9562 210.048,54.2895 212.5,54C 211.29,52.9609 210.29,51.7942 209.5,50.5C 210.167,48.8333 210.833,47.1667 211.5,45.5 Z M 222.5,70.5 C 220.993,68.7106 219.66,66.7106 218.5,64.5C 217.998,63.479 217.332,63.3123 216.5,64C 218.783,67.1772 219.617,70.6772 219,74.5C 213.454,70.0927 209.621,64.926 207.5,59C 210.618,56.2069 213.951,56.2069 217.5,59C 220.812,62.0993 222.479,65.9327 222.5,70.5 Z M 206.5,90.5 C 206.662,92.5273 206.495,94.5273 206,96.5C 205.617,97.056 205.117,97.3893 204.5,97.5C 204.41,94.8478 205.076,92.5145 206.5,90.5 Z"/></g>
<g><path style="opacity:0.918" fill="#427e9e" d="M 249.5,43.5 C 250.508,49.0138 248.508,53.5138 243.5,57C 250.507,58.3017 252.674,62.135 250,68.5C 246.645,72.758 242.478,75.9246 237.5,78C 245.122,81.8958 245.455,86.5625 238.5,92C 235.673,93.6636 232.673,94.8303 229.5,95.5C 230.66,93.7973 229.993,93.1307 227.5,93.5C 233.378,92.456 237.712,89.2893 240.5,84C 238.875,81.9357 236.708,80.7691 234,80.5C 229.297,82.1026 224.797,84.1026 220.5,86.5C 220.082,85.7784 219.416,85.2784 218.5,85C 220.657,83.0879 222.991,81.4213 225.5,80C 225.056,78.4667 224.723,76.9667 224.5,75.5C 225.5,74.1667 226.5,72.8333 227.5,71.5C 226.572,70.2322 226.405,68.8989 227,67.5C 229.258,64.9151 231.091,62.0818 232.5,59C 229.954,57.4787 229.954,55.9787 232.5,54.5C 234.394,53.9524 236.06,52.9524 237.5,51.5C 237.202,53.8718 235.869,56.0384 233.5,58C 238.163,57.0833 242.329,54.9167 246,51.5C 246.497,49.1902 246.663,46.8568 246.5,44.5C 248.33,48.6078 249.33,48.2745 249.5,43.5 Z M 229.5,70.5 C 232.985,64.1752 238.318,61.0086 245.5,61C 247.984,63.2838 248.151,65.7838 246,68.5C 240.948,73.8468 234.781,76.6802 227.5,77C 230.375,73.9559 233.375,71.1226 236.5,68.5C 236.333,68.1667 236.167,67.8333 236,67.5C 234.007,68.914 231.84,69.914 229.5,70.5 Z"/></g>
<g><path style="opacity:0.816" fill="#4383a5" d="M 12.5,58.5 C 16.9112,58.2028 20.9112,59.3694 24.5,62C 26.8418,63.3919 26.8418,64.2252 24.5,64.5C 21.3691,61.5988 17.7024,60.4321 13.5,61C 11.5819,62.7702 11.0819,64.9369 12,67.5C 16.7537,73.296 22.9204,76.6293 30.5,77.5C 31.209,78.404 32.209,78.7373 33.5,78.5C 33.9382,78.4346 34.2716,78.6012 34.5,79C 33.8333,79.3333 33.1667,79.6667 32.5,80C 35.5478,80.6064 38.0478,82.1064 40,84.5C 40.6172,85.4491 40.4506,86.2825 39.5,87C 41.1667,88.1667 42.8333,89.3333 44.5,90.5C 43.3318,91.9056 43.6652,93.0723 45.5,94C 41.6425,94.8099 37.9758,94.6433 34.5,93.5C 36.924,93.8076 39.2573,93.4742 41.5,92.5C 37.4209,89.8602 33.0875,87.6935 28.5,86C 31.8732,86.1289 35.2065,86.4622 38.5,87C 34.1012,83.8843 29.2678,81.7176 24,80.5C 17.7239,81.664 16.8905,84.4973 21.5,89C 24.4375,90.8009 27.4375,92.3009 30.5,93.5C 29.7611,93.369 29.0944,93.5357 28.5,94C 29.7375,94.2321 30.7375,94.7321 31.5,95.5C 24.657,94.9946 19.157,91.9946 15,86.5C 14.72,82.422 16.5533,79.5887 20.5,78C 14.9333,75.6424 10.7666,71.809 8,66.5C 6.75224,62.2548 8.25224,59.5882 12.5,58.5 Z M 34.5,93.5 C 33.1667,93.5 31.8333,93.5 30.5,93.5C 27.4375,92.3009 24.4375,90.8009 21.5,89C 16.8905,84.4973 17.7239,81.664 24,80.5C 29.2678,81.7176 34.1012,83.8843 38.5,87C 35.2065,86.4622 31.8732,86.1289 28.5,86C 33.0875,87.6935 37.4209,89.8602 41.5,92.5C 39.2573,93.4742 36.924,93.8076 34.5,93.5 Z"/></g>
<g><path style="opacity:0.667" fill="#3f637f" d="M 47.5,86.5 C 46.8333,87.5 46.1667,88.5 45.5,89.5C 45.1667,88.1667 44.8333,86.8333 44.5,85.5C 48.197,73.2579 49.197,73.5912 47.5,86.5 Z"/></g>
<g><path style="opacity:0.969" fill="#9f9fa4" d="M 834.5,87.5 C 832.167,88.1667 829.833,88.8333 827.5,89.5C 828.871,87.8588 830.704,86.8588 833,86.5C 833.765,86.5699 834.265,86.9033 834.5,87.5 Z"/></g>
<g><path style="opacity:1" fill="#387494" d="M 214.5,85.5 C 213.962,87.1172 213.629,88.7839 213.5,90.5C 212.178,90.33 211.011,90.6634 210,91.5C 209.536,90.9056 209.369,90.2389 209.5,89.5C 211.938,85.735 211.938,81.9016 209.5,78C 210.332,77.3123 210.998,77.479 211.5,78.5C 212.058,81.127 213.058,83.4604 214.5,85.5 Z"/></g>
<g><path style="opacity:0.82" fill="#3d6f8c" d="M 216.5,93.5 C 215.399,94.5983 214.066,94.765 212.5,94C 214.078,90.3712 216.745,87.8712 220.5,86.5C 220.56,87.0431 220.893,87.3764 221.5,87.5C 224.405,86.1871 227.405,85.6871 230.5,86C 226.615,87.8532 222.615,89.5198 218.5,91C 217.619,91.7083 216.953,92.5416 216.5,93.5 Z"/></g>
<g><path style="opacity:0.28" fill="#102a47" d="M 31.5,96.5 C 31.5,96.1667 31.5,95.8333 31.5,95.5C 35.1667,95.5 38.8333,95.5 42.5,95.5C 42.5,96.1667 42.8333,96.5 43.5,96.5C 43.5,96.8333 43.5,97.1667 43.5,97.5C 39.5483,96.7279 35.5483,96.3946 31.5,96.5 Z"/></g>
<g><path style="opacity:1" fill="#417b9b" d="M 96.5,114.5 C 95.5863,117.728 95.2529,121.061 95.5,124.5C 93.3812,124.532 92.0478,123.532 91.5,121.5C 93.1292,118.49 94.1292,115.156 94.5,111.5C 93.7344,106.85 91.0678,105.35 86.5,107C 85.9341,107.995 85.2674,108.828 84.5,109.5C 84.5654,109.062 84.3988,108.728 84,108.5C 83.2798,110.056 82.1132,111.056 80.5,111.5C 80.6653,107.818 80.4986,104.152 80,100.5C 77.3373,93.054 74.004,92.7207 70,99.5C 69.5702,102.192 69.7369,104.859 70.5,107.5C 69.8423,108.398 69.1757,109.398 68.5,110.5C 67.8933,110.376 67.56,110.043 67.5,109.5C 68.8333,109.167 68.8333,108.833 67.5,108.5C 67.9465,105.99 67.2798,103.99 65.5,102.5C 66.5729,100.347 66.5729,98.3469 65.5,96.5C 66.5396,92.2201 66.7062,87.8868 66,83.5C 64.1917,81.6041 62.025,81.1041 59.5,82C 54.8749,86.9731 54.2082,92.4731 57.5,98.5C 56.0283,100.134 54.3617,101.634 52.5,103C 55.1354,104.311 57.4687,105.978 59.5,108C 58.552,108.483 57.552,108.649 56.5,108.5C 56.3893,107.883 56.056,107.383 55.5,107C 50.1667,106 44.8333,105 39.5,104C 40.6001,102.977 41.9334,102.477 43.5,102.5C 45.8322,103.172 48.1656,103.339 50.5,103C 44.8567,99.9496 38.8567,98.6163 32.5,99C 28.7953,101.376 28.7953,104.042 32.5,107C 37.0993,109.867 42.0993,111.034 47.5,110.5C 45.7078,111.309 43.7078,111.809 41.5,112C 44.5,112.333 47.5,112.667 50.5,113C 49.6266,114.045 48.6266,114.878 47.5,115.5C 42.6781,113.853 37.6781,112.019 32.5,110C 28.3761,107.58 26.5428,104.08 27,99.5C 27.5885,97.1367 29.0885,96.1367 31.5,96.5C 35.5483,96.3946 39.5483,96.7279 43.5,97.5C 46.1667,97.1667 46.1667,96.8333 43.5,96.5C 42.8333,96.5 42.5,96.1667 42.5,95.5C 45.2062,95.5751 47.8728,95.9084 50.5,96.5C 50.7852,94.712 50.4519,93.0453 49.5,91.5C 48.5745,90.3595 47.7412,90.3595 47,91.5C 46.2828,90.9558 45.7828,90.2891 45.5,89.5C 46.1667,88.5 46.8333,87.5 47.5,86.5C 47.9867,87.4734 48.4867,88.4734 49,89.5C 50.4131,86.3388 52.0797,83.3388 54,80.5C 55.3185,77.594 55.6518,74.594 55,71.5C 50.3906,69.887 46.8906,71.2203 44.5,75.5C 44.5654,75.0618 44.3988,74.7284 44,74.5C 42.8468,77.7111 42.1802,81.0445 42,84.5C 40.1775,79.8631 38.6775,75.1965 37.5,70.5C 38.3519,67.7766 39.5186,65.11 41,62.5C 41.8928,61.2888 42.7261,61.2888 43.5,62.5C 40.2812,65.9284 39.1145,69.9284 40,74.5C 44.5813,70.8354 48.0813,66.3354 50.5,61C 49.5761,59.85 49.5761,58.85 50.5,58C 45.4088,56.4442 41.2421,57.9442 38,62.5C 36.8512,65.3926 36.3512,68.3926 36.5,71.5C 35.6981,70.0484 35.1981,68.3817 35,66.5C 34.6667,67.1667 34.3333,67.8333 34,68.5C 33.289,66.1009 33.4557,63.7676 34.5,61.5C 34.0706,58.8882 33.0706,57.3882 31.5,57C 32.3295,55.5349 32.4962,54.0349 32,52.5C 31.3457,53.6956 30.8457,53.6956 30.5,52.5C 31.4572,50.0824 32.7905,47.9157 34.5,46C 31.5525,44.9905 30.8858,43.1571 32.5,40.5C 31.8333,40.1667 31.1667,39.8333 30.5,39.5C 32.356,36.8103 34.6894,34.6437 37.5,33C 36.5,32.6667 35.5,32.3333 34.5,32C 35.2797,30.927 35.113,29.7604 34,28.5C 33.4444,30.5951 32.9444,30.7618 32.5,29C 34.154,26.1742 36.154,23.6742 38.5,21.5C 38.4346,21.9382 38.6012,22.2716 39,22.5C 43.0428,18.7291 46.5428,19.2291 49.5,24C 48.284,27.2212 46.284,29.8878 43.5,32C 51.1164,34.4856 51.4497,37.8189 44.5,42C 49.4452,42.273 51.2785,44.773 50,49.5C 48.4571,51.3783 46.6238,52.8783 44.5,54C 55.3557,53.9247 57.3557,58.0913 50.5,66.5C 53.1451,67.1919 55.6451,68.1919 58,69.5C 58.5428,72.8678 58.3761,76.2011 57.5,79.5C 63.0991,77.2179 66.9324,78.8846 69,84.5C 69.7415,87.562 69.5748,90.562 68.5,93.5C 68.8333,93.8333 69.1667,94.1667 69.5,94.5C 74.1259,90.2821 78.2925,90.6155 82,95.5C 82.3333,99.5 82.6667,103.5 83,107.5C 88.5917,101.685 93.2583,102.352 97,109.5C 97.6397,111.265 97.4731,112.932 96.5,114.5 Z M 80.5,111.5 C 80.5,111.833 80.5,112.167 80.5,112.5C 79.8333,113.167 79.1667,113.833 78.5,114.5C 77.8333,113.5 77.1667,112.5 76.5,111.5C 75.6827,108.521 74.8494,105.521 74,102.5C 73.5,104 73,105.5 72.5,107C 73.1476,108.44 73.4809,109.94 73.5,111.5C 72.5,110.167 71.5,108.833 70.5,107.5C 69.7369,104.859 69.5702,102.192 70,99.5C 74.004,92.7207 77.3373,93.054 80,100.5C 80.4986,104.152 80.6653,107.818 80.5,111.5 Z M 52.5,90.5 C 53.5683,92.6718 54.0683,95.0051 54,97.5C 52.0956,95.3294 51.5956,92.9961 52.5,90.5 Z M 65.5,96.5 C 64.3995,98.2774 63.5662,100.277 63,102.5C 62.6174,101.944 62.1174,101.611 61.5,101.5C 61.0013,97.5101 60.5013,93.5101 60,89.5C 59.1588,92.6282 58.3254,95.6282 57.5,98.5C 54.2082,92.4731 54.8749,86.9731 59.5,82C 62.025,81.1041 64.1917,81.6041 66,83.5C 66.7062,87.8868 66.5396,92.2201 65.5,96.5 Z M 37.5,70.5 C 37.5,71.1667 37.1667,71.5 36.5,71.5C 36.3512,68.3926 36.8512,65.3926 38,62.5C 41.2421,57.9442 45.4088,56.4442 50.5,58C 49.5761,58.85 49.5761,59.85 50.5,61C 48.0813,66.3354 44.5813,70.8354 40,74.5C 39.1145,69.9284 40.2812,65.9284 43.5,62.5C 42.7261,61.2888 41.8928,61.2888 41,62.5C 39.5186,65.11 38.3519,67.7766 37.5,70.5 Z M 41.5,45.5 C 43.5,45.5 45.5,45.5 47.5,45.5C 47.6567,46.8734 47.49,48.2068 47,49.5C 43.1789,52.7433 39.1789,55.7433 35,58.5C 35.0524,55.7277 36.219,53.3944 38.5,51.5C 36.9974,51.1654 35.664,51.1654 34.5,51.5C 36.3068,48.7809 38.6402,46.7809 41.5,45.5 Z M 42.5,34.5 C 44.6859,34.5106 45.5192,35.5106 45,37.5C 42.1882,39.9918 39.0215,41.4918 35.5,42C 36.6853,40.647 38.0186,39.4803 39.5,38.5C 38.9747,37.8076 38.3081,37.3076 37.5,37C 39.1749,36.0147 40.8415,35.1814 42.5,34.5 Z M 38.5,26.5 C 38.2172,27.2891 37.7172,27.9558 37,28.5C 36.4719,27.184 36.9719,26.5173 38.5,26.5 Z M 41.5,24.5 C 42.5676,23.5655 43.901,23.2322 45.5,23.5C 44.743,27.9193 42.0764,30.2526 37.5,30.5C 38.5077,28.6614 40.0077,27.3281 42,26.5C 42.6917,25.5632 42.525,24.8966 41.5,24.5 Z M 56.5,108.5 C 53.2186,108.42 50.2186,109.087 47.5,110.5C 42.0993,111.034 37.0993,109.867 32.5,107C 28.7953,104.042 28.7953,101.376 32.5,99C 38.8567,98.6163 44.8567,99.9496 50.5,103C 48.1656,103.339 45.8322,103.172 43.5,102.5C 41.9334,102.477 40.6001,102.977 39.5,104C 44.8333,105 50.1667,106 55.5,107C 56.056,107.383 56.3893,107.883 56.5,108.5 Z M 65.5,102.5 C 67.2798,103.99 67.9465,105.99 67.5,108.5C 66.2616,106.786 65.595,104.786 65.5,102.5 Z"/></g>
<g><path style="opacity:0.465" fill="#355c77" d="M 61.5,101.5 C 59.2847,102.307 57.9513,101.307 57.5,98.5C 58.3254,95.6282 59.1588,92.6282 60,89.5C 60.5013,93.5101 61.0013,97.5101 61.5,101.5 Z"/></g>
<g><path style="opacity:0.706" fill="#c0bfc3" d="M 515.5,97.5 C 489.455,97.1848 463.455,97.5181 437.5,98.5C 437.611,97.8826 437.944,97.3826 438.5,97C 464.337,96.1699 490.003,96.3366 515.5,97.5 Z"/></g>
<g><path style="opacity:1" fill="#fafafb" d="M 515.5,97.5 C 516.458,97.9528 517.292,98.6195 518,99.5C 520.722,104.254 519.556,107.754 514.5,110C 489.167,110.667 463.833,110.667 438.5,110C 437.29,108.961 436.29,107.794 435.5,106.5C 435.5,104.5 435.5,102.5 435.5,100.5C 435.833,99.5 436.5,98.8333 437.5,98.5C 463.455,97.5181 489.455,97.1848 515.5,97.5 Z"/></g>
<g><path style="opacity:0.302" fill="#0e4463" d="M 189.5,92.5 C 190.789,95.7603 192.122,99.0936 193.5,102.5C 193.784,104.415 193.451,106.081 192.5,107.5C 192.737,106.209 192.404,105.209 191.5,104.5C 191.65,100.805 190.65,97.472 188.5,94.5C 189.338,94.1583 189.672,93.4916 189.5,92.5 Z"/></g>
<g><path style="opacity:1" fill="#4d8cad" d="M 191.5,81.5 C 192.338,81.8417 192.672,82.5084 192.5,83.5C 191.351,90.3788 192.684,96.7121 196.5,102.5C 195.472,105.098 194.472,105.098 193.5,102.5C 192.122,99.0936 190.789,95.7603 189.5,92.5C 189.335,89.4816 189.502,86.4816 190,83.5C 190.278,82.5842 190.778,81.9175 191.5,81.5 Z"/></g>
<g><path style="opacity:0.863" fill="#4d99be" d="M 65.5,96.5 C 66.5729,98.3469 66.5729,100.347 65.5,102.5C 65.595,104.786 66.2616,106.786 67.5,108.5C 67.5,108.833 67.5,109.167 67.5,109.5C 67.56,110.043 67.8933,110.376 68.5,110.5C 69.1757,109.398 69.8423,108.398 70.5,107.5C 71.5,108.833 72.5,110.167 73.5,111.5C 73.5,112.167 73.5,112.833 73.5,113.5C 72.325,113.281 71.325,113.614 70.5,114.5C 71.6016,115.176 72.6016,115.842 73.5,116.5C 72.5,116.5 71.5,116.5 70.5,116.5C 70.1667,116.5 69.8333,116.5 69.5,116.5C 69.5,115.833 69.1667,115.5 68.5,115.5C 69.6511,112.947 68.6511,111.614 65.5,111.5C 64.791,110.596 63.791,110.263 62.5,110.5C 60.8333,110.5 59.1667,110.5 57.5,110.5C 55.6916,110.491 54.0249,110.991 52.5,112C 55.1667,112.333 57.8333,112.667 60.5,113C 57.9644,113.186 55.631,113.686 53.5,114.5C 46.7888,117.885 47.1221,120.885 54.5,123.5C 57.8333,124.167 61.1667,124.833 64.5,125.5C 59.5095,126.805 54.5095,126.638 49.5,125C 45.4972,122.203 44.8305,119.036 47.5,115.5C 48.6266,114.878 49.6266,114.045 50.5,113C 47.5,112.667 44.5,112.333 41.5,112C 43.7078,111.809 45.7078,111.309 47.5,110.5C 50.2186,109.087 53.2186,108.42 56.5,108.5C 57.552,108.649 58.552,108.483 59.5,108C 57.4687,105.978 55.1354,104.311 52.5,103C 54.3617,101.634 56.0283,100.134 57.5,98.5C 57.9513,101.307 59.2847,102.307 61.5,101.5C 62.1174,101.611 62.6174,101.944 63,102.5C 63.5662,100.277 64.3995,98.2774 65.5,96.5 Z"/></g>
<g><path style="opacity:1" fill="#4491b7" d="M 142.5,97.5 C 138.846,106.812 135.18,116.145 131.5,125.5C 128.695,126.088 127.028,124.755 126.5,121.5C 128.411,121.574 129.578,122.574 130,124.5C 133.755,115.668 136.921,106.668 139.5,97.5C 140.5,97.5 141.5,97.5 142.5,97.5 Z"/></g>
<g><path style="opacity:0.28" fill="#22435b" d="M 176.5,100.5 C 176.664,103.187 176.497,105.854 176,108.5C 175.283,107.956 174.783,107.289 174.5,106.5C 175.167,104.5 175.833,102.5 176.5,100.5 Z"/></g>
<g><path style="opacity:0.725" fill="#86868d" d="M 435.5,100.5 C 435.5,102.5 435.5,104.5 435.5,106.5C 433.269,104.642 433.269,102.642 435.5,100.5 Z"/></g>
<g><path style="opacity:0.871" fill="#467e9d" d="M 188.5,94.5 C 190.65,97.472 191.65,100.805 191.5,104.5C 191.167,105.833 190.833,107.167 190.5,108.5C 191.167,108.167 191.833,107.833 192.5,107.5C 192.586,108.496 192.252,109.329 191.5,110C 192.793,110.49 194.127,110.657 195.5,110.5C 199.14,108.191 202.473,105.524 205.5,102.5C 206.694,101.728 207.694,100.728 208.5,99.5C 210.179,99.1077 211.846,98.6077 213.5,98C 212.906,97.5357 212.239,97.369 211.5,97.5C 216.903,95.7949 222.57,95.1282 228.5,95.5C 232.483,97.9623 233.316,101.296 231,105.5C 225.397,111.216 218.564,114.049 210.5,114C 214.581,120.062 212.914,124.062 205.5,126C 201.245,126.796 197.079,126.629 193,125.5C 194.462,132.244 191.629,136.244 184.5,137.5C 181.825,136.149 179.159,135.815 176.5,136.5C 177.953,138.644 177.62,140.477 175.5,142C 170.974,142.849 166.64,142.349 162.5,140.5C 161.473,138.806 160.139,137.473 158.5,136.5C 158.389,135.883 158.056,135.383 157.5,135C 158.793,134.51 160.127,134.343 161.5,134.5C 162.873,134.343 164.207,134.51 165.5,135C 164.906,135.464 164.239,135.631 163.5,135.5C 162.448,135.351 161.448,135.517 160.5,136C 164.607,139.538 169.274,140.705 174.5,139.5C 173.409,136.119 171.075,134.452 167.5,134.5C 166.282,133.839 164.949,133.172 163.5,132.5C 166.375,131.605 169.208,131.938 172,133.5C 172.5,133.333 173,133.167 173.5,133C 172.584,132.722 171.918,132.222 171.5,131.5C 172.167,131.5 172.5,131.167 172.5,130.5C 168.555,129.575 168.555,128.409 172.5,127C 172.167,126.667 171.833,126.333 171.5,126C 172.5,125.667 173.5,125.333 174.5,125C 173.542,123.853 173.875,122.853 175.5,122C 177.952,121.71 180.285,121.044 182.5,120C 181.655,118.442 182.321,117.442 184.5,117C 185.793,116.51 187.127,116.343 188.5,116.5C 190.076,113.785 189.742,111.452 187.5,109.5C 189.366,105.497 189.532,101.497 188,97.5C 184.239,93.2659 181.072,93.5993 178.5,98.5C 177.833,98.5 177.167,98.5 176.5,98.5C 178.448,91.013 182.448,89.6797 188.5,94.5 Z M 191.5,104.5 C 192.404,105.209 192.737,106.209 192.5,107.5C 191.833,107.833 191.167,108.167 190.5,108.5C 190.833,107.167 191.167,105.833 191.5,104.5 Z M 220.5,98.5 C 230.622,98.3816 231.955,101.548 224.5,108C 217.212,111.06 209.879,111.06 202.5,108C 207.392,106.29 212.392,104.79 217.5,103.5C 213.874,102.878 210.207,102.711 206.5,103C 211.371,101.709 216.037,100.209 220.5,98.5 Z M 211.5,97.5 C 212.239,97.369 212.906,97.5357 213.5,98C 211.846,98.6077 210.179,99.1077 208.5,99.5C 207.833,99.5 207.5,99.1667 207.5,98.5C 208.833,98.1667 210.167,97.8333 211.5,97.5 Z M 189.5,116.5 C 194.561,114.577 199.895,114.077 205.5,115C 210.968,118.284 210.634,120.951 204.5,123C 197.346,123.911 190.346,123.245 183.5,121C 188.375,119.755 193.042,118.755 197.5,118C 195.063,116.625 192.397,116.125 189.5,116.5 Z M 172.5,130.5 C 172.389,129.883 172.056,129.383 171.5,129C 174.099,128.231 176.599,128.398 179,129.5C 179.75,128.874 180.584,128.374 181.5,128C 179.715,126.837 177.715,126.17 175.5,126C 179.926,125.209 184.259,125.543 188.5,127C 191.747,131.339 190.581,133.839 185,134.5C 180.763,133.293 176.596,131.96 172.5,130.5 Z M 167.5,134.5 C 171.075,134.452 173.409,136.119 174.5,139.5C 169.274,140.705 164.607,139.538 160.5,136C 161.448,135.517 162.448,135.351 163.5,135.5C 164.601,136.598 165.934,136.765 167.5,136C 166.262,135.31 166.262,134.81 167.5,134.5 Z"/></g>
<g><path style="opacity:1" fill="#49add9" d="M 197.5,99.5 C 198.373,103.494 199.54,103.494 201,99.5C 201.333,100.167 201.667,100.833 202,101.5C 202.837,99.9926 204.004,99.4926 205.5,100C 203.158,101.392 203.158,102.225 205.5,102.5C 202.473,105.524 199.14,108.191 195.5,110.5C 194.127,110.657 192.793,110.49 191.5,110C 192.252,109.329 192.586,108.496 192.5,107.5C 193.451,106.081 193.784,104.415 193.5,102.5C 194.472,105.098 195.472,105.098 196.5,102.5C 196.557,101.391 196.89,100.391 197.5,99.5 Z"/></g>
<g><path style="opacity:0.824" fill="#365d79" d="M 76.5,111.5 C 75.8359,112.648 75.6692,113.981 76,115.5C 75.2917,114.619 74.4584,113.953 73.5,113.5C 73.5,112.833 73.5,112.167 73.5,111.5C 73.4809,109.94 73.1476,108.44 72.5,107C 73,105.5 73.5,104 74,102.5C 74.8494,105.521 75.6827,108.521 76.5,111.5 Z"/></g>
<g><path style="opacity:0.392" fill="#1b3a57" d="M 200.5,111.5 C 200.5,111.167 200.5,110.833 200.5,110.5C 202.655,110.372 204.655,110.872 206.5,112C 204.455,112.49 202.455,112.323 200.5,111.5 Z"/></g>
<g><path style="opacity:0.882" fill="#3d6e8d" d="M 57.5,110.5 C 59.1667,111.833 60.8333,111.833 62.5,110.5C 63.791,110.263 64.791,110.596 65.5,111.5C 68.6511,111.614 69.6511,112.947 68.5,115.5C 63.547,114.671 58.547,114.337 53.5,114.5C 55.631,113.686 57.9644,113.186 60.5,113C 57.8333,112.667 55.1667,112.333 52.5,112C 54.0249,110.991 55.6916,110.491 57.5,110.5 Z"/></g>
<g><path style="opacity:0.965" fill="#3c6782" d="M 185.5,111.5 C 184.757,114.588 183.09,115.255 180.5,113.5C 182.481,110.064 183.981,106.397 185,102.5C 185.087,105.707 185.254,108.707 185.5,111.5 Z"/></g>
<g><path style="opacity:0.773" fill="#1f6183" d="M 178.5,99.5 C 178.334,104.511 178.501,109.511 179,114.5C 179.383,113.944 179.883,113.611 180.5,113.5C 180.315,115.196 179.481,116.529 178,117.5C 177.181,111.319 177.347,105.319 178.5,99.5 Z"/></g>
<g><path style="opacity:0.749" fill="#3d6985" d="M 69.5,116.5 C 69.8333,117.833 70.1667,117.833 70.5,116.5C 71.5,116.5 72.5,116.5 73.5,116.5C 74.9744,117.436 75.9744,118.77 76.5,120.5C 75.791,121.404 74.791,121.737 73.5,121.5C 73.3893,120.883 73.056,120.383 72.5,120C 69.2423,119.788 66.0757,119.288 63,118.5C 61.7025,119.784 60.5358,119.617 59.5,118C 62.6883,116.684 66.0217,116.184 69.5,116.5 Z"/></g>
<g><path style="opacity:1" fill="#3c7495" d="M 91.5,121.5 C 90.7784,121.918 90.2784,122.584 90,123.5C 87.943,122.315 85.943,121.315 84,120.5C 82.6986,118.635 82.3653,116.635 83,114.5C 84.0432,118.226 84.5432,117.893 84.5,113.5C 85.5375,114.93 86.2041,116.597 86.5,118.5C 86.7828,119.289 87.2828,119.956 88,120.5C 88.4966,118.19 88.6633,115.857 88.5,113.5C 88.4346,113.062 88.6012,112.728 89,112.5C 90.1498,115.418 90.9831,118.418 91.5,121.5 Z"/></g>
<g><path style="opacity:0.045" fill="#0e1e33" d="M 88.5,113.5 C 88.6633,115.857 88.4966,118.19 88,120.5C 87.2828,119.956 86.7828,119.289 86.5,118.5C 87.1667,116.833 87.8333,115.167 88.5,113.5 Z"/></g>
<g><path style="opacity:0.325" fill="#093c5c" d="M 96.5,114.5 C 97.1667,114.833 97.8333,115.167 98.5,115.5C 96.9933,119.948 97.3266,124.281 99.5,128.5C 98.643,129.4 97.9763,129.066 97.5,127.5C 97.5,126.833 97.1667,126.5 96.5,126.5C 96.1667,126.5 95.8333,126.5 95.5,126.5C 95.5,125.833 95.5,125.167 95.5,124.5C 95.2529,121.061 95.5863,117.728 96.5,114.5 Z"/></g>
<g><path style="opacity:0.914" fill="#387394" d="M 173.5,109.5 C 174.309,111.292 174.809,113.292 175,115.5C 175.649,112.063 176.149,111.896 176.5,115C 176.091,117.321 175.257,119.487 174,121.5C 173,122.833 172,122.833 171,121.5C 169.774,123.548 168.274,123.881 166.5,122.5C 167.757,119.904 168.924,117.237 170,114.5C 170.743,116.441 170.576,118.274 169.5,120C 170.332,120.688 170.998,120.521 171.5,119.5C 173.184,116.388 173.85,113.054 173.5,109.5 Z"/></g>
<g><path style="opacity:0.902" fill="#4681a1" d="M 107.5,119.5 C 106.92,123.81 106.586,128.143 106.5,132.5C 105.71,131.391 105.21,130.058 105,128.5C 104.683,130.301 104.016,130.634 103,129.5C 101.378,130.099 99.8775,130.766 98.5,131.5C 95.3962,130.225 92.3962,130.225 89.5,131.5C 88.8333,131.5 88.1667,131.5 87.5,131.5C 85.4261,132.514 83.4261,133.514 81.5,134.5C 75.9225,138.543 70.7558,137.876 66,132.5C 65.2571,130.559 65.4238,128.726 66.5,127C 65.9558,126.283 65.2891,125.783 64.5,125.5C 61.1667,124.833 57.8333,124.167 54.5,123.5C 60.934,123.673 67.2674,123.006 73.5,121.5C 74.791,121.737 75.791,121.404 76.5,120.5C 81.1507,120.993 85.1507,122.827 88.5,126C 87.8333,126.333 87.1667,126.667 86.5,127C 89.5102,129.169 92.8436,129.836 96.5,129C 95.7476,128.329 95.4142,127.496 95.5,126.5C 95.8333,126.5 96.1667,126.5 96.5,126.5C 97.1667,126.5 97.5,126.833 97.5,127.5C 97.9763,129.066 98.643,129.4 99.5,128.5C 97.3266,124.281 96.9933,119.948 98.5,115.5C 103.461,112.165 106.461,113.498 107.5,119.5 Z M 101.5,115.5 C 104.436,116.515 105.769,118.682 105.5,122C 105.604,124.145 104.937,125.979 103.5,127.5C 102.571,126.311 102.238,124.978 102.5,123.5C 101.5,123.5 100.5,123.5 99.5,123.5C 99.1072,120.487 99.7739,117.82 101.5,115.5 Z M 73.5,125.5 C 76.5184,125.335 79.5184,125.502 82.5,126C 79.6924,126.019 77.3591,127.019 75.5,129C 89.7876,127.394 90.1209,129.061 76.5,134C 71.1529,135.616 68.3196,133.783 68,128.5C 69.8761,127.391 71.7095,126.391 73.5,125.5 Z"/></g>
<g><path style="opacity:1" fill="#47adda" d="M 84.5,109.5 C 84.5,110.833 84.5,112.167 84.5,113.5C 84.5432,117.893 84.0432,118.226 83,114.5C 82.3653,116.635 82.6986,118.635 84,120.5C 85.943,121.315 87.943,122.315 90,123.5C 90.2784,122.584 90.7784,121.918 91.5,121.5C 92.0478,123.532 93.3812,124.532 95.5,124.5C 95.5,125.167 95.5,125.833 95.5,126.5C 95.4142,127.496 95.7476,128.329 96.5,129C 92.8436,129.836 89.5102,129.169 86.5,127C 87.1667,126.667 87.8333,126.333 88.5,126C 85.1507,122.827 81.1507,120.993 76.5,120.5C 75.9744,118.77 74.9744,117.436 73.5,116.5C 72.6016,115.842 71.6016,115.176 70.5,114.5C 71.325,113.614 72.325,113.281 73.5,113.5C 74.4584,113.953 75.2917,114.619 76,115.5C 75.6692,113.981 75.8359,112.648 76.5,111.5C 77.1667,112.5 77.8333,113.5 78.5,114.5C 78.7828,115.289 79.2828,115.956 80,116.5C 80.49,115.207 80.6567,113.873 80.5,112.5C 80.5,112.167 80.5,111.833 80.5,111.5C 82.1132,111.056 83.2798,110.056 84,108.5C 84.3988,108.728 84.5654,109.062 84.5,109.5 Z"/></g>
<g><path style="opacity:0.145" fill="#082943" d="M 80.5,112.5 C 80.6567,113.873 80.49,115.207 80,116.5C 79.2828,115.956 78.7828,115.289 78.5,114.5C 79.1667,113.833 79.8333,113.167 80.5,112.5 Z"/></g>
<g><path style="opacity:0.757" fill="#366683" d="M 107.5,119.5 C 108.163,121.042 108.83,122.709 109.5,124.5C 112.035,123.497 114.202,124.163 116,126.5C 117.718,128.897 118.885,131.564 119.5,134.5C 122.035,133.497 124.202,134.163 126,136.5C 126.339,139.88 126.839,143.213 127.5,146.5C 125.226,144.006 122.392,142.34 119,141.5C 117.847,138.289 117.18,134.956 117,131.5C 116.808,133.577 116.308,135.577 115.5,137.5C 114.575,136.359 113.741,136.359 113,137.5C 112.283,136.956 111.783,136.289 111.5,135.5C 112.833,135.167 112.833,134.833 111.5,134.5C 112.248,132.265 113.081,132.598 114,135.5C 114.818,132.773 114.652,130.106 113.5,127.5C 110.572,126.079 109.238,127.079 109.5,130.5C 108.732,129.737 108.232,128.737 108,127.5C 107.313,129.568 107.48,131.568 108.5,133.5C 108.03,134.463 107.363,134.463 106.5,133.5C 106.5,133.167 106.5,132.833 106.5,132.5C 106.586,128.143 106.92,123.81 107.5,119.5 Z M 111.5,134.5 C 110.655,133.329 109.989,131.995 109.5,130.5C 109.238,127.079 110.572,126.079 113.5,127.5C 114.652,130.106 114.818,132.773 114,135.5C 113.081,132.598 112.248,132.265 111.5,134.5 Z M 120.5,136.5 C 122.564,136.762 123.897,137.929 124.5,140C 121.179,141.872 119.845,140.705 120.5,136.5 Z"/></g>
<g><path style="opacity:0.804" fill="#386a88" d="M 151.5,118.5 C 151.987,123.69 151.987,128.69 151.5,133.5C 150.655,135.762 149.322,136.429 147.5,135.5C 147.5,134.833 147.5,134.167 147.5,133.5C 149.238,131.881 149.738,129.881 149,127.5C 146.426,126.08 144.593,126.747 143.5,129.5C 143.672,128.508 143.338,127.842 142.5,127.5C 144.397,123.945 146.897,123.278 150,125.5C 150.186,122.964 150.686,120.631 151.5,118.5 Z"/></g>
<g><path style="opacity:0.182" fill="#1f4760" d="M 888.5,130.5 C 893.975,129.511 899.642,129.178 905.5,129.5C 905.5,131.167 905.5,132.833 905.5,134.5C 901.069,134.231 896.735,134.564 892.5,135.5C 896.029,133.577 900.029,132.911 904.5,133.5C 904.5,132.5 904.5,131.5 904.5,130.5C 899.167,130.5 893.833,130.5 888.5,130.5 Z"/></g>
<g><path style="opacity:0.937" fill="#3c7594" d="M 174.5,106.5 C 173.662,106.842 173.328,107.508 173.5,108.5C 170.663,105.899 167.83,105.899 165,108.5C 164.233,113.426 164.733,118.092 166.5,122.5C 165.074,123.341 163.74,124.341 162.5,125.5C 162.631,124.761 162.464,124.094 162,123.5C 160.991,125.025 160.491,126.692 160.5,128.5C 158.955,131.767 156.622,132.434 153.5,130.5C 153.5,129.167 153.5,127.833 153.5,126.5C 154.222,126.918 154.722,127.584 155,128.5C 155.667,127.167 156.333,125.833 157,124.5C 157.333,125.167 157.667,125.833 158,126.5C 160.309,122.365 159.809,118.698 156.5,115.5C 154.459,116.707 153.126,118.374 152.5,120.5C 152.737,119.209 152.404,118.209 151.5,117.5C 152.462,113.854 154.795,112.687 158.5,114C 159.618,115.074 160.618,116.24 161.5,117.5C 161.582,114.667 161.748,111.667 162,108.5C 164.511,104.66 168.011,103.16 172.5,104C 173.381,104.708 174.047,105.542 174.5,106.5 Z"/></g>
<g><path style="opacity:1" fill="#4dabd6" d="M 176.5,98.5 C 177.167,98.5 177.833,98.5 178.5,98.5C 178.5,98.8333 178.5,99.1667 178.5,99.5C 177.347,105.319 177.181,111.319 178,117.5C 179.481,116.529 180.315,115.196 180.5,113.5C 183.09,115.255 184.757,114.588 185.5,111.5C 185.833,110.5 186.5,109.833 187.5,109.5C 189.742,111.452 190.076,113.785 188.5,116.5C 187.127,116.343 185.793,116.51 184.5,117C 182.321,117.442 181.655,118.442 182.5,120C 180.285,121.044 177.952,121.71 175.5,122C 173.875,122.853 173.542,123.853 174.5,125C 173.5,125.333 172.5,125.667 171.5,126C 171.833,126.333 172.167,126.667 172.5,127C 168.555,128.409 168.555,129.575 172.5,130.5C 172.5,131.167 172.167,131.5 171.5,131.5C 167.278,129.863 163.278,130.197 159.5,132.5C 159.846,133.696 160.346,133.696 161,132.5C 161.464,133.094 161.631,133.761 161.5,134.5C 160.127,134.343 158.793,134.51 157.5,135C 158.056,135.383 158.389,135.883 158.5,136.5C 153.162,135.652 149.162,137.486 146.5,142C 147.094,142.464 147.761,142.631 148.5,142.5C 148.833,142.5 149.167,142.5 149.5,142.5C 149.631,143.239 149.464,143.906 149,144.5C 148.282,143.549 147.449,143.383 146.5,144C 147.517,145.049 147.684,146.216 147,147.5C 146.722,146.584 146.222,145.918 145.5,145.5C 145.167,145.5 144.833,145.5 144.5,145.5C 143.796,143.656 142.463,143.156 140.5,144C 138.268,145.59 135.934,147.09 133.5,148.5C 132.513,145.232 132.18,141.898 132.5,138.5C 133.302,139.952 133.802,141.618 134,143.5C 134.667,142.167 135.333,142.167 136,143.5C 137.039,142.756 137.539,141.756 137.5,140.5C 139.129,142.06 140.296,141.727 141,139.5C 141.498,136.183 141.665,132.85 141.5,129.5C 141.328,128.508 141.662,127.842 142.5,127.5C 143.338,127.842 143.672,128.508 143.5,129.5C 142.527,131.948 142.194,134.615 142.5,137.5C 144.698,137.88 146.365,137.213 147.5,135.5C 149.322,136.429 150.655,135.762 151.5,133.5C 151.987,128.69 151.987,123.69 151.5,118.5C 151.5,118.167 151.5,117.833 151.5,117.5C 152.404,118.209 152.737,119.209 152.5,120.5C 153.15,122.435 153.483,124.435 153.5,126.5C 153.5,127.833 153.5,129.167 153.5,130.5C 156.622,132.434 158.955,131.767 160.5,128.5C 161.401,127.71 162.068,126.71 162.5,125.5C 163.74,124.341 165.074,123.341 166.5,122.5C 168.274,123.881 169.774,123.548 171,121.5C 172,122.833 173,122.833 174,121.5C 175.257,119.487 176.091,117.321 176.5,115C 176.149,111.896 175.649,112.063 175,115.5C 174.809,113.292 174.309,111.292 173.5,109.5C 173.5,109.167 173.5,108.833 173.5,108.5C 173.328,107.508 173.662,106.842 174.5,106.5C 174.783,107.289 175.283,107.956 176,108.5C 176.497,105.854 176.664,103.187 176.5,100.5C 176.5,99.8333 176.5,99.1667 176.5,98.5 Z M 162.5,125.5 C 162.068,126.71 161.401,127.71 160.5,128.5C 160.491,126.692 160.991,125.025 162,123.5C 162.464,124.094 162.631,124.761 162.5,125.5 Z M 144.5,145.5 C 144.833,145.5 145.167,145.5 145.5,145.5C 145.03,146.693 144.03,147.36 142.5,147.5C 141.5,147.333 140.5,147.167 139.5,147C 141.025,145.991 142.692,145.491 144.5,145.5 Z"/></g>
<g><path style="opacity:0.675" fill="#3b6f8b" d="M 375.5,130.5 C 379.074,129.226 382.741,129.393 386.5,131C 387.517,132.049 387.684,133.216 387,134.5C 385.708,135.791 384.542,135.791 383.5,134.5C 385.745,134.459 386.412,133.625 385.5,132C 382.243,130.957 378.91,130.457 375.5,130.5 Z"/></g>
<g><path style="opacity:1" fill="#489ac0" d="M 687.5,130.5 C 687.5,137.5 687.5,144.5 687.5,151.5C 690.5,151.5 693.5,151.5 696.5,151.5C 698.176,152.183 698.843,153.517 698.5,155.5C 693.238,155.805 688.072,155.471 683,154.5C 682.333,146.5 682.333,138.5 683,130.5C 684.616,129.199 686.116,129.199 687.5,130.5 Z"/></g>
<g><path style="opacity:0.151" fill="#032d46" d="M 687.5,130.5 C 688.491,136.979 688.824,143.646 688.5,150.5C 691.385,150.194 694.052,150.527 696.5,151.5C 693.5,151.5 690.5,151.5 687.5,151.5C 687.5,144.5 687.5,137.5 687.5,130.5 Z"/></g>
<g><path style="opacity:1" fill="#397d9f" d="M 794.5,132.5 C 791.302,131.066 787.968,130.566 784.5,131C 784.043,131.414 783.709,131.914 783.5,132.5C 785.969,133.168 788.302,133.835 790.5,134.5C 787.43,134.368 784.43,134.701 781.5,135.5C 781.33,134.178 781.663,133.011 782.5,132C 781.906,131.536 781.239,131.369 780.5,131.5C 785.348,128.687 790.015,129.021 794.5,132.5 Z"/></g>
<g><path style="opacity:0.293" fill="#1a4c6b" d="M 835.5,130.5 C 835.5,138.5 835.5,146.5 835.5,154.5C 836.833,154.5 838.167,154.5 839.5,154.5C 838.081,155.451 836.415,155.784 834.5,155.5C 834.174,146.983 834.507,138.65 835.5,130.5 Z"/></g>
<g><path style="opacity:1" fill="#48b2e0" d="M 106.5,132.5 C 106.5,132.833 106.5,133.167 106.5,133.5C 105.012,135.845 103.012,136.179 100.5,134.5C 101.674,132.632 101.007,131.632 98.5,131.5C 99.8775,130.766 101.378,130.099 103,129.5C 104.016,130.634 104.683,130.301 105,128.5C 105.21,130.058 105.71,131.391 106.5,132.5 Z"/></g>
<g><path style="opacity:0.733" fill="#254b63" d="M 171.5,131.5 C 171.918,132.222 172.584,132.722 173.5,133C 173,133.167 172.5,133.333 172,133.5C 169.208,131.938 166.375,131.605 163.5,132.5C 164.949,133.172 166.282,133.839 167.5,134.5C 166.262,134.81 166.262,135.31 167.5,136C 165.934,136.765 164.601,136.598 163.5,135.5C 164.239,135.631 164.906,135.464 165.5,135C 164.207,134.51 162.873,134.343 161.5,134.5C 161.631,133.761 161.464,133.094 161,132.5C 160.346,133.696 159.846,133.696 159.5,132.5C 163.278,130.197 167.278,129.863 171.5,131.5 Z"/></g>
<g><path style="opacity:0.437" fill="#376c89" d="M 428.5,130.5 C 427.167,130.5 425.833,130.5 424.5,130.5C 424.5,138.5 424.5,146.5 424.5,154.5C 425.5,154.5 426.5,154.5 427.5,154.5C 427.171,148.794 427.505,143.128 428.5,137.5C 429.425,138.357 430.092,139.357 430.5,140.5C 429.761,140.369 429.094,140.536 428.5,141C 428.735,145.708 428.735,150.541 428.5,155.5C 426.833,155.5 425.167,155.5 423.5,155.5C 423.5,146.833 423.5,138.167 423.5,129.5C 425.415,129.216 427.081,129.549 428.5,130.5 Z"/></g>
<g><path style="opacity:1" fill="#4ab0dc" d="M 739.5,151.5 C 740.833,151.5 742.167,151.5 743.5,151.5C 743.5,152.5 743.5,153.5 743.5,154.5C 738.833,154.5 734.167,154.5 729.5,154.5C 729.5,146.5 729.5,138.5 729.5,130.5C 730.5,130.5 731.5,130.5 732.5,130.5C 732.5,137.5 732.5,144.5 732.5,151.5C 734.833,151.5 737.167,151.5 739.5,151.5 Z"/></g>
<g><path style="opacity:1" fill="#45a4cf" d="M 888.5,130.5 C 893.833,130.5 899.167,130.5 904.5,130.5C 904.5,131.5 904.5,132.5 904.5,133.5C 900.029,132.911 896.029,133.577 892.5,135.5C 892.5,136.833 892.5,138.167 892.5,139.5C 896.298,140.483 900.298,140.817 904.5,140.5C 904.5,141.833 904.5,143.167 904.5,144.5C 900.5,144.5 896.5,144.5 892.5,144.5C 892.5,146.5 892.5,148.5 892.5,150.5C 896.215,150.423 899.881,150.756 903.5,151.5C 903.804,152.15 904.137,152.817 904.5,153.5C 899.208,154.495 893.875,154.828 888.5,154.5C 888.5,146.5 888.5,138.5 888.5,130.5 Z"/></g>
<g><path style="opacity:0.173" fill="#15314c" d="M 87.5,131.5 C 87.5,131.833 87.5,132.167 87.5,132.5C 86.4863,133.674 85.153,134.34 83.5,134.5C 82.8333,134.5 82.1667,134.5 81.5,134.5C 83.4261,133.514 85.4261,132.514 87.5,131.5 Z"/></g>
<g><path style="opacity:1" fill="#46a8d4" d="M 794.5,132.5 C 796.262,133.262 797.262,134.596 797.5,136.5C 797.915,140.375 797.415,144.042 796,147.5C 795.824,144.118 795.324,140.785 794.5,137.5C 793.893,137.624 793.56,137.957 793.5,138.5C 792.512,137.205 791.512,135.872 790.5,134.5C 788.302,133.835 785.969,133.168 783.5,132.5C 783.709,131.914 784.043,131.414 784.5,131C 787.968,130.566 791.302,131.066 794.5,132.5 Z"/></g>
<g><path style="opacity:0.886" fill="#346280" d="M 141.5,129.5 C 141.665,132.85 141.498,136.183 141,139.5C 140.296,141.727 139.129,142.06 137.5,140.5C 137.539,141.756 137.039,142.756 136,143.5C 135.333,142.167 134.667,142.167 134,143.5C 133.802,141.618 133.302,139.952 132.5,138.5C 133.644,133.828 136.144,132.828 140,135.5C 140.191,133.292 140.691,131.292 141.5,129.5 Z M 137.5,140.5 C 136.782,138.754 135.782,138.088 134.5,138.5C 134.833,137.5 135.5,136.833 136.5,136.5C 137.429,137.689 137.762,139.022 137.5,140.5 Z"/></g>
<g><path style="opacity:0.424" fill="#315d79" d="M 143.5,129.5 C 143.215,131.288 143.548,132.955 144.5,134.5C 145.167,133.833 145.833,133.167 146.5,132.5C 147.107,132.624 147.44,132.957 147.5,133.5C 146.167,134.167 146.167,134.833 147.5,135.5C 146.365,137.213 144.698,137.88 142.5,137.5C 142.194,134.615 142.527,131.948 143.5,129.5 Z"/></g>
<g><path style="opacity:1" fill="#4685a5" d="M 109.5,130.5 C 109.989,131.995 110.655,133.329 111.5,134.5C 111.5,134.833 111.5,135.167 111.5,135.5C 110.522,135.811 109.855,136.478 109.5,137.5C 111.114,140.284 113.448,142.118 116.5,143C 117.252,143.671 117.586,144.504 117.5,145.5C 119.97,145.654 121.97,146.654 123.5,148.5C 119.554,149.527 115.554,149.694 111.5,149C 110.91,147.491 110.244,145.991 109.5,144.5C 108.264,145.246 106.93,145.579 105.5,145.5C 104.448,145.649 103.448,145.483 102.5,145C 103.737,144.768 104.737,144.268 105.5,143.5C 107.306,142.976 108.972,142.309 110.5,141.5C 106.704,135.504 101.87,134.838 96,139.5C 95.2352,139.43 94.7352,139.097 94.5,138.5C 95.5137,137.326 96.847,136.66 98.5,136.5C 99.5,136.167 100.167,135.5 100.5,134.5C 103.012,136.179 105.012,135.845 106.5,133.5C 107.363,134.463 108.03,134.463 108.5,133.5C 107.48,131.568 107.313,129.568 108,127.5C 108.232,128.737 108.732,129.737 109.5,130.5 Z M 117.5,145.5 C 118.658,146.95 118.158,147.95 116,148.5C 111.632,146.623 112.132,145.623 117.5,145.5 Z"/></g>
<g><path style="opacity:1" fill="#4497bd" d="M 496.5,129.5 C 499.187,129.336 501.854,129.503 504.5,130C 509.309,131.104 509.642,132.937 505.5,135.5C 496.378,132.975 492.045,136.308 492.5,145.5C 496.285,151.195 501.285,152.695 507.5,150C 508.991,152.022 508.658,153.688 506.5,155C 491.495,157.484 485.662,151.317 489,136.5C 490.742,133.254 493.242,130.921 496.5,129.5 Z"/></g>
<g><path style="opacity:0.698" fill="#3d6e8b" d="M 89.5,131.5 C 92.3962,130.225 95.3962,130.225 98.5,131.5C 101.007,131.632 101.674,132.632 100.5,134.5C 100.167,135.5 99.5,136.167 98.5,136.5C 95.5075,136.292 92.5075,135.959 89.5,135.5C 86.7426,135.378 84.7426,136.545 83.5,139C 87.2145,140.974 90.8812,140.807 94.5,138.5C 94.7352,139.097 95.2352,139.43 96,139.5C 101.87,134.838 106.704,135.504 110.5,141.5C 107.568,141.716 104.902,141.049 102.5,139.5C 99.8105,139.545 98.4772,140.879 98.5,143.5C 100.833,143.5 103.167,143.5 105.5,143.5C 104.737,144.268 103.737,144.768 102.5,145C 103.448,145.483 104.448,145.649 105.5,145.5C 100.387,147.611 97.0539,145.944 95.5,140.5C 91.701,142.422 87.701,142.922 83.5,142C 80.9142,139.506 80.9142,137.006 83.5,134.5C 85.153,134.34 86.4863,133.674 87.5,132.5C 89.4008,132.754 90.0674,132.42 89.5,131.5 Z M 89.5,135.5 C 92.5075,135.959 95.5075,136.292 98.5,136.5C 96.847,136.66 95.5137,137.326 94.5,138.5C 90.8812,140.807 87.2145,140.974 83.5,139C 84.7426,136.545 86.7426,135.378 89.5,135.5 Z"/></g>
<g><path style="opacity:1" fill="#4396be" d="M 575.5,129.5 C 577.467,129.261 579.301,129.594 581,130.5C 583.136,135.905 585.47,141.238 588,146.5C 590.866,141.431 593.199,136.098 595,130.5C 596.667,129.167 598.333,129.167 600,130.5C 597.592,138.839 594.425,147.006 590.5,155C 588.559,155.743 586.726,155.576 585,154.5C 581.673,146.163 578.506,137.83 575.5,129.5 Z"/></g>
<g><path style="opacity:0.263" fill="#27516c" d="M 649.5,133.5 C 646.038,134.482 642.371,134.815 638.5,134.5C 638.5,136.167 638.5,137.833 638.5,139.5C 642.371,139.185 646.038,139.518 649.5,140.5C 645.5,140.5 641.5,140.5 637.5,140.5C 637.5,138.167 637.5,135.833 637.5,133.5C 641.5,133.5 645.5,133.5 649.5,133.5 Z"/></g>
<g><path style="opacity:0.249" fill="#21445c" d="M 904.5,140.5 C 900.298,140.817 896.298,140.483 892.5,139.5C 896.571,138.699 900.571,139.033 904.5,140.5 Z"/></g>
<g><path style="opacity:0.773" fill="#396b88" d="M 368.5,138.5 C 368.5,141.833 368.5,145.167 368.5,148.5C 367.661,147.359 366.994,146.026 366.5,144.5C 367.615,143.402 367.615,142.235 366.5,141C 366.639,139.699 367.305,138.866 368.5,138.5 Z"/></g>
<g><path style="opacity:1" fill="#449dc6" d="M 447.5,154.5 C 447.666,149.156 447.499,143.823 447,138.5C 445.583,139.078 444.75,140.078 444.5,141.5C 439.201,152.35 434.535,152.017 430.5,140.5C 430.092,139.357 429.425,138.357 428.5,137.5C 427.505,143.128 427.171,148.794 427.5,154.5C 426.5,154.5 425.5,154.5 424.5,154.5C 424.5,146.5 424.5,138.5 424.5,130.5C 425.833,130.5 427.167,130.5 428.5,130.5C 431.479,134.432 434.479,138.432 437.5,142.5C 441.1,138.813 444.1,134.646 446.5,130C 448.441,129.257 450.274,129.424 452,130.5C 452.667,138.5 452.667,146.5 452,154.5C 450.384,155.801 448.884,155.801 447.5,154.5 Z"/></g>
<g><path style="opacity:1" fill="#4aa5ce" d="M 649.5,133.5 C 645.5,133.5 641.5,133.5 637.5,133.5C 637.5,135.833 637.5,138.167 637.5,140.5C 641.5,140.5 645.5,140.5 649.5,140.5C 650.625,141.348 650.625,142.348 649.5,143.5C 645.5,143.5 641.5,143.5 637.5,143.5C 637.5,146.5 637.5,149.5 637.5,152.5C 641.555,152.176 645.555,152.509 649.5,153.5C 644.208,154.495 638.875,154.828 633.5,154.5C 633.5,146.5 633.5,138.5 633.5,130.5C 638.65,129.349 643.984,129.183 649.5,130C 650.791,131.292 650.791,132.458 649.5,133.5 Z"/></g>
<g><path style="opacity:1" fill="#449bc3" d="M 842.5,146.5 C 841.5,146.5 840.5,146.5 839.5,146.5C 839.5,148.5 839.5,150.5 839.5,152.5C 839.5,153.167 839.5,153.833 839.5,154.5C 838.167,154.5 836.833,154.5 835.5,154.5C 835.5,146.5 835.5,138.5 835.5,130.5C 839.646,129.353 843.98,129.186 848.5,130C 856.057,134.897 856.724,140.397 850.5,146.5C 852.885,148.884 854.885,151.55 856.5,154.5C 854.926,155.631 853.259,155.798 851.5,155C 849.03,151.511 846.03,148.677 842.5,146.5 Z M 840.5,134.5 C 842.857,134.337 845.19,134.503 847.5,135C 850.371,137.84 850.037,140.174 846.5,142C 844.527,142.495 842.527,142.662 840.5,142.5C 840.5,139.833 840.5,137.167 840.5,134.5 Z"/></g>
<g><path style="opacity:1" fill="#459bc3" d="M 780.5,131.5 C 781.239,131.369 781.906,131.536 782.5,132C 781.663,133.011 781.33,134.178 781.5,135.5C 778.574,140.584 778.907,145.417 782.5,150C 789.075,152.373 793.075,150.04 794.5,143C 793.852,141.56 793.519,140.06 793.5,138.5C 793.56,137.957 793.893,137.624 794.5,137.5C 795.324,140.785 795.824,144.118 796,147.5C 797.415,144.042 797.915,140.375 797.5,136.5C 798.267,137.172 798.934,138.005 799.5,139C 799.563,143.575 798.397,148.075 796,152.5C 784.322,159.027 776.822,155.861 773.5,143C 774.264,140.931 774.764,138.764 775,136.5C 776.076,133.921 777.909,132.254 780.5,131.5 Z"/></g>
<g><path style="opacity:0.298" fill="#1b5270" d="M 447.5,154.5 C 446.674,150.018 446.174,145.351 446,140.5C 445.617,141.056 445.117,141.389 444.5,141.5C 444.75,140.078 445.583,139.078 447,138.5C 447.499,143.823 447.666,149.156 447.5,154.5 Z"/></g>
<g><path style="opacity:1" fill="#47a0c8" d="M 375.5,130.5 C 378.91,130.457 382.243,130.957 385.5,132C 386.412,133.625 385.745,134.459 383.5,134.5C 374.222,133.376 370.722,137.376 373,146.5C 374.44,149.666 376.94,151.333 380.5,151.5C 383.756,148.793 386.422,149.127 388.5,152.5C 388.291,153.086 387.957,153.586 387.5,154C 383.289,155.534 378.956,155.867 374.5,155C 371.614,153.615 369.614,151.449 368.5,148.5C 368.5,145.167 368.5,141.833 368.5,138.5C 368.389,137.883 368.056,137.383 367.5,137C 369.771,134.218 372.437,132.051 375.5,130.5 Z"/></g>
<g><path style="opacity:0.612" fill="#376b89" d="M 158.5,136.5 C 160.139,137.473 161.473,138.806 162.5,140.5C 162.548,143.292 161.215,145.125 158.5,146C 155.953,146.66 153.453,146.493 151,145.5C 149.286,146.076 148.119,147.243 147.5,149C 143.562,151.018 139.728,150.851 136,148.5C 134.933,149.191 133.766,149.691 132.5,150C 133.381,150.708 134.047,151.542 134.5,152.5C 132.088,152.306 131.088,150.973 131.5,148.5C 129.517,148.843 128.183,148.176 127.5,146.5C 128.688,147.684 129.855,147.684 131,146.5C 131.183,143.635 131.683,140.969 132.5,138.5C 132.18,141.898 132.513,145.232 133.5,148.5C 135.934,147.09 138.268,145.59 140.5,144C 142.463,143.156 143.796,143.656 144.5,145.5C 142.692,145.491 141.025,145.991 139.5,147C 140.5,147.167 141.5,147.333 142.5,147.5C 144.03,147.36 145.03,146.693 145.5,145.5C 146.222,145.918 146.722,146.584 147,147.5C 147.684,146.216 147.517,145.049 146.5,144C 147.449,143.383 148.282,143.549 149,144.5C 149.464,143.906 149.631,143.239 149.5,142.5C 153.307,143.945 156.974,143.778 160.5,142C 159.471,140.302 157.971,139.468 156,139.5C 153.465,140.583 150.965,141.583 148.5,142.5C 147.761,142.631 147.094,142.464 146.5,142C 149.162,137.486 153.162,135.652 158.5,136.5 Z M 144.5,145.5 C 144.833,145.5 145.167,145.5 145.5,145.5C 145.03,146.693 144.03,147.36 142.5,147.5C 141.5,147.333 140.5,147.167 139.5,147C 141.025,145.991 142.692,145.491 144.5,145.5 Z M 149.5,142.5 C 149.167,142.5 148.833,142.5 148.5,142.5C 150.965,141.583 153.465,140.583 156,139.5C 157.971,139.468 159.471,140.302 160.5,142C 156.974,143.778 153.307,143.945 149.5,142.5 Z"/></g>
<g><path style="opacity:0.04" fill="#022844" d="M 842.5,146.5 C 841.158,148.361 840.158,150.361 839.5,152.5C 839.5,150.5 839.5,148.5 839.5,146.5C 840.5,146.5 841.5,146.5 842.5,146.5 Z"/></g>
<g><path style="opacity:1" fill="#469fc8" d="M 127.5,146.5 C 128.183,148.176 129.517,148.843 131.5,148.5C 131.088,150.973 132.088,152.306 134.5,152.5C 136.303,154.481 137.97,156.648 139.5,159C 138.335,160.084 137.002,160.917 135.5,161.5C 133.573,158.65 131.406,155.983 129,153.5C 127,156.167 125,158.833 123,161.5C 121.513,160.845 120.347,159.845 119.5,158.5C 121.115,155.55 123.115,152.884 125.5,150.5C 124.757,149.818 124.091,149.151 123.5,148.5C 121.97,146.654 119.97,145.654 117.5,145.5C 117.586,144.504 117.252,143.671 116.5,143C 113.448,142.118 111.114,140.284 109.5,137.5C 109.855,136.478 110.522,135.811 111.5,135.5C 111.783,136.289 112.283,136.956 113,137.5C 113.741,136.359 114.575,136.359 115.5,137.5C 116.308,135.577 116.808,133.577 117,131.5C 117.18,134.956 117.847,138.289 119,141.5C 122.392,142.34 125.226,144.006 127.5,146.5 Z"/></g>
<g><path style="opacity:0.499" fill="#2b627f" d="M 633.5,130.5 C 633.5,138.5 633.5,146.5 633.5,154.5C 638.875,154.828 644.208,154.495 649.5,153.5C 645.555,152.509 641.555,152.176 637.5,152.5C 637.5,149.5 637.5,146.5 637.5,143.5C 641.5,143.5 645.5,143.5 649.5,143.5C 646.038,144.482 642.371,144.815 638.5,144.5C 638.5,146.5 638.5,148.5 638.5,150.5C 642.348,150.689 646.015,150.689 649.5,150.5C 650.452,152.045 650.785,153.712 650.5,155.5C 644.5,155.5 638.5,155.5 632.5,155.5C 632.174,146.983 632.507,138.65 633.5,130.5 Z"/></g>
<g><path style="opacity:0.529" fill="#387290" d="M 739.5,151.5 C 737.167,151.5 734.833,151.5 732.5,151.5C 732.5,144.5 732.5,137.5 732.5,130.5C 731.5,130.5 730.5,130.5 729.5,130.5C 729.5,138.5 729.5,146.5 729.5,154.5C 734.167,154.5 738.833,154.5 743.5,154.5C 738.695,155.487 733.695,155.821 728.5,155.5C 728.5,146.833 728.5,138.167 728.5,129.5C 730.167,129.5 731.833,129.5 733.5,129.5C 733.5,136.5 733.5,143.5 733.5,150.5C 735.735,150.205 737.735,150.539 739.5,151.5 Z"/></g>
<g><path style="opacity:0.482" fill="#2e5f7b" d="M 888.5,130.5 C 888.5,138.5 888.5,146.5 888.5,154.5C 893.875,154.828 899.208,154.495 904.5,153.5C 904.137,152.817 903.804,152.15 903.5,151.5C 903.81,150.262 904.31,150.262 905,151.5C 905.49,152.793 905.657,154.127 905.5,155.5C 899.5,155.5 893.5,155.5 887.5,155.5C 887.174,146.983 887.507,138.65 888.5,130.5 Z"/></g>
</svg>
