<?xml version="1.0" encoding="UTF-8"?>
<!DOCTYPE svg PUBLIC "-//W3C//DTD SVG 1.1//EN" "http://www.w3.org/Graphics/SVG/1.1/DTD/svg11.dtd">
<svg xmlns="http://www.w3.org/2000/svg" version="1.1" width="956px" height="170px" style="shape-rendering:geometricPrecision; text-rendering:geometricPrecision; image-rendering:optimizeQuality; fill-rule:evenodd; clip-rule:evenodd" xmlns:xlink="http://www.w3.org/1999/xlink">
<g><path style="opacity:1" fill="#171724" d="M -0.5,-0.5 C 27.5,-0.5 55.5,-0.5 83.5,-0.5C 81.7078,0.309116 79.7078,0.809116 77.5,1C 78.9785,2.19314 80.3118,2.69314 81.5,2.5C 79.5767,3.30779 77.5767,3.80779 75.5,4C 80.5081,4.86927 80.1748,5.53594 74.5,6C 76.1667,6.33333 77.8333,6.66667 79.5,7C 77.6161,7.21631 75.9494,7.88298 74.5,9C 76.4378,8.6173 78.1045,8.78397 79.5,9.5C 77.9223,10.2978 76.2556,10.7978 74.5,11C 75.8333,11.6667 75.8333,12.3333 74.5,13C 81.1667,13.6667 81.1667,14.3333 74.5,15C 74.8333,15.3333 75.1667,15.6667 75.5,16C 72.1667,16.3333 68.8333,16.6667 65.5,17C 82.6716,17.1684 99.6716,17.6684 116.5,18.5C 99.5,18.5 82.5,18.5 65.5,18.5C 65.5,19.8333 65.5,21.1667 65.5,22.5C 68.2062,22.5751 70.8728,22.9084 73.5,23.5C 72.3947,25.4022 70.3947,27.2355 67.5,29C 70.3501,30.0462 73.0168,30.7128 75.5,31C 73.1667,31.3333 70.8333,31.6667 68.5,32C 72.5,32.6667 72.5,33.3333 68.5,34C 69.1667,34.3333 69.8333,34.6667 70.5,35C 66.7351,36.3772 67.0684,37.3772 71.5,38C 70.1667,38.3333 68.8333,38.6667 67.5,39C 69.8776,39.9745 69.5443,40.6411 66.5,41C 73.0734,41.5282 73.0734,42.3615 66.5,43.5C 68.0777,44.2978 69.7444,44.7978 71.5,45C 69.5,45.3333 67.5,45.6667 65.5,46C 68.1667,46.6667 68.1667,47.3333 65.5,48C 67.5,48.3333 69.5,48.6667 71.5,49C 64.2335,49.8139 63.5668,50.8139 69.5,52C 67.8333,52.3333 66.1667,52.6667 64.5,53C 68.5,53.6667 68.5,54.3333 64.5,55C 65.5,55.3333 66.5,55.6667 67.5,56C 65.9559,56.2896 64.6226,56.9563 63.5,58C 66.1667,58.6667 66.1667,59.3333 63.5,60C 68.8333,60.6667 68.8333,61.3333 63.5,62C 68.7208,62.5423 68.7208,63.3756 63.5,64.5C 64.7287,65.2811 66.062,65.7811 67.5,66C 65.8333,66.3333 64.1667,66.6667 62.5,67C 63.8333,67.6667 63.8333,68.3333 62.5,69C 64.2556,69.2022 65.9223,69.7022 67.5,70.5C 66.1632,70.7402 64.4965,71.2402 62.5,72C 69.1667,72.6667 69.1667,73.3333 62.5,74C 62.8333,74.3333 63.1667,74.6667 63.5,75C 62.5,75.5 61.5,76 60.5,76.5C 60.0799,73.3837 59.0799,70.7171 57.5,68.5C 54.0795,68.5168 50.7462,68.6835 47.5,69C 52.0436,65.6081 53.7102,61.2748 52.5,56C 49.9556,54.908 47.2889,54.2414 44.5,54C 52.4087,48.8133 52.0754,44.8133 43.5,42C 45.9757,40.6912 47.9757,38.8579 49.5,36.5C 48.9953,35.0815 47.9953,34.4148 46.5,34.5C 45.7703,32.955 44.437,32.1216 42.5,32C 44.6089,30.8589 46.4422,29.3589 48,27.5C 49.8333,21.3333 47.6667,19.1667 41.5,21C 39.3762,22.1217 37.5429,23.6217 36,25.5C 35.8333,25.1667 35.6667,24.8333 35.5,24.5C 40.8766,19.0808 44.0433,12.7474 45,5.5C 43.3088,1.7873 40.4755,0.620632 36.5,2C 35.2841,3.59405 33.9507,5.09405 32.5,6.5C 30.8653,12.3541 30.032,18.3541 30,24.5C 29.6026,19.6728 27.2692,16.3395 23,14.5C 21.395,15.1007 20.0616,16.1007 19,17.5C 18.4151,21.3225 18.9151,24.9892 20.5,28.5C 15.0067,27.178 12.5067,29.178 13,34.5C 14.1667,36.3333 15.3333,38.1667 16.5,40C 8.1619,41.1363 6.32856,45.303 11,52.5C 12.9384,55.1059 15.4384,56.9392 18.5,58C 10.0252,56.8053 6.8585,60.3053 9,68.5C 12.7141,73.2801 17.5474,76.4468 23.5,78C 14.1608,80.6977 13.1608,85.3643 20.5,92C 22.9573,93.5621 25.624,94.5621 28.5,95C 35.3477,94.9634 42.0143,95.9634 48.5,98C 44.0421,97.6012 39.5421,97.1012 35,96.5C 28.2413,95.9332 25.908,98.9332 28,105.5C 31.4626,109.822 35.9626,112.155 41.5,112.5C 43.8333,113.167 46.1667,113.833 48.5,114.5C 46.9735,115.492 46.3068,116.992 46.5,119C 47.114,122.849 49.4474,125.182 53.5,126C 56.8168,126.498 60.1501,126.665 63.5,126.5C 60.3586,127.321 57.0252,127.821 53.5,128C 56.6995,129.275 60.0328,129.441 63.5,128.5C 62.9066,131.596 63.9066,133.929 66.5,135.5C 65.2713,136.281 63.938,136.781 62.5,137C 64.4965,137.76 66.1632,138.26 67.5,138.5C 65.8918,139.242 64.2251,139.409 62.5,139C 63.1029,140.825 63.7696,142.659 64.5,144.5C 65.6348,145.103 66.6348,145.436 67.5,145.5C 63.6395,146.598 63.6395,147.431 67.5,148C 63.5,148.667 63.5,149.333 67.5,150C 63.6137,150.579 63.6137,151.412 67.5,152.5C 68.086,152.291 68.586,151.957 69,151.5C 68.758,153.138 67.9247,154.638 66.5,156C 73.1667,156.667 73.1667,157.333 66.5,158C 67,158.5 67.5,159 68,159.5C 69.2639,159.36 70.4305,159.36 71.5,159.5C 69.9223,160.298 68.2556,160.798 66.5,161C 69.5443,161.359 69.8776,162.026 67.5,163C 71.8518,163.419 72.1851,164.086 68.5,165C 69.2529,166.487 70.0862,166.654 71,165.5C 71.1667,165.833 71.3333,166.167 71.5,166.5C 70.624,167.251 69.624,167.751 68.5,168C 69.7375,168.232 70.7375,168.732 71.5,169.5C 47.5,169.5 23.5,169.5 -0.5,169.5C -0.5,112.833 -0.5,56.1667 -0.5,-0.5 Z"/></g>
<g><path style="opacity:1" fill="#1b1c2a" d="M 83.5,-0.5 C 142.833,-0.5 202.167,-0.5 261.5,-0.5C 260.048,0.301916 258.382,0.801916 256.5,1C 257.624,1.24917 258.624,1.74917 259.5,2.5C 257.234,3.31416 254.9,3.81416 252.5,4C 253.634,5.01602 253.301,5.68268 251.5,6C 259.5,6.66667 259.5,7.33333 251.5,8C 252.308,8.30762 252.975,8.80762 253.5,9.5C 247.095,11.4324 247.095,12.9324 253.5,14C 251.833,14.3333 250.167,14.6667 248.5,15C 249.624,15.2492 250.624,15.7492 251.5,16.5C 242.236,17.6518 242.236,18.4851 251.5,19C 249.167,19.3333 246.833,19.6667 244.5,20C 245.025,20.6924 245.692,21.1924 246.5,21.5C 248.101,20.8346 249.601,20.5012 251,20.5C 253.149,22.724 252.649,24.224 249.5,25C 250.854,26.2937 252.188,26.4604 253.5,25.5C 256.167,26.8333 256.167,28.1667 253.5,29.5C 252.685,27.7241 251.518,27.0574 250,27.5C 247.729,31.4724 246.896,35.8057 247.5,40.5C 248.833,40.5 250.167,40.5 251.5,40.5C 252.327,46.1646 250.994,51.1646 247.5,55.5C 249.921,58.3006 252.587,60.8006 255.5,63C 256.061,64.5655 255.394,65.8989 253.5,67C 254.833,67.3333 256.167,67.6667 257.5,68C 256.167,68.6667 256.167,69.3333 257.5,70C 255.989,71.6149 254.656,71.6149 253.5,70C 254.167,69.6667 254.833,69.3333 255.5,69C 253.866,68.5065 252.199,68.3398 250.5,68.5C 252.023,60.182 248.69,56.8486 240.5,58.5C 247.259,55.3171 250.093,49.9837 249,42.5C 247.055,41.1367 244.888,40.3034 242.5,40C 249.246,31.2413 247.246,27.5747 236.5,29C 240.66,25.0528 241.327,20.7195 238.5,16C 236.956,14.8129 235.289,14.4795 233.5,15C 231.877,17.0795 230.377,19.2462 229,21.5C 229.09,15.0131 227.423,9.01305 224,3.5C 214.52,-0.354194 211.52,2.64581 215,12.5C 216.918,16.0039 219.084,19.3372 221.5,22.5C 221.167,22.8333 220.833,23.1667 220.5,23.5C 217.961,20.9597 214.961,20.1263 211.5,21C 210.707,22.0852 210.04,23.2519 209.5,24.5C 210.972,27.8054 213.305,30.3054 216.5,32C 208.045,33.8183 207.378,37.1516 214.5,42C 210.981,41.8531 208.981,43.5197 208.5,47C 209.376,49.8792 211.042,52.2125 213.5,54C 209.401,53.8788 206.401,55.5455 204.5,59C 206.089,62.8409 208.422,66.1742 211.5,69C 207.985,68.2943 204.485,68.461 201,69.5C 200.067,74.6514 201.234,79.318 204.5,83.5C 204.333,83.8333 204.167,84.1667 204,84.5C 201.365,79.562 197.532,78.062 192.5,80C 191.299,80.9025 190.465,82.0692 190,83.5C 189.502,86.4816 189.335,89.4816 189.5,92.5C 189.672,93.4916 189.338,94.1583 188.5,94.5C 184.998,91.8805 181.498,91.8805 178,94.5C 176.785,99.0509 176.119,103.718 176,108.5C 171.965,103.636 167.632,103.302 163,107.5C 162.391,112.861 162.558,118.195 163.5,123.5C 163.155,126.198 161.822,128.198 159.5,129.5C 161.31,125.69 161.81,121.69 161,117.5C 158.523,112.632 155.523,112.299 152,116.5C 151.667,119.833 151.333,123.167 151,126.5C 146.518,123.297 143.352,124.297 141.5,129.5C 141.5,130.167 141.5,130.833 141.5,131.5C 140.833,133.167 140.167,134.833 139.5,136.5C 137.56,133.959 135.393,133.959 133,136.5C 132.667,139.5 132.333,142.5 132,145.5C 130.333,148.167 128.667,148.167 127,145.5C 126.934,141.767 126.101,138.267 124.5,135C 122.833,134.333 121.167,134.333 119.5,135C 118.956,136.959 118.623,138.792 118.5,140.5C 118.115,135.326 116.948,130.326 115,125.5C 112.868,124.22 110.702,124.22 108.5,125.5C 107.679,122.553 107.179,119.553 107,116.5C 104,112.5 101,112.5 98,116.5C 97.0776,120.701 97.5776,124.701 99.5,128.5C 98.7666,129.087 97.7666,129.087 96.5,128.5C 95.2522,123.03 95.2522,117.53 96.5,112C 95.7287,105.435 92.0621,103.102 85.5,105C 84.7894,106.255 83.956,107.421 83,108.5C 82.9893,103.027 81.8227,97.8602 79.5,93C 75.013,91.6218 71.513,92.7885 69,96.5C 69.9967,91.7869 69.6634,87.1202 68,82.5C 64,78.5 60,78.5 56,82.5C 55.8458,80.2955 56.5124,78.2955 58,76.5C 58.7218,73.7395 58.5552,71.0728 57.5,68.5C 59.0799,70.7171 60.0799,73.3837 60.5,76.5C 61.5,76 62.5,75.5 63.5,75C 63.1667,74.6667 62.8333,74.3333 62.5,74C 69.1667,73.3333 69.1667,72.6667 62.5,72C 64.4965,71.2402 66.1632,70.7402 67.5,70.5C 65.9223,69.7022 64.2556,69.2022 62.5,69C 63.8333,68.3333 63.8333,67.6667 62.5,67C 64.1667,66.6667 65.8333,66.3333 67.5,66C 66.062,65.7811 64.7287,65.2811 63.5,64.5C 68.7208,63.3756 68.7208,62.5423 63.5,62C 68.8333,61.3333 68.8333,60.6667 63.5,60C 66.1667,59.3333 66.1667,58.6667 63.5,58C 64.6226,56.9563 65.9559,56.2896 67.5,56C 66.5,55.6667 65.5,55.3333 64.5,55C 68.5,54.3333 68.5,53.6667 64.5,53C 66.1667,52.6667 67.8333,52.3333 69.5,52C 63.5668,50.8139 64.2335,49.8139 71.5,49C 69.5,48.6667 67.5,48.3333 65.5,48C 68.1667,47.3333 68.1667,46.6667 65.5,46C 67.5,45.6667 69.5,45.3333 71.5,45C 69.7444,44.7978 68.0777,44.2978 66.5,43.5C 73.0734,42.3615 73.0734,41.5282 66.5,41C 69.5443,40.6411 69.8776,39.9745 67.5,39C 68.8333,38.6667 70.1667,38.3333 71.5,38C 67.0684,37.3772 66.7351,36.3772 70.5,35C 69.8333,34.6667 69.1667,34.3333 68.5,34C 72.5,33.3333 72.5,32.6667 68.5,32C 70.8333,31.6667 73.1667,31.3333 75.5,31C 73.0168,30.7128 70.3501,30.0462 67.5,29C 70.3947,27.2355 72.3947,25.4022 73.5,23.5C 77.4544,25.6198 80.6211,28.6198 83,32.5C 98.244,63.9877 113.744,95.321 129.5,126.5C 130.478,126.023 131.311,125.357 132,124.5C 135.214,115.022 138.714,105.688 142.5,96.5C 151,74.1921 159.833,51.8588 169,29.5C 172.415,24.2682 177.248,21.9349 183.5,22.5C 183.5,21.1667 183.5,19.8333 183.5,18.5C 175.5,18.5 167.5,18.5 159.5,18.5C 159.33,19.8221 159.663,20.9887 160.5,22C 162.436,22.813 164.436,23.313 166.5,23.5C 166.147,27.913 165.314,32.2464 164,36.5C 155.758,55.5648 148.258,74.8981 141.5,94.5C 130.716,73.072 120.549,51.072 111,28.5C 110.122,23.4915 112.288,21.4915 117.5,22.5C 117.567,21.0413 117.234,19.7079 116.5,18.5C 99.6716,17.6684 82.6716,17.1684 65.5,17C 68.8333,16.6667 72.1667,16.3333 75.5,16C 75.1667,15.6667 74.8333,15.3333 74.5,15C 81.1667,14.3333 81.1667,13.6667 74.5,13C 75.8333,12.3333 75.8333,11.6667 74.5,11C 76.2556,10.7978 77.9223,10.2978 79.5,9.5C 78.1045,8.78397 76.4378,8.6173 74.5,9C 75.9494,7.88298 77.6161,7.21631 79.5,7C 77.8333,6.66667 76.1667,6.33333 74.5,6C 80.1748,5.53594 80.5081,4.86927 75.5,4C 77.5767,3.80779 79.5767,3.30779 81.5,2.5C 80.3118,2.69314 78.9785,2.19314 77.5,1C 79.7078,0.809116 81.7078,0.309116 83.5,-0.5 Z"/></g>
<g><path style="opacity:1" fill="#22232e" d="M 261.5,-0.5 C 404.5,-0.5 547.5,-0.5 690.5,-0.5C 691.718,0.161445 693.051,0.828112 694.5,1.5C 693.471,1.29637 692.471,1.79637 691.5,3C 693.167,3.33333 694.833,3.66667 696.5,4C 695.833,4.33333 695.167,4.66667 694.5,5C 696.455,5.9533 698.122,7.28663 699.5,9C 697.721,8.02087 696.055,8.35421 694.5,10C 696.5,10.3333 698.5,10.6667 700.5,11C 701.552,12.7165 700.886,13.7165 698.5,14C 704.146,14.8899 704.479,15.8899 699.5,17C 701.001,18.2515 702.668,19.2515 704.5,20C 703.833,20.3333 703.167,20.6667 702.5,21C 703.833,21.6667 705.167,22.3333 706.5,23C 704.915,23.0848 703.582,23.2514 702.5,23.5C 704.664,24.4143 706.664,25.581 708.5,27C 705.833,27.3333 703.167,27.6667 700.5,28C 703.956,28.1802 707.289,28.8468 710.5,30C 709.216,30.6838 708.049,30.5171 707,29.5C 706.833,29.8333 706.667,30.1667 706.5,30.5C 708.778,31.2153 710.111,32.382 710.5,34C 709.167,34.3333 707.833,34.6667 706.5,35C 714.297,36.4495 714.297,37.4495 706.5,38C 707.667,38.5 708.5,39.3333 709,40.5C 709.725,38.842 710.892,38.342 712.5,39C 709.833,39.6667 709.833,40.3333 712.5,41C 711.044,41.4226 710.544,42.2559 711,43.5C 711.914,42.3463 712.747,42.513 713.5,44C 711.122,44.9745 711.456,45.6411 714.5,46C 712.122,46.9745 712.456,47.6411 715.5,48C 714.655,49.5581 715.321,50.5581 717.5,51C 713.5,51.6667 713.5,52.3333 717.5,53C 713.5,53.6667 713.5,54.3333 717.5,55C 716.5,55.3333 715.5,55.6667 714.5,56C 715.967,57.0975 716.801,58.5975 717,60.5C 718.255,61.2106 719.421,62.044 720.5,63C 719.167,64.3333 719.167,65.6667 720.5,67C 717.85,69.0821 718.184,70.7488 721.5,72C 721.481,73.5206 721.148,75.0206 720.5,76.5C 711.126,56.0715 701.959,35.4049 693,14.5C 691.623,12.2462 690.123,10.0795 688.5,8C 685.5,7.33333 682.5,7.33333 679.5,8C 676.694,11.1138 674.527,14.6138 673,18.5C 660.386,46.552 648.22,74.7187 636.5,103C 637.271,109.565 640.938,111.898 647.5,110C 648.416,109.626 649.25,109.126 650,108.5C 661.155,83.347 672.488,58.347 684,33.5C 694.739,57.5391 705.405,81.5391 716,105.5C 717.107,108.113 718.94,109.78 721.5,110.5C 721.916,111.549 723.916,112.049 727.5,112C 723.414,114.053 719.08,114.887 714.5,114.5C 714.202,117.336 714.869,117.836 716.5,116C 718.5,115.333 720.5,115.333 722.5,116C 717.279,116.542 717.279,117.376 722.5,118.5C 720.009,119.541 720.009,120.374 722.5,121C 721.167,121.333 719.833,121.667 718.5,122C 721.167,122.667 721.167,123.333 718.5,124C 723.621,124.577 723.621,125.577 718.5,127C 719.167,127.333 719.833,127.667 720.5,128C 709.833,128.667 709.833,129.333 720.5,130C 718.009,130.626 718.009,131.459 720.5,132.5C 719.975,133.192 719.308,133.692 718.5,134C 718.833,134.333 719.167,134.667 719.5,135C 713.163,135.837 713.497,136.503 720.5,137C 719.833,137.333 719.167,137.667 718.5,138C 719.051,139.398 719.384,140.732 719.5,142C 713.825,142.464 713.492,143.131 718.5,144C 717.062,144.219 715.729,144.719 714.5,145.5C 715.641,146.425 715.641,147.259 714.5,148C 715.5,148.333 716.5,148.667 717.5,149C 709.166,149.521 708.833,150.187 716.5,151C 714.5,151.667 712.5,152.333 710.5,153C 712.167,153.333 713.833,153.667 715.5,154C 712.456,154.359 712.122,155.026 714.5,156C 706.5,156.667 706.5,157.333 714.5,158C 712.119,158.595 710.119,159.095 708.5,159.5C 710.078,160.298 711.744,160.798 713.5,161C 710.046,161.293 709.712,162.626 712.5,165C 710.232,165.308 708.232,165.808 706.5,166.5C 708.078,167.298 709.744,167.798 711.5,168C 710.944,168.383 710.611,168.883 710.5,169.5C 655.833,169.5 601.167,169.5 546.5,169.5C 546.918,168.778 547.584,168.278 548.5,168C 546.5,167.667 544.5,167.333 542.5,167C 545.987,166.717 549.321,166.05 552.5,165C 550.744,164.798 549.078,164.298 547.5,163.5C 547.667,163.167 547.833,162.833 548,162.5C 551.128,163.942 553.962,163.442 556.5,161C 556.043,160.586 555.709,160.086 555.5,159.5C 556.729,158.719 558.062,158.219 559.5,158C 553.163,157.163 553.497,156.497 560.5,156C 559.833,155.667 559.167,155.333 558.5,155C 559.833,154.667 561.167,154.333 562.5,154C 560.423,153.808 558.423,153.308 556.5,152.5C 556.667,152.167 556.833,151.833 557,151.5C 559.397,152.293 562.23,152.126 565.5,151C 562.5,150.667 559.5,150.333 556.5,150C 559.882,149.824 563.215,149.324 566.5,148.5C 566.709,147.914 567.043,147.414 567.5,147C 566.256,146.544 565.423,147.044 565,148.5C 563.729,147.295 563.063,145.962 563,144.5C 565.443,145.285 567.943,145.119 570.5,144C 558.554,143.491 558.554,142.658 570.5,141.5C 571.902,140.158 571.569,139.324 569.5,139C 570.949,137.883 572.616,137.216 574.5,137C 563.894,136.488 563.894,135.655 574.5,134.5C 573.494,133.604 573.494,132.938 574.5,132.5C 575.471,135.763 577.137,138.43 579.5,140.5C 581.837,144.897 583.837,149.564 585.5,154.5C 587.045,155.452 588.712,155.785 590.5,155.5C 593.313,147.057 596.313,138.724 599.5,130.5C 598.022,130.238 596.689,130.571 595.5,131.5C 593.449,137.386 590.949,143.052 588,148.5C 585.146,143.105 582.979,137.438 581.5,131.5C 581.67,130.178 581.337,129.011 580.5,128C 578.5,127.667 576.5,127.333 574.5,127C 579.078,124.396 579.078,122.73 574.5,122C 577.432,121.705 579.432,120.205 580.5,117.5C 580.291,116.914 579.957,116.414 579.5,116C 576.905,115.774 574.405,115.274 572,114.5C 571.721,112.588 572.554,111.254 574.5,110.5C 577.32,110.752 579.986,110.252 582.5,109C 596.445,78.939 610.279,48.7723 624,18.5C 625.659,9.16171 621.825,5.66171 612.5,8C 611.213,9.40952 610.046,10.9095 609,12.5C 598.915,36.4182 588.248,60.0849 577,83.5C 565.937,59.6323 555.27,35.6323 545,11.5C 541.641,7.46893 537.475,6.46893 532.5,8.5C 530.898,9.60117 529.898,11.1012 529.5,13C 530.275,15.8224 530.942,18.6557 531.5,21.5C 531.265,22.0967 530.765,22.4301 530,22.5C 526.539,21.7819 523.039,21.2819 519.5,21C 521.5,20.6667 523.5,20.3333 525.5,20C 522.204,19.6748 519.204,19.5081 516.5,19.5C 519.413,15.3915 519.08,11.5581 515.5,8C 489.494,7.16683 463.494,7.3335 437.5,8.5C 435.146,10.2461 434.146,12.5794 434.5,15.5C 433.051,17.1644 431.051,17.9977 428.5,18C 428.833,18.3333 429.167,18.6667 429.5,19C 427.567,19.2511 425.734,19.7511 424,20.5C 423.617,19.944 423.117,19.6107 422.5,19.5C 424.714,8.21458 420.547,4.88125 410,9.5C 398.101,34.1789 386.767,59.1789 376,84.5C 365.407,59.5985 354.407,34.9318 343,10.5C 341.314,8.08146 338.981,7.08146 336,7.5C 331.359,7.13819 328.859,9.30485 328.5,14C 341.637,46.2564 355.637,78.0898 370.5,109.5C 369.957,109.56 369.624,109.893 369.5,110.5C 370.167,111.167 370.833,111.833 371.5,112.5C 370.833,112.833 370.167,113.167 369.5,113.5C 374.721,114.624 374.721,115.458 369.5,116C 370.833,116.333 372.167,116.667 373.5,117C 372.376,117.249 371.376,117.749 370.5,118.5C 371.529,118.296 372.529,118.796 373.5,120C 372.833,120.333 372.167,120.667 371.5,121C 379.5,121.667 379.5,122.333 371.5,123C 374.167,123.667 374.167,124.333 371.5,125C 372.357,125.689 373.023,126.522 373.5,127.5C 372.193,128.865 372.193,130.198 373.5,131.5C 367.456,136.234 365.956,142.234 369,149.5C 373.198,155.385 378.698,157.052 385.5,154.5C 389.401,155.641 393.401,156.474 397.5,157C 394.833,157.333 392.167,157.667 389.5,158C 390.833,158.667 391.833,159.667 392.5,161C 394.167,161.333 395.833,161.667 397.5,162C 396.833,162.333 396.167,162.667 395.5,163C 397.5,163.333 399.5,163.667 401.5,164C 396.266,164.547 396.266,165.38 401.5,166.5C 402.716,165.998 403.883,165.665 405,165.5C 405.167,165.833 405.333,166.167 405.5,166.5C 404.271,167.281 402.938,167.781 401.5,168C 403.382,168.198 405.048,168.698 406.5,169.5C 351.5,169.5 296.5,169.5 241.5,169.5C 240.737,168.732 239.737,168.232 238.5,168C 239.471,166.796 240.471,166.296 241.5,166.5C 236.279,165.376 236.279,164.542 241.5,164C 240.167,163.667 238.833,163.333 237.5,163C 238.634,161.984 238.301,161.317 236.5,161C 238.256,160.798 239.922,160.298 241.5,159.5C 241.333,159.167 241.167,158.833 241,158.5C 240,158.833 239,159.167 238,159.5C 236.933,158.809 235.766,158.309 234.5,158C 243.764,157.485 243.764,156.652 234.5,155.5C 233.371,153.471 233.871,153.137 236,154.5C 236.692,153.975 237.192,153.308 237.5,152.5C 236.163,152.26 234.497,151.76 232.5,151C 239.167,150.333 239.167,149.667 232.5,149C 233.634,147.984 233.301,147.317 231.5,147C 233.5,146.667 235.5,146.333 237.5,146C 235.233,145.724 232.9,145.057 230.5,144C 238.834,143.479 239.167,142.813 231.5,142C 233.878,141.026 233.544,140.359 230.5,140C 234.5,139 234.5,138 230.5,137C 234.5,136.333 234.5,135.667 230.5,135C 230.833,134.667 231.167,134.333 231.5,134C 227.728,132.611 227.728,131.611 231.5,131C 230.5,130.667 229.5,130.333 228.5,130C 235.167,129.333 235.167,128.667 228.5,128C 230.167,127.667 231.833,127.333 233.5,127C 230.456,126.641 230.122,125.974 232.5,125C 230.913,124.138 229.246,123.471 227.5,123C 232.721,122.458 232.721,121.624 227.5,120.5C 228.263,119.281 229.263,118.281 230.5,117.5C 229.397,117.002 228.397,116.669 227.5,116.5C 229.423,115.692 231.423,115.192 233.5,115C 230.292,114.597 227.292,113.597 224.5,112C 228.217,111.252 230.55,109.086 231.5,105.5C 231.98,102.315 231.314,99.4815 229.5,97C 225.179,96.501 220.846,96.3343 216.5,96.5C 224.463,96.4452 232.13,94.6119 239.5,91C 242.349,88.4406 243.183,85.2739 242,81.5C 240.758,79.4593 238.925,78.2927 236.5,78C 239.167,76.6667 241.833,75.3333 244.5,74C 246.416,71.91 248.416,70.0767 250.5,68.5C 252.199,68.3398 253.866,68.5065 255.5,69C 254.833,69.3333 254.167,69.6667 253.5,70C 254.656,71.6149 255.989,71.6149 257.5,70C 256.167,69.3333 256.167,68.6667 257.5,68C 256.167,67.6667 254.833,67.3333 253.5,67C 255.394,65.8989 256.061,64.5655 255.5,63C 252.587,60.8006 249.921,58.3006 247.5,55.5C 250.994,51.1646 252.327,46.1646 251.5,40.5C 250.167,40.5 248.833,40.5 247.5,40.5C 246.896,35.8057 247.729,31.4724 250,27.5C 251.518,27.0574 252.685,27.7241 253.5,29.5C 256.167,28.1667 256.167,26.8333 253.5,25.5C 252.188,26.4604 250.854,26.2937 249.5,25C 252.649,24.224 253.149,22.724 251,20.5C 249.601,20.5012 248.101,20.8346 246.5,21.5C 245.692,21.1924 245.025,20.6924 244.5,20C 246.833,19.6667 249.167,19.3333 251.5,19C 242.236,18.4851 242.236,17.6518 251.5,16.5C 250.624,15.7492 249.624,15.2492 248.5,15C 250.167,14.6667 251.833,14.3333 253.5,14C 247.095,12.9324 247.095,11.4324 253.5,9.5C 252.975,8.80762 252.308,8.30762 251.5,8C 259.5,7.33333 259.5,6.66667 251.5,6C 253.301,5.68268 253.634,5.01602 252.5,4C 254.9,3.81416 257.234,3.31416 259.5,2.5C 258.624,1.74917 257.624,1.24917 256.5,1C 258.382,0.801916 260.048,0.301916 261.5,-0.5 Z"/></g>
<g><path style="opacity:1" fill="#1c1c29" d="M 690.5,-0.5 C 749.833,-0.5 809.167,-0.5 868.5,-0.5C 869.718,0.161445 871.051,0.828112 872.5,1.5C 872.333,1.83333 872.167,2.16667 872,2.5C 870.273,1.62598 868.44,1.79264 866.5,3C 868.833,3.33333 871.167,3.66667 873.5,4C 894.5,4.33333 915.5,4.66667 936.5,5C 910.167,5.33333 883.833,5.66667 857.5,6C 884.003,6.16778 910.337,6.66778 936.5,7.5C 909.831,7.33336 883.165,7.50003 856.5,8C 851.679,11.601 851.346,15.601 855.5,20C 856.793,20.49 858.127,20.6567 859.5,20.5C 868.986,21.4938 878.652,21.8271 888.5,21.5C 888.169,49.3384 888.502,77.005 889.5,104.5C 889.557,105.609 889.89,106.609 890.5,107.5C 887.813,107.336 885.146,107.503 882.5,108C 884.5,108.333 886.5,108.667 888.5,109C 884.5,110.667 884.5,112.333 888.5,114C 883.167,114.667 883.167,115.333 888.5,116C 883.279,116.542 883.279,117.376 888.5,118.5C 883.279,119.624 883.279,120.458 888.5,121C 883.167,121.667 883.167,122.333 888.5,123C 883.167,123.667 883.167,124.333 888.5,125C 887.377,126.044 886.044,126.71 884.5,127C 891.167,127.333 897.833,127.667 904.5,128C 899.167,128.333 893.833,128.667 888.5,129C 894.825,129.5 901.158,129.666 907.5,129.5C 907.36,131.124 908.027,132.29 909.5,133C 908.366,134.016 908.699,134.683 910.5,135C 908.288,135.789 906.288,135.622 904.5,134.5C 904.5,133.167 904.5,131.833 904.5,130.5C 899.167,130.5 893.833,130.5 888.5,130.5C 887.507,138.65 887.174,146.983 887.5,155.5C 893.5,155.5 899.5,155.5 905.5,155.5C 905.768,153.901 905.434,152.568 904.5,151.5C 900.5,151.5 896.5,151.5 892.5,151.5C 892.5,148.833 892.5,146.167 892.5,143.5C 896.5,143.5 900.5,143.5 904.5,143.5C 904.5,142.5 904.5,141.5 904.5,140.5C 900.5,140.5 896.5,140.5 892.5,140.5C 892.205,138.265 892.539,136.265 893.5,134.5C 898.745,136.292 904.412,137.126 910.5,137C 908.973,138.368 907.473,138.868 906,138.5C 905.333,140.833 905.333,143.167 906,145.5C 906.654,144.304 907.154,144.304 907.5,145.5C 905.549,149.632 904.216,149.465 903.5,145C 900.183,144.502 896.85,144.335 893.5,144.5C 893.5,146.5 893.5,148.5 893.5,150.5C 898.167,150.5 902.833,150.5 907.5,150.5C 907.5,152.833 907.5,155.167 907.5,157.5C 900.456,157.425 893.623,157.425 887,157.5C 886.149,154.388 884.983,154.054 883.5,156.5C 882.914,156.291 882.414,155.957 882,155.5C 880.266,156.249 878.433,156.749 876.5,157C 878.5,157.333 880.5,157.667 882.5,158C 880.232,158.308 878.232,158.808 876.5,159.5C 879.033,160.278 881.366,160.611 883.5,160.5C 882.624,161.251 881.624,161.751 880.5,162C 881.167,162.333 881.833,162.667 882.5,163C 874.5,163.667 874.5,164.333 882.5,165C 880.232,165.308 878.232,165.808 876.5,166.5C 878.078,167.298 879.744,167.798 881.5,168C 880.944,168.383 880.611,168.883 880.5,169.5C 823.833,169.5 767.167,169.5 710.5,169.5C 710.611,168.883 710.944,168.383 711.5,168C 709.744,167.798 708.078,167.298 706.5,166.5C 708.232,165.808 710.232,165.308 712.5,165C 709.712,162.626 710.046,161.293 713.5,161C 711.744,160.798 710.078,160.298 708.5,159.5C 710.119,159.095 712.119,158.595 714.5,158C 706.5,157.333 706.5,156.667 714.5,156C 712.122,155.026 712.456,154.359 715.5,154C 713.833,153.667 712.167,153.333 710.5,153C 712.5,152.333 714.5,151.667 716.5,151C 708.833,150.187 709.166,149.521 717.5,149C 716.5,148.667 715.5,148.333 714.5,148C 715.641,147.259 715.641,146.425 714.5,145.5C 715.729,144.719 717.062,144.219 718.5,144C 713.492,143.131 713.825,142.464 719.5,142C 719.384,140.732 719.051,139.398 718.5,138C 719.167,137.667 719.833,137.333 720.5,137C 713.497,136.503 713.163,135.837 719.5,135C 719.167,134.667 718.833,134.333 718.5,134C 719.308,133.692 719.975,133.192 720.5,132.5C 718.009,131.459 718.009,130.626 720.5,130C 709.833,129.333 709.833,128.667 720.5,128C 719.833,127.667 719.167,127.333 718.5,127C 723.621,125.577 723.621,124.577 718.5,124C 721.167,123.333 721.167,122.667 718.5,122C 719.833,121.667 721.167,121.333 722.5,121C 720.009,120.374 720.009,119.541 722.5,118.5C 717.279,117.376 717.279,116.542 722.5,116C 720.5,115.333 718.5,115.333 716.5,116C 714.869,117.836 714.202,117.336 714.5,114.5C 719.08,114.887 723.414,114.053 727.5,112C 723.916,112.049 721.916,111.549 721.5,110.5C 727.088,111.23 730.422,108.897 731.5,103.5C 728.089,94.3511 724.422,85.3511 720.5,76.5C 721.148,75.0206 721.481,73.5206 721.5,72C 718.184,70.7488 717.85,69.0821 720.5,67C 719.167,65.6667 719.167,64.3333 720.5,63C 719.421,62.044 718.255,61.2106 717,60.5C 716.801,58.5975 715.967,57.0975 714.5,56C 715.5,55.6667 716.5,55.3333 717.5,55C 713.5,54.3333 713.5,53.6667 717.5,53C 713.5,52.3333 713.5,51.6667 717.5,51C 715.321,50.5581 714.655,49.5581 715.5,48C 712.456,47.6411 712.122,46.9745 714.5,46C 711.456,45.6411 711.122,44.9745 713.5,44C 712.747,42.513 711.914,42.3463 711,43.5C 710.544,42.2559 711.044,41.4226 712.5,41C 709.833,40.3333 709.833,39.6667 712.5,39C 710.892,38.342 709.725,38.842 709,40.5C 708.5,39.3333 707.667,38.5 706.5,38C 714.297,37.4495 714.297,36.4495 706.5,35C 707.833,34.6667 709.167,34.3333 710.5,34C 710.111,32.382 708.778,31.2153 706.5,30.5C 706.667,30.1667 706.833,29.8333 707,29.5C 708.049,30.5171 709.216,30.6838 710.5,30C 707.289,28.8468 703.956,28.1802 700.5,28C 703.167,27.6667 705.833,27.3333 708.5,27C 706.664,25.581 704.664,24.4143 702.5,23.5C 703.582,23.2514 704.915,23.0848 706.5,23C 705.167,22.3333 703.833,21.6667 702.5,21C 703.167,20.6667 703.833,20.3333 704.5,20C 702.668,19.2515 701.001,18.2515 699.5,17C 704.479,15.8899 704.146,14.8899 698.5,14C 700.886,13.7165 701.552,12.7165 700.5,11C 698.5,10.6667 696.5,10.3333 694.5,10C 696.055,8.35421 697.721,8.02087 699.5,9C 698.122,7.28663 696.455,5.9533 694.5,5C 695.167,4.66667 695.833,4.33333 696.5,4C 694.833,3.66667 693.167,3.33333 691.5,3C 692.471,1.79637 693.471,1.29637 694.5,1.5C 693.051,0.828112 691.718,0.161445 690.5,-0.5 Z"/></g>
<g><path style="opacity:1" fill="#171723" d="M 868.5,-0.5 C 897.5,-0.5 926.5,-0.5 955.5,-0.5C 955.5,56.1667 955.5,112.833 955.5,169.5C 930.5,169.5 905.5,169.5 880.5,169.5C 880.611,168.883 880.944,168.383 881.5,168C 879.744,167.798 878.078,167.298 876.5,166.5C 878.232,165.808 880.232,165.308 882.5,165C 874.5,164.333 874.5,163.667 882.5,163C 881.833,162.667 881.167,162.333 880.5,162C 881.624,161.751 882.624,161.251 883.5,160.5C 881.366,160.611 879.033,160.278 876.5,159.5C 878.232,158.808 880.232,158.308 882.5,158C 880.5,157.667 878.5,157.333 876.5,157C 878.433,156.749 880.266,156.249 882,155.5C 882.414,155.957 882.914,156.291 883.5,156.5C 884.983,154.054 886.149,154.388 887,157.5C 893.623,157.425 900.456,157.425 907.5,157.5C 907.5,155.167 907.5,152.833 907.5,150.5C 902.833,150.5 898.167,150.5 893.5,150.5C 893.5,148.5 893.5,146.5 893.5,144.5C 896.85,144.335 900.183,144.502 903.5,145C 904.216,149.465 905.549,149.632 907.5,145.5C 907.154,144.304 906.654,144.304 906,145.5C 905.333,143.167 905.333,140.833 906,138.5C 907.473,138.868 908.973,138.368 910.5,137C 904.412,137.126 898.745,136.292 893.5,134.5C 897.167,134.5 900.833,134.5 904.5,134.5C 906.288,135.622 908.288,135.789 910.5,135C 908.699,134.683 908.366,134.016 909.5,133C 908.027,132.29 907.36,131.124 907.5,129.5C 901.158,129.666 894.825,129.5 888.5,129C 893.833,128.667 899.167,128.333 904.5,128C 897.833,127.667 891.167,127.333 884.5,127C 886.044,126.71 887.377,126.044 888.5,125C 883.167,124.333 883.167,123.667 888.5,123C 883.167,122.333 883.167,121.667 888.5,121C 883.279,120.458 883.279,119.624 888.5,118.5C 883.279,117.376 883.279,116.542 888.5,116C 883.167,115.333 883.167,114.667 888.5,114C 884.5,112.333 884.5,110.667 888.5,109C 886.5,108.667 884.5,108.333 882.5,108C 885.146,107.503 887.813,107.336 890.5,107.5C 894.292,111.06 898.459,111.394 903,108.5C 903.791,107.255 904.291,105.922 904.5,104.5C 905.498,77.005 905.831,49.3384 905.5,21.5C 915.348,21.8271 925.014,21.4938 934.5,20.5C 940.795,20.0164 942.961,16.6831 941,10.5C 939.871,8.85883 938.371,7.85883 936.5,7.5C 910.337,6.66778 884.003,6.16778 857.5,6C 883.833,5.66667 910.167,5.33333 936.5,5C 915.5,4.66667 894.5,4.33333 873.5,4C 871.167,3.66667 868.833,3.33333 866.5,3C 868.44,1.79264 870.273,1.62598 872,2.5C 872.167,2.16667 872.333,1.83333 872.5,1.5C 871.051,0.828112 869.718,0.161445 868.5,-0.5 Z"/></g>
<g><path style="opacity:1" fill="#fafafa" d="M 422.5,19.5 C 408.53,48.8922 395.03,78.5589 382,108.5C 378.377,110.821 374.543,111.154 370.5,109.5C 355.637,78.0898 341.637,46.2564 328.5,14C 328.859,9.30485 331.359,7.13819 336,7.5C 338.981,7.08146 341.314,8.08146 343,10.5C 354.407,34.9318 365.407,59.5985 376,84.5C 386.767,59.1789 398.101,34.1789 410,9.5C 420.547,4.88125 424.714,8.21458 422.5,19.5 Z"/></g>
<g><path style="opacity:1" fill="#fdfdfd" d="M 516.5,19.5 C 490.542,20.6483 464.542,20.815 438.5,20C 436.807,18.7501 435.473,17.2501 434.5,15.5C 434.146,12.5794 435.146,10.2461 437.5,8.5C 463.494,7.3335 489.494,7.16683 515.5,8C 519.08,11.5581 519.413,15.3915 516.5,19.5 Z"/></g>
<g><path style="opacity:1" fill="#fafafa" d="M 574.5,110.5 C 570.697,106.92 567.864,102.586 566,97.5C 555.14,71.7014 543.64,46.3681 531.5,21.5C 530.942,18.6557 530.275,15.8224 529.5,13C 529.898,11.1012 530.898,9.60117 532.5,8.5C 537.475,6.46893 541.641,7.46893 545,11.5C 555.27,35.6323 565.937,59.6323 577,83.5C 588.248,60.0849 598.915,36.4182 609,12.5C 610.046,10.9095 611.213,9.40952 612.5,8C 621.825,5.66171 625.659,9.16171 624,18.5C 610.279,48.7723 596.445,78.939 582.5,109C 579.986,110.252 577.32,110.752 574.5,110.5 Z"/></g>
<g><path style="opacity:1" fill="#fafafa" d="M 720.5,76.5 C 724.422,85.3511 728.089,94.3511 731.5,103.5C 730.422,108.897 727.088,111.23 721.5,110.5C 718.94,109.78 717.107,108.113 716,105.5C 705.405,81.5391 694.739,57.5391 684,33.5C 672.488,58.347 661.155,83.347 650,108.5C 649.25,109.126 648.416,109.626 647.5,110C 640.938,111.898 637.271,109.565 636.5,103C 648.22,74.7187 660.386,46.552 673,18.5C 674.527,14.6138 676.694,11.1138 679.5,8C 682.5,7.33333 685.5,7.33333 688.5,8C 690.123,10.0795 691.623,12.2462 693,14.5C 701.959,35.4049 711.126,56.0715 720.5,76.5 Z"/></g>
<g><path style="opacity:1" fill="#f8f8f8" d="M 787.5,7.5 C 807.323,4.39956 825.156,8.7329 841,20.5C 842.327,28.836 838.827,32.0026 830.5,30C 810.82,18.357 791.487,18.6903 772.5,31C 756.015,46.3025 754.182,63.1359 767,81.5C 781.512,95.7232 798.678,99.8898 818.5,94C 822.327,92.254 825.993,90.254 829.5,88C 835.299,86.3077 839.299,88.141 841.5,93.5C 841.113,95.2743 840.447,96.941 839.5,98.5C 821.681,110.192 802.347,113.359 781.5,108C 750.662,96.4845 738.495,74.6512 745,42.5C 753.944,24.3802 768.111,12.7135 787.5,7.5 Z"/></g>
<g><path style="opacity:1" fill="#fdfdfd" d="M 936.5,7.5 C 938.371,7.85883 939.871,8.85883 941,10.5C 942.961,16.6831 940.795,20.0164 934.5,20.5C 924.5,20.5 914.5,20.5 904.5,20.5C 904.5,48.5 904.5,76.5 904.5,104.5C 904.291,105.922 903.791,107.255 903,108.5C 898.459,111.394 894.292,111.06 890.5,107.5C 889.89,106.609 889.557,105.609 889.5,104.5C 889.5,76.5 889.5,48.5 889.5,20.5C 879.5,20.5 869.5,20.5 859.5,20.5C 858.127,20.6567 856.793,20.49 855.5,20C 851.346,15.601 851.679,11.601 856.5,8C 883.165,7.50003 909.831,7.33336 936.5,7.5 Z"/></g>
<g><path style="opacity:1" fill="#488aac" d="M 240.5,58.5 C 235.166,61.0915 230.666,64.7582 227,69.5C 227.451,67.4802 228.284,65.4802 229.5,63.5C 228.167,57.4427 229.5,51.6094 233.5,46C 232.167,45.3333 230.833,44.6667 229.5,44C 230.692,42.0548 230.692,40.0548 229.5,38C 230.563,35.1025 232.23,32.6025 234.5,30.5C 234.376,29.8933 234.043,29.56 233.5,29.5C 235.968,27.3592 237.634,24.6925 238.5,21.5C 238.225,19.3911 237.058,18.0578 235,17.5C 230.921,20.4679 229.255,24.4679 230,29.5C 231,27.1667 232,24.8333 233,22.5C 233.654,21.3044 234.154,21.3044 234.5,22.5C 233.1,25.0354 232.1,27.702 231.5,30.5C 230.469,31.2485 229.302,31.9152 228,32.5C 227,31.5 226,30.5 225,29.5C 223.716,30.5719 223.383,31.9052 224,33.5C 223.005,32.9341 222.172,32.2674 221.5,31.5C 221.938,31.5654 222.272,31.3988 222.5,31C 220.792,28.9565 218.792,27.2899 216.5,26C 217.833,26 219.167,26 220.5,26C 217.913,23.4148 214.913,22.9148 211.5,24.5C 212,25.5 212.5,26.5 213,27.5C 215.314,28.7332 217.481,30.0666 219.5,31.5C 219.062,31.4346 218.728,31.6012 218.5,32C 223.404,33.2517 226.571,36.0851 228,40.5C 227,39.5 226,38.5 225,37.5C 224.601,37.7284 224.435,38.0618 224.5,38.5C 221.71,37.0211 218.877,35.6878 216,34.5C 212.178,34.9695 211.678,36.4695 214.5,39C 217.719,40.9545 221.053,42.2879 224.5,43C 223.167,41.6667 221.833,40.3333 220.5,39C 221.819,38.805 223.153,38.9717 224.5,39.5C 225.812,40.1451 226.812,41.1451 227.5,42.5C 226.166,42.5293 224.833,43.3627 223.5,45C 226.545,47.5838 228.045,50.7504 228,54.5C 227.667,54.1667 227.333,53.8333 227,53.5C 226.506,55.1341 226.34,56.8008 226.5,58.5C 225.528,61.0983 224.528,61.0983 223.5,58.5C 224.043,58.44 224.376,58.1067 224.5,57.5C 223.559,55.2279 222.226,53.2279 220.5,51.5C 220.667,51.1667 220.833,50.8333 221,50.5C 222.333,51.8333 223.667,53.1667 225,54.5C 223.213,47.1661 218.38,44.1661 210.5,45.5C 210.343,46.8734 210.51,48.2068 211,49.5C 215.175,52.1578 219.008,55.1578 222.5,58.5C 222.685,60.1958 223.519,61.5291 225,62.5C 225.667,64.1667 225.667,65.8333 225,67.5C 223.435,63.6002 221.435,59.9335 219,56.5C 217.791,56.6526 216.625,56.9859 215.5,57.5C 213.119,56.5804 210.786,56.5804 208.5,57.5C 207.369,59.0745 207.202,60.7412 208,62.5C 212.075,67.0651 215.909,71.7317 219.5,76.5C 218.583,79.4173 217.916,82.4173 217.5,85.5C 216.5,85.5 215.5,85.5 214.5,85.5C 215.78,79.4801 214.113,74.6467 209.5,71C 203.333,69.1667 201.167,71.3333 203,77.5C 205.798,82.101 208.298,86.7676 210.5,91.5C 209.791,92.404 208.791,92.7373 207.5,92.5C 207.737,93.791 207.404,94.791 206.5,95.5C 206.905,91.9521 206.405,88.6188 205,85.5C 204.912,90.6752 204.079,95.6752 202.5,100.5C 202.565,100.938 202.399,101.272 202,101.5C 201.722,100.584 201.222,99.9175 200.5,99.5C 202.408,94.6835 202.908,89.6835 202,84.5C 196.249,78.4826 192.749,79.6492 191.5,88C 192.094,93.6122 193.76,98.7788 196.5,103.5C 195.5,104.5 194.5,105.5 193.5,106.5C 193.145,101.45 191.812,96.7829 189.5,92.5C 189.335,89.4816 189.502,86.4816 190,83.5C 190.465,82.0692 191.299,80.9025 192.5,80C 197.532,78.062 201.365,79.562 204,84.5C 204.167,84.1667 204.333,83.8333 204.5,83.5C 201.234,79.318 200.067,74.6514 201,69.5C 204.485,68.461 207.985,68.2943 211.5,69C 208.422,66.1742 206.089,62.8409 204.5,59C 206.401,55.5455 209.401,53.8788 213.5,54C 211.042,52.2125 209.376,49.8792 208.5,47C 208.981,43.5197 210.981,41.8531 214.5,42C 207.378,37.1516 208.045,33.8183 216.5,32C 213.305,30.3054 210.972,27.8054 209.5,24.5C 210.04,23.2519 210.707,22.0852 211.5,21C 214.961,20.1263 217.961,20.9597 220.5,23.5C 220.833,23.1667 221.167,22.8333 221.5,22.5C 219.084,19.3372 216.918,16.0039 215,12.5C 211.52,2.64581 214.52,-0.354194 224,3.5C 227.423,9.01305 229.09,15.0131 229,21.5C 230.377,19.2462 231.877,17.0795 233.5,15C 235.289,14.4795 236.956,14.8129 238.5,16C 241.327,20.7195 240.66,25.0528 236.5,29C 247.246,27.5747 249.246,31.2413 242.5,40C 244.888,40.3034 247.055,41.1367 249,42.5C 250.093,49.9837 247.259,55.3171 240.5,58.5 Z"/></g>
<g><path style="opacity:1" fill="#152435" d="M 217.5,4.5 C 218.873,4.34332 220.207,4.50999 221.5,5C 226.202,9.92184 227.702,15.7552 226,22.5C 224.667,19.1667 223.333,15.8333 222,12.5C 222.043,15.5632 222.377,18.5632 223,21.5C 217.659,16.8503 215.826,11.1836 217.5,4.5 Z"/></g>
<g><path style="opacity:1" fill="#262632" d="M 434.5,15.5 C 435.473,17.2501 436.807,18.7501 438.5,20C 464.542,20.815 490.542,20.6483 516.5,19.5C 519.204,19.5081 522.204,19.6748 525.5,20C 523.5,20.3333 521.5,20.6667 519.5,21C 523.039,21.2819 526.539,21.7819 530,22.5C 530.765,22.4301 531.265,22.0967 531.5,21.5C 543.64,46.3681 555.14,71.7014 566,97.5C 567.864,102.586 570.697,106.92 574.5,110.5C 572.554,111.254 571.721,112.588 572,114.5C 574.405,115.274 576.905,115.774 579.5,116C 579.957,116.414 580.291,116.914 580.5,117.5C 579.432,120.205 577.432,121.705 574.5,122C 579.078,122.73 579.078,124.396 574.5,127C 576.5,127.333 578.5,127.667 580.5,128C 581.337,129.011 581.67,130.178 581.5,131.5C 579.958,130.699 578.292,130.366 576.5,130.5C 577.492,133.823 578.492,137.156 579.5,140.5C 577.137,138.43 575.471,135.763 574.5,132.5C 573.494,132.938 573.494,133.604 574.5,134.5C 563.894,135.655 563.894,136.488 574.5,137C 572.616,137.216 570.949,137.883 569.5,139C 571.569,139.324 571.902,140.158 570.5,141.5C 558.554,142.658 558.554,143.491 570.5,144C 567.943,145.119 565.443,145.285 563,144.5C 563.063,145.962 563.729,147.295 565,148.5C 565.423,147.044 566.256,146.544 567.5,147C 567.043,147.414 566.709,147.914 566.5,148.5C 563.215,149.324 559.882,149.824 556.5,150C 559.5,150.333 562.5,150.667 565.5,151C 562.23,152.126 559.397,152.293 557,151.5C 556.833,151.833 556.667,152.167 556.5,152.5C 558.423,153.308 560.423,153.808 562.5,154C 561.167,154.333 559.833,154.667 558.5,155C 559.167,155.333 559.833,155.667 560.5,156C 553.497,156.497 553.163,157.163 559.5,158C 558.062,158.219 556.729,158.719 555.5,159.5C 555.709,160.086 556.043,160.586 556.5,161C 553.962,163.442 551.128,163.942 548,162.5C 547.833,162.833 547.667,163.167 547.5,163.5C 549.078,164.298 550.744,164.798 552.5,165C 549.321,166.05 545.987,166.717 542.5,167C 544.5,167.333 546.5,167.667 548.5,168C 547.584,168.278 546.918,168.778 546.5,169.5C 499.833,169.5 453.167,169.5 406.5,169.5C 405.048,168.698 403.382,168.198 401.5,168C 402.938,167.781 404.271,167.281 405.5,166.5C 405.333,166.167 405.167,165.833 405,165.5C 403.883,165.665 402.716,165.998 401.5,166.5C 396.266,165.38 396.266,164.547 401.5,164C 399.5,163.667 397.5,163.333 395.5,163C 396.167,162.667 396.833,162.333 397.5,162C 395.833,161.667 394.167,161.333 392.5,161C 391.833,159.667 390.833,158.667 389.5,158C 392.167,157.667 394.833,157.333 397.5,157C 393.401,156.474 389.401,155.641 385.5,154.5C 387.984,153.036 387.984,151.369 385.5,149.5C 377.37,153.601 372.704,151.101 371.5,142C 373.514,134.64 378.181,132.473 385.5,135.5C 386.415,134.672 387.081,133.672 387.5,132.5C 383.01,130.244 378.344,129.911 373.5,131.5C 372.193,130.198 372.193,128.865 373.5,127.5C 373.023,126.522 372.357,125.689 371.5,125C 374.167,124.333 374.167,123.667 371.5,123C 379.5,122.333 379.5,121.667 371.5,121C 372.167,120.667 372.833,120.333 373.5,120C 372.529,118.796 371.529,118.296 370.5,118.5C 371.376,117.749 372.376,117.249 373.5,117C 372.167,116.667 370.833,116.333 369.5,116C 374.721,115.458 374.721,114.624 369.5,113.5C 370.167,113.167 370.833,112.833 371.5,112.5C 370.833,111.833 370.167,111.167 369.5,110.5C 369.624,109.893 369.957,109.56 370.5,109.5C 374.543,111.154 378.377,110.821 382,108.5C 395.03,78.5589 408.53,48.8922 422.5,19.5C 423.117,19.6107 423.617,19.944 424,20.5C 425.734,19.7511 427.567,19.2511 429.5,19C 429.167,18.6667 428.833,18.3333 428.5,18C 431.051,17.9977 433.051,17.1644 434.5,15.5 Z"/></g>
<g><path style="opacity:1" fill="#15273a" d="M 233.5,29.5 C 232.833,29.8333 232.167,30.1667 231.5,30.5C 232.1,27.702 233.1,25.0354 234.5,22.5C 234.154,21.3044 233.654,21.3044 233,22.5C 232,24.8333 231,27.1667 230,29.5C 229.255,24.4679 230.921,20.4679 235,17.5C 237.058,18.0578 238.225,19.3911 238.5,21.5C 237.634,24.6925 235.968,27.3592 233.5,29.5 Z"/></g>
<g><path style="opacity:1" fill="#43b1e1" d="M 116.5,18.5 C 117.234,19.7079 117.567,21.0413 117.5,22.5C 112.288,21.4915 110.122,23.4915 111,28.5C 120.549,51.072 130.716,73.072 141.5,94.5C 142.338,94.8417 142.672,95.5084 142.5,96.5C 138.714,105.688 135.214,115.022 132,124.5C 131.311,125.357 130.478,126.023 129.5,126.5C 113.744,95.321 98.244,63.9877 83,32.5C 80.6211,28.6198 77.4544,25.6198 73.5,23.5C 70.8728,22.9084 68.2062,22.5751 65.5,22.5C 65.5,21.1667 65.5,19.8333 65.5,18.5C 82.5,18.5 99.5,18.5 116.5,18.5 Z"/></g>
<g><path style="opacity:1" fill="#5a5a61" d="M 859.5,20.5 C 869.5,20.5 879.5,20.5 889.5,20.5C 889.5,48.5 889.5,76.5 889.5,104.5C 888.502,77.005 888.169,49.3384 888.5,21.5C 878.652,21.8271 868.986,21.4938 859.5,20.5 Z"/></g>
<g><path style="opacity:1" fill="#87878f" d="M 934.5,20.5 C 925.014,21.4938 915.348,21.8271 905.5,21.5C 905.831,49.3384 905.498,77.005 904.5,104.5C 904.5,76.5 904.5,48.5 904.5,20.5C 914.5,20.5 924.5,20.5 934.5,20.5 Z"/></g>
<g><path style="opacity:1" fill="#132233" d="M 221.5,31.5 C 220.833,31.5 220.167,31.5 219.5,31.5C 217.481,30.0666 215.314,28.7332 213,27.5C 212.5,26.5 212,25.5 211.5,24.5C 214.913,22.9148 217.913,23.4148 220.5,26C 219.167,26 217.833,26 216.5,26C 218.792,27.2899 220.792,28.9565 222.5,31C 222.272,31.3988 221.938,31.5654 221.5,31.5 Z"/></g>
<g><path style="opacity:1" fill="#17273a" d="M 240.5,30.5 C 243.902,31.5577 244.402,33.5577 242,36.5C 239,39.1667 236,41.8333 233,44.5C 233.419,42.4971 234.253,40.4971 235.5,38.5C 234.645,37.707 233.811,38.0403 233,39.5C 232.685,38.0922 233.018,36.7589 234,35.5C 235.965,33.4497 238.132,31.783 240.5,30.5 Z"/></g>
<g><path style="opacity:1" fill="#172639" d="M 224.5,38.5 C 224.5,38.8333 224.5,39.1667 224.5,39.5C 223.153,38.9717 221.819,38.805 220.5,39C 221.833,40.3333 223.167,41.6667 224.5,43C 221.053,42.2879 217.719,40.9545 214.5,39C 211.678,36.4695 212.178,34.9695 216,34.5C 218.877,35.6878 221.71,37.0211 224.5,38.5 Z"/></g>
<g><path style="opacity:1" fill="#4e9abf" d="M 142.5,96.5 C 142.672,95.5084 142.338,94.8417 141.5,94.5C 148.258,74.8981 155.758,55.5648 164,36.5C 165.314,32.2464 166.147,27.913 166.5,23.5C 164.436,23.313 162.436,22.813 160.5,22C 159.663,20.9887 159.33,19.8221 159.5,18.5C 167.5,18.5 175.5,18.5 183.5,18.5C 183.5,19.8333 183.5,21.1667 183.5,22.5C 177.248,21.9349 172.415,24.2682 169,29.5C 159.833,51.8588 151,74.1921 142.5,96.5 Z"/></g>
<g><path style="opacity:1" fill="#49b0dd" d="M 231.5,30.5 C 232.167,30.1667 232.833,29.8333 233.5,29.5C 234.043,29.56 234.376,29.8933 234.5,30.5C 232.23,32.6025 230.563,35.1025 229.5,38C 230.692,40.0548 230.692,42.0548 229.5,44C 230.833,44.6667 232.167,45.3333 233.5,46C 229.5,51.6094 228.167,57.4427 229.5,63.5C 226.916,62.9517 225.916,61.285 226.5,58.5C 226.34,56.8008 226.506,55.1341 227,53.5C 227.333,53.8333 227.667,54.1667 228,54.5C 228.045,50.7504 226.545,47.5838 223.5,45C 224.833,43.3627 226.166,42.5293 227.5,42.5C 226.812,41.1451 225.812,40.1451 224.5,39.5C 224.5,39.1667 224.5,38.8333 224.5,38.5C 224.435,38.0618 224.601,37.7284 225,37.5C 226,38.5 227,39.5 228,40.5C 226.571,36.0851 223.404,33.2517 218.5,32C 218.728,31.6012 219.062,31.4346 219.5,31.5C 220.167,31.5 220.833,31.5 221.5,31.5C 222.172,32.2674 223.005,32.9341 224,33.5C 223.383,31.9052 223.716,30.5719 225,29.5C 226,30.5 227,31.5 228,32.5C 229.302,31.9152 230.469,31.2485 231.5,30.5 Z"/></g>
<g><path style="opacity:1" fill="#182334" d="M 223.5,58.5 C 223.167,58.5 222.833,58.5 222.5,58.5C 219.008,55.1578 215.175,52.1578 211,49.5C 210.51,48.2068 210.343,46.8734 210.5,45.5C 218.38,44.1661 223.213,47.1661 225,54.5C 223.667,53.1667 222.333,51.8333 221,50.5C 220.833,50.8333 220.667,51.1667 220.5,51.5C 222.226,53.2279 223.559,55.2279 224.5,57.5C 224.376,58.1067 224.043,58.44 223.5,58.5 Z"/></g>
<g><path style="opacity:1" fill="#192232" d="M 243.5,43.5 C 247.461,44.8844 248.461,47.5511 246.5,51.5C 242.447,55.3567 237.781,57.8567 232.5,59C 233.958,56.54 235.791,54.3734 238,52.5C 238.667,51.8333 238.667,51.1667 238,50.5C 235.294,52.8706 232.961,55.5372 231,58.5C 232.386,51.2725 236.553,46.2725 243.5,43.5 Z"/></g>
<g><path style="opacity:1" fill="#f6f6f6" d="M 446.5,51.5 C 467.169,51.3334 487.836,51.5 508.5,52C 513.356,55.9888 513.689,60.3221 509.5,65C 487.833,65.6667 466.167,65.6667 444.5,65C 438.729,59.4635 439.396,54.9635 446.5,51.5 Z"/></g>
<g><path style="opacity:1" fill="#182232" d="M 215.5,57.5 C 221.793,61.0936 223.96,66.4269 222,73.5C 221.562,70.624 220.562,67.9573 219,65.5C 218.346,64.3044 217.846,64.3044 217.5,65.5C 219.224,68.95 219.891,72.6166 219.5,76.5C 215.909,71.7317 212.075,67.0651 208,62.5C 207.202,60.7412 207.369,59.0745 208.5,57.5C 210.786,56.5804 213.119,56.5804 215.5,57.5 Z"/></g>
<g><path style="opacity:1" fill="#192434" d="M 214.5,85.5 C 214.539,86.7562 214.039,87.7562 213,88.5C 212.667,85.8333 212.333,83.1667 212,80.5C 211.452,84.1704 210.952,87.8371 210.5,91.5C 208.298,86.7676 205.798,82.101 203,77.5C 201.167,71.3333 203.333,69.1667 209.5,71C 214.113,74.6467 215.78,79.4801 214.5,85.5 Z"/></g>
<g><path style="opacity:1" fill="#4e9dc2" d="M 215.5,57.5 C 216.625,56.9859 217.791,56.6526 219,56.5C 221.435,59.9335 223.435,63.6002 225,67.5C 225.667,65.8333 225.667,64.1667 225,62.5C 223.519,61.5291 222.685,60.1958 222.5,58.5C 222.833,58.5 223.167,58.5 223.5,58.5C 224.528,61.0983 225.528,61.0983 226.5,58.5C 225.916,61.285 226.916,62.9517 229.5,63.5C 228.284,65.4802 227.451,67.4802 227,69.5C 230.666,64.7582 235.166,61.0915 240.5,58.5C 248.69,56.8486 252.023,60.182 250.5,68.5C 248.416,70.0767 246.416,71.91 244.5,74C 241.833,75.3333 239.167,76.6667 236.5,78C 238.925,78.2927 240.758,79.4593 242,81.5C 243.183,85.2739 242.349,88.4406 239.5,91C 232.13,94.6119 224.463,96.4452 216.5,96.5C 212.433,96.2063 209.1,97.5397 206.5,100.5C 203.233,101.031 202.9,102.031 205.5,103.5C 205.167,103.5 204.833,103.5 204.5,103.5C 202.115,106.038 199.282,108.038 196,109.5C 194.624,109.316 193.791,108.649 193.5,107.5C 193.5,107.167 193.5,106.833 193.5,106.5C 194.5,105.5 195.5,104.5 196.5,103.5C 197.522,99.2226 198.355,94.8893 199,90.5C 199.125,94.28 199.625,97.28 200.5,99.5C 201.222,99.9175 201.722,100.584 202,101.5C 202.399,101.272 202.565,100.938 202.5,100.5C 204.587,99.4154 205.92,97.7488 206.5,95.5C 207.404,94.791 207.737,93.791 207.5,92.5C 208.791,92.7373 209.791,92.404 210.5,91.5C 210.952,87.8371 211.452,84.1704 212,80.5C 212.333,83.1667 212.667,85.8333 213,88.5C 214.039,87.7562 214.539,86.7562 214.5,85.5C 215.5,85.5 216.5,85.5 217.5,85.5C 217.916,82.4173 218.583,79.4173 219.5,76.5C 219.891,72.6166 219.224,68.95 217.5,65.5C 217.846,64.3044 218.346,64.3044 219,65.5C 220.562,67.9573 221.562,70.624 222,73.5C 223.96,66.4269 221.793,61.0936 215.5,57.5 Z"/></g>
<g><path style="opacity:1" fill="#182030" d="M 228.5,74.5 C 243.312,65.0751 242.979,64.4084 227.5,72.5C 231.605,64.2053 238.105,60.5386 247,61.5C 248.202,65.7929 247.035,69.2929 243.5,72C 238.405,75.6839 232.739,77.3506 226.5,77C 227.381,76.2917 228.047,75.4584 228.5,74.5 Z"/></g>
<g><path style="opacity:1" fill="#46748f" d="M 228.5,74.5 C 228.565,74.0618 228.399,73.7284 228,73.5C 227,74.5 226,75.5 225,76.5C 224.721,74.5878 225.554,73.2544 227.5,72.5C 242.979,64.4084 243.312,65.0751 228.5,74.5 Z"/></g>
<g><path style="opacity:1" fill="#172131" d="M 200.5,99.5 C 199.625,97.28 199.125,94.28 199,90.5C 198.355,94.8893 197.522,99.2226 196.5,103.5C 193.76,98.7788 192.094,93.6122 191.5,88C 192.749,79.6492 196.249,78.4826 202,84.5C 202.908,89.6835 202.408,94.6835 200.5,99.5 Z"/></g>
<g><path style="opacity:1" fill="#1a202f" d="M 230.5,80.5 C 233.93,80.1065 237.096,80.7732 240,82.5C 240.746,85.7894 239.58,88.2894 236.5,90C 229.85,93.2314 222.85,94.2314 215.5,93C 218.339,91.0797 221.339,89.4131 224.5,88C 222.765,87.3486 221.098,87.5153 219.5,88.5C 218.304,88.1543 218.304,87.6543 219.5,87C 223.23,84.807 226.897,82.6404 230.5,80.5 Z"/></g>
<g><path style="opacity:1" fill="#11334b" d="M 206.5,95.5 C 205.92,97.7488 204.587,99.4154 202.5,100.5C 204.079,95.6752 204.912,90.6752 205,85.5C 206.405,88.6188 206.905,91.9521 206.5,95.5 Z"/></g>
<g><path style="opacity:1" fill="#f8f8f8" d="M 439.5,96.5 C 464.502,96.3334 489.502,96.5 514.5,97C 519.821,101.381 519.821,105.715 514.5,110C 489.167,110.667 463.833,110.667 438.5,110C 433.66,105.276 433.994,100.776 439.5,96.5 Z"/></g>
<g><path style="opacity:1" fill="#083753" d="M 189.5,92.5 C 191.812,96.7829 193.145,101.45 193.5,106.5C 193.5,106.833 193.5,107.167 193.5,107.5C 192.206,108.29 191.039,109.29 190,110.5C 192.38,104.972 191.88,99.6384 188.5,94.5C 189.338,94.1583 189.672,93.4916 189.5,92.5 Z"/></g>
<g><path style="opacity:1" fill="#4b91b5" d="M 46.5,34.5 C 47.9953,34.4148 48.9953,35.0815 49.5,36.5C 47.9757,38.8579 45.9757,40.6912 43.5,42C 52.0754,44.8133 52.4087,48.8133 44.5,54C 47.2889,54.2414 49.9556,54.908 52.5,56C 53.7102,61.2748 52.0436,65.6081 47.5,69C 50.7462,68.6835 54.0795,68.5168 57.5,68.5C 58.5552,71.0728 58.7218,73.7395 58,76.5C 56.5124,78.2955 55.8458,80.2955 56,82.5C 60,78.5 64,78.5 68,82.5C 69.6634,87.1202 69.9967,91.7869 69,96.5C 71.513,92.7885 75.013,91.6218 79.5,93C 81.8227,97.8602 82.9893,103.027 83,108.5C 83.956,107.421 84.7894,106.255 85.5,105C 92.0621,103.102 95.7287,105.435 96.5,112C 95.2522,117.53 95.2522,123.03 96.5,128.5C 94.2743,129.756 91.941,129.756 89.5,128.5C 85.4862,128.666 81.4862,128.499 77.5,128C 80.1013,127.08 82.7679,126.413 85.5,126C 80.8333,125.333 76.1667,125.333 71.5,126C 68.7854,126.875 67.4521,128.708 67.5,131.5C 67.5,132.167 67.1667,132.5 66.5,132.5C 65.5829,130.338 65.5829,128.005 66.5,125.5C 65.209,125.263 64.209,125.596 63.5,126.5C 60.1501,126.665 56.8168,126.498 53.5,126C 49.4474,125.182 47.114,122.849 46.5,119C 46.3068,116.992 46.9735,115.492 48.5,114.5C 54.2523,111.819 60.2523,110.985 66.5,112C 66.1667,111.667 65.8333,111.333 65.5,111C 57.4625,110.773 49.4625,111.273 41.5,112.5C 35.9626,112.155 31.4626,109.822 28,105.5C 25.908,98.9332 28.2413,95.9332 35,96.5C 39.5421,97.1012 44.0421,97.6012 48.5,98C 42.0143,95.9634 35.3477,94.9634 28.5,95C 25.624,94.5621 22.9573,93.5621 20.5,92C 13.1608,85.3643 14.1608,80.6977 23.5,78C 17.5474,76.4468 12.7141,73.2801 9,68.5C 6.8585,60.3053 10.0252,56.8053 18.5,58C 15.4384,56.9392 12.9384,55.1059 11,52.5C 6.32856,45.303 8.1619,41.1363 16.5,40C 15.3333,38.1667 14.1667,36.3333 13,34.5C 12.5067,29.178 15.0067,27.178 20.5,28.5C 18.9151,24.9892 18.4151,21.3225 19,17.5C 20.0616,16.1007 21.395,15.1007 23,14.5C 27.2692,16.3395 29.6026,19.6728 30,24.5C 30.032,18.3541 30.8653,12.3541 32.5,6.5C 33.9507,5.09405 35.2841,3.59405 36.5,2C 40.4755,0.620632 43.3088,1.7873 45,5.5C 44.0433,12.7474 40.8766,19.0808 35.5,24.5C 35.6667,24.8333 35.8333,25.1667 36,25.5C 37.5429,23.6217 39.3762,22.1217 41.5,21C 47.6667,19.1667 49.8333,21.3333 48,27.5C 46.4422,29.3589 44.6089,30.8589 42.5,32C 44.437,32.1216 45.7703,32.955 46.5,34.5 Z"/></g>
<g><path style="opacity:1" fill="#141d2e" d="M 86.5,106.5 C 89.3646,106.055 91.8646,106.722 94,108.5C 94.2497,113.514 93.9164,118.514 93,123.5C 90.2115,120.021 88.8782,116.021 89,111.5C 88.6667,114.5 88.3333,117.5 88,120.5C 84.1053,116.146 83.6053,111.48 86.5,106.5 Z"/></g>
<g><path style="opacity:1" fill="#042b4a" d="M 66.5,98.5 C 67.0983,102.161 68.0983,105.828 69.5,109.5C 69.1667,109.833 68.8333,110.167 68.5,110.5C 65.3298,106.985 64.6631,102.985 66.5,98.5 Z"/></g>
<g><path style="opacity:1" fill="#141725" d="M 32.5,98.5 C 39.1608,98.5818 45.4941,100.082 51.5,103C 47.8333,103.333 44.1667,103.667 40.5,104C 46.276,104.955 51.9427,106.288 57.5,108C 50.9596,109.982 44.2929,110.649 37.5,110C 32.5998,108.462 30.0998,105.296 30,100.5C 30.9947,99.9341 31.828,99.2674 32.5,98.5 Z"/></g>
<g><path style="opacity:1" fill="#121f32" d="M 72.5,94.5 C 75.6516,93.9586 78.1516,94.9586 80,97.5C 80.6667,103.833 80.6667,110.167 80,116.5C 76.5511,112.061 74.5511,107.061 74,101.5C 73.1501,105.536 73.6501,109.369 75.5,113C 73.5061,112.343 72.0061,110.843 71,108.5C 68.559,103.374 69.059,98.7075 72.5,94.5 Z"/></g>
<g><path style="opacity:1" fill="#062c49" d="M 52.5,86.5 C 53.3514,91.2255 54.518,95.8922 56,100.5C 51.3232,96.81 50.1565,92.1433 52.5,86.5 Z"/></g>
<g><path style="opacity:1" fill="#141e30" d="M 60.5,80.5 C 65.3495,80.5188 67.6828,83.0188 67.5,88C 66.2009,93.5625 64.7009,99.0625 63,104.5C 60.9869,99.3878 59.9869,94.0545 60,88.5C 59.6892,90.556 59.1892,92.556 58.5,94.5C 59.5443,96.7676 59.711,99.1009 59,101.5C 55.4017,95.7821 54.735,89.7821 57,83.5C 58.1451,82.3636 59.3117,81.3636 60.5,80.5 Z"/></g>
<g><path style="opacity:1" fill="#121827" d="M 20.5,80.5 C 27.7365,80.7875 34.0698,83.2875 39.5,88C 39.1667,88.1667 38.8333,88.3333 38.5,88.5C 35.3974,86.5171 32.0641,85.6837 28.5,86C 33.6203,88.06 38.6203,90.3933 43.5,93C 36.6154,94.0979 29.9487,93.4313 23.5,91C 18.4887,88.4429 17.4887,84.9429 20.5,80.5 Z"/></g>
<g><path style="opacity:1" fill="#111f33" d="M 49.5,70.5 C 51.5273,70.3379 53.5273,70.5045 55.5,71C 56.0219,71.5613 56.3552,72.228 56.5,73C 54.3908,79.3768 51.8908,85.5435 49,91.5C 47.9944,89.4664 47.4944,87.2998 47.5,85C 47.8958,82.4598 48.0625,79.9598 48,77.5C 46.3953,80.6478 45.3953,83.9811 45,87.5C 42.0561,80.5243 43.5561,74.8576 49.5,70.5 Z"/></g>
<g><path style="opacity:1" fill="#467a97" d="M 31.5,72.5 C 33.6204,73.4033 33.9538,74.7367 32.5,76.5C 28.6751,73.5225 24.6751,70.6892 20.5,68C 21.5,67.3333 22.5,67.3333 23.5,68C 26,69.8333 28.5,71.6667 31,73.5C 31.3988,73.2716 31.5654,72.9382 31.5,72.5 Z"/></g>
<g><path style="opacity:1" fill="#121c2e" d="M 38.5,71.5 C 39.8434,67.4796 41.6768,63.8129 44,60.5C 40.567,63.0382 38.4003,66.3715 37.5,70.5C 36.1598,72.2333 35.9931,69.8999 37,63.5C 40.1007,57.9166 44.6007,56.0833 50.5,58C 50.9574,58.414 51.2907,58.914 51.5,59.5C 48.683,65.6599 44.683,70.9932 39.5,75.5C 38.5713,74.3112 38.238,72.9778 38.5,71.5 Z"/></g>
<g><path style="opacity:1" fill="#496a82" d="M 38.5,71.5 C 38.5,70.8333 38.1667,70.5 37.5,70.5C 38.4003,66.3715 40.567,63.0382 44,60.5C 41.6768,63.8129 39.8434,67.4796 38.5,71.5 Z"/></g>
<g><path style="opacity:1" fill="#131a28" d="M 31.5,72.5 C 31.5654,72.9382 31.3988,73.2716 31,73.5C 28.5,71.6667 26,69.8333 23.5,68C 22.5,67.3333 21.5,67.3333 20.5,68C 24.6751,70.6892 28.6751,73.5225 32.5,76.5C 33.8502,77.6499 33.6836,78.3166 32,78.5C 26.0814,77.3067 20.5814,75.1401 15.5,72C 7.9396,65.1984 8.9396,61.5317 18.5,61C 24.2673,63.2703 28.6006,67.1037 31.5,72.5 Z"/></g>
<g><path style="opacity:1" fill="#1c435f" d="M 25.5,60.5 C 27.3603,61.9387 29.027,63.6053 30.5,65.5C 31.3029,66.4232 31.4696,67.4232 31,68.5C 28.5,66 26,63.5 23.5,61C 24.0944,60.5357 24.7611,60.369 25.5,60.5 Z"/></g>
<g><path style="opacity:1" fill="#131f30" d="M 32.5,55.5 C 32.5,54.8333 32.5,54.1667 32.5,53.5C 35.6027,47.4196 40.6027,44.753 47.5,45.5C 47.6602,47.1992 47.4935,48.8659 47,50.5C 43.2359,52.6319 39.7359,55.1319 36.5,58C 35.5165,58.5908 34.8499,58.2575 34.5,57C 37.036,51.2602 36.536,51.0936 33,56.5C 32.6012,56.2716 32.4346,55.9382 32.5,55.5 Z"/></g>
<g><path style="opacity:1" fill="#131f30" d="M 27.5,54.5 C 27.6495,55.552 27.4828,56.552 27,57.5C 25.647,56.3147 24.4803,54.9814 23.5,53.5C 23.1667,53.6667 22.8333,53.8333 22.5,54C 23.6399,55.9734 24.9733,57.8067 26.5,59.5C 26.3764,60.1067 26.0431,60.44 25.5,60.5C 21.407,58.2589 17.407,55.7589 13.5,53C 11.4765,50.3603 11.1432,47.527 12.5,44.5C 13.7678,43.5721 15.1011,43.4054 16.5,44C 21.3545,46.3566 25.0212,49.8566 27.5,54.5 Z"/></g>
<g><path style="opacity:1" fill="#49aad6" d="M 34.5,31.5 C 34.5,31.8333 34.5,32.1667 34.5,32.5C 34.0618,32.4346 33.7284,32.6012 33.5,33C 34.1667,33.3333 34.8333,33.6667 35.5,34C 33.6487,35.6837 31.982,37.5171 30.5,39.5C 30.9698,40.463 31.6365,40.463 32.5,39.5C 32.5,40.1667 32.5,40.8333 32.5,41.5C 31.0645,43.665 31.7312,45.165 34.5,46C 32.7905,47.9157 31.4572,50.0824 30.5,52.5C 31.2003,52.7871 31.8669,53.1205 32.5,53.5C 32.5,54.1667 32.5,54.8333 32.5,55.5C 31.9033,55.7352 31.5699,56.2352 31.5,57C 33.0706,57.3882 34.0706,58.8882 34.5,61.5C 33.5905,63.3747 32.2572,64.708 30.5,65.5C 29.027,63.6053 27.3603,61.9387 25.5,60.5C 26.0431,60.44 26.3764,60.1067 26.5,59.5C 24.9733,57.8067 23.6399,55.9734 22.5,54C 22.8333,53.8333 23.1667,53.6667 23.5,53.5C 24.4803,54.9814 25.647,56.3147 27,57.5C 27.4828,56.552 27.6495,55.552 27.5,54.5C 28.1331,54.1205 28.7997,53.7871 29.5,53.5C 27.7925,49.2895 25.1258,45.7895 21.5,43C 22.0944,42.5357 22.7611,42.369 23.5,42.5C 24.1667,42.8333 24.8333,43.1667 25.5,43.5C 25.4346,43.9382 25.6012,44.2716 26,44.5C 26.7504,43.8742 27.5838,43.3742 28.5,43C 27.6422,41.43 26.9755,39.7633 26.5,38C 26.8919,36.9895 27.5585,36.4895 28.5,36.5C 27.5589,34.2279 26.2255,32.2279 24.5,30.5C 24.6236,29.8933 24.9569,29.56 25.5,29.5C 26.1667,29.5 26.5,29.8333 26.5,30.5C 26.8966,31.525 27.5632,31.6917 28.5,31C 29.1905,29.9326 29.6905,28.7659 30,27.5C 29.7437,31.4355 31.2437,32.7689 34.5,31.5 Z"/></g>
<g><path style="opacity:1" fill="#112134" d="M 46.5,34.5 C 46.7035,36.3904 46.0368,37.8904 44.5,39C 40.768,40.4607 37.268,42.2941 34,44.5C 35.1132,42.5055 36.6132,40.5055 38.5,38.5C 38.3333,38.1667 38.1667,37.8333 38,37.5C 36.5679,39.4388 34.7346,40.7721 32.5,41.5C 32.5,40.8333 32.5,40.1667 32.5,39.5C 36.5397,36.2632 41.2064,34.5965 46.5,34.5 Z"/></g>
<g><path style="opacity:1" fill="#0d192a" d="M 25.5,43.5 C 24.8333,43.1667 24.1667,42.8333 23.5,42.5C 19.6175,40.4436 16.9508,37.2769 15.5,33C 15.6135,31.7202 16.2801,30.8869 17.5,30.5C 21.3502,32.1739 23.8502,34.8406 25,38.5C 24,37.5 23,36.5 22,35.5C 21.8333,35.8333 21.6667,36.1667 21.5,36.5C 23.11,38.7254 24.4434,41.0587 25.5,43.5 Z"/></g>
<g><path style="opacity:1" fill="#0e1929" d="M 34.5,32.5 C 34.5,32.1667 34.5,31.8333 34.5,31.5C 37.2861,29.8874 39.9528,28.054 42.5,26C 40.7445,25.8595 39.0778,26.3595 37.5,27.5C 36.707,26.6446 37.0403,25.8113 38.5,25C 41.0627,23.9207 43.7294,23.4207 46.5,23.5C 46.607,25.9032 45.607,27.7365 43.5,29C 40.5156,30.2714 37.5156,31.438 34.5,32.5 Z"/></g>
<g><path style="opacity:1" fill="#121f31" d="M 26.5,30.5 C 26.5,29.8333 26.1667,29.5 25.5,29.5C 21.6071,26.7224 20.2738,23.0558 21.5,18.5C 25.6752,18.1561 28.0086,20.3228 28.5,25C 28.4056,27.9541 27.9056,28.1208 27,25.5C 27.096,27.3806 26.9293,29.0473 26.5,30.5 Z"/></g>
<g><path style="opacity:1" fill="#101c2e" d="M 37.5,4.5 C 42.2129,4.46755 43.7129,6.80089 42,11.5C 40.8273,15.3372 38.8273,18.6706 36,21.5C 35.8779,17.9881 36.7113,14.6547 38.5,11.5C 38.1543,10.3044 37.6543,10.3044 37,11.5C 35.2752,14.674 33.9419,18.0073 33,21.5C 31.3797,14.9239 32.8797,9.25726 37.5,4.5 Z"/></g>
<g><path style="opacity:1" fill="#4c8eaf" d="M 188.5,94.5 C 191.88,99.6384 192.38,104.972 190,110.5C 191.039,109.29 192.206,108.29 193.5,107.5C 193.791,108.649 194.624,109.316 196,109.5C 199.282,108.038 202.115,106.038 204.5,103.5C 208.973,102.962 213.64,102.962 218.5,103.5C 212.689,104.692 207.023,106.192 201.5,108C 209.541,111.229 217.541,111.229 225.5,108C 231.441,103.066 230.774,99.8991 223.5,98.5C 217.043,98.6828 211.043,100.349 205.5,103.5C 202.9,102.031 203.233,101.031 206.5,100.5C 210.127,99.6792 213.46,98.3459 216.5,96.5C 220.846,96.3343 225.179,96.501 229.5,97C 231.314,99.4815 231.98,102.315 231.5,105.5C 225.675,110.904 218.675,113.904 210.5,114.5C 213.505,118.661 212.839,122.161 208.5,125C 202.872,126.664 197.205,126.998 191.5,126C 193.801,129.161 193.468,132.161 190.5,135C 184.579,137.218 178.912,136.718 173.5,133.5C 172.035,132.263 170.368,131.263 168.5,130.5C 168.5,129.833 168.833,129.5 169.5,129.5C 173.812,130.986 178.145,132.486 182.5,134C 187.079,135.577 190.079,134.077 191.5,129.5C 191.023,128.522 190.357,127.689 189.5,127C 184.599,125.675 179.599,125.175 174.5,125.5C 172.771,124.764 171.771,123.43 171.5,121.5C 172.045,119.407 172.878,117.407 174,115.5C 175.689,108.017 172.856,105.183 165.5,107C 164.219,112.666 164.552,118.166 166.5,123.5C 165.459,127.361 164.459,127.361 163.5,123.5C 162.558,118.195 162.391,112.861 163,107.5C 167.632,103.302 171.965,103.636 176,108.5C 176.119,103.718 176.785,99.0509 178,94.5C 181.498,91.8805 184.998,91.8805 188.5,94.5 Z"/></g>
<g><path style="opacity:1" fill="#162233" d="M 171.5,121.5 C 170.833,121.833 170.167,122.167 169.5,122.5C 169.062,122.565 168.728,122.399 168.5,122C 170.304,118.704 170.804,115.204 170,111.5C 169.591,115.491 168.424,119.157 166.5,122.5C 166.5,122.833 166.5,123.167 166.5,123.5C 164.552,118.166 164.219,112.666 165.5,107C 172.856,105.183 175.689,108.017 174,115.5C 172.878,117.407 172.045,119.407 171.5,121.5 Z"/></g>
<g><path style="opacity:1" fill="#19202f" d="M 204.5,103.5 C 204.833,103.5 205.167,103.5 205.5,103.5C 211.043,100.349 217.043,98.6828 223.5,98.5C 230.774,99.8991 231.441,103.066 225.5,108C 217.541,111.229 209.541,111.229 201.5,108C 207.023,106.192 212.689,104.692 218.5,103.5C 213.64,102.962 208.973,102.962 204.5,103.5 Z"/></g>
<g><path style="opacity:1" fill="#081427" d="M 216.5,96.5 C 213.46,98.3459 210.127,99.6792 206.5,100.5C 209.1,97.5397 212.433,96.2063 216.5,96.5 Z"/></g>
<g><path style="opacity:1" fill="#172031" d="M 181.5,94.5 C 189.406,95.7452 191.572,100.079 188,107.5C 187.163,109.844 185.829,111.844 184,113.5C 185.164,109.65 185.498,105.65 185,101.5C 184.539,106.9 182.539,111.566 179,115.5C 178.333,109.5 178.333,103.5 179,97.5C 180.045,96.6266 180.878,95.6266 181.5,94.5 Z"/></g>
<g><path style="opacity:1" fill="#09121f" d="M 193.5,110.5 C 206.768,110.511 206.768,111.178 193.5,112.5C 192.833,112.333 192.167,112.167 191.5,112C 192.416,111.722 193.082,111.222 193.5,110.5 Z"/></g>
<g><path style="opacity:1" fill="#1e415b" d="M 48.5,114.5 C 46.1667,113.833 43.8333,113.167 41.5,112.5C 49.4625,111.273 57.4625,110.773 65.5,111C 65.8333,111.333 66.1667,111.667 66.5,112C 60.2523,110.985 54.2523,111.819 48.5,114.5 Z"/></g>
<g><path style="opacity:1" fill="#1c1c29" d="M 231.5,105.5 C 230.55,109.086 228.217,111.252 224.5,112C 227.292,113.597 230.292,114.597 233.5,115C 231.423,115.192 229.423,115.692 227.5,116.5C 228.397,116.669 229.397,117.002 230.5,117.5C 229.263,118.281 228.263,119.281 227.5,120.5C 232.721,121.624 232.721,122.458 227.5,123C 229.246,123.471 230.913,124.138 232.5,125C 230.122,125.974 230.456,126.641 233.5,127C 231.833,127.333 230.167,127.667 228.5,128C 235.167,128.667 235.167,129.333 228.5,130C 229.5,130.333 230.5,130.667 231.5,131C 227.728,131.611 227.728,132.611 231.5,134C 231.167,134.333 230.833,134.667 230.5,135C 234.5,135.667 234.5,136.333 230.5,137C 234.5,138 234.5,139 230.5,140C 233.544,140.359 233.878,141.026 231.5,142C 239.167,142.813 238.834,143.479 230.5,144C 232.9,145.057 235.233,145.724 237.5,146C 235.5,146.333 233.5,146.667 231.5,147C 233.301,147.317 233.634,147.984 232.5,149C 239.167,149.667 239.167,150.333 232.5,151C 234.497,151.76 236.163,152.26 237.5,152.5C 237.192,153.308 236.692,153.975 236,154.5C 233.871,153.137 233.371,153.471 234.5,155.5C 243.764,156.652 243.764,157.485 234.5,158C 235.766,158.309 236.933,158.809 238,159.5C 239,159.167 240,158.833 241,158.5C 241.167,158.833 241.333,159.167 241.5,159.5C 239.922,160.298 238.256,160.798 236.5,161C 238.301,161.317 238.634,161.984 237.5,163C 238.833,163.333 240.167,163.667 241.5,164C 236.279,164.542 236.279,165.376 241.5,166.5C 240.471,166.296 239.471,166.796 238.5,168C 239.737,168.232 240.737,168.732 241.5,169.5C 184.833,169.5 128.167,169.5 71.5,169.5C 70.7375,168.732 69.7375,168.232 68.5,168C 69.624,167.751 70.624,167.251 71.5,166.5C 71.3333,166.167 71.1667,165.833 71,165.5C 70.0862,166.654 69.2529,166.487 68.5,165C 72.1851,164.086 71.8518,163.419 67.5,163C 69.8776,162.026 69.5443,161.359 66.5,161C 68.2556,160.798 69.9223,160.298 71.5,159.5C 70.4305,159.36 69.2639,159.36 68,159.5C 67.5,159 67,158.5 66.5,158C 73.1667,157.333 73.1667,156.667 66.5,156C 67.9247,154.638 68.758,153.138 69,151.5C 68.586,151.957 68.086,152.291 67.5,152.5C 63.6137,151.412 63.6137,150.579 67.5,150C 63.5,149.333 63.5,148.667 67.5,148C 63.6395,147.431 63.6395,146.598 67.5,145.5C 66.6348,145.436 65.6348,145.103 64.5,144.5C 63.7696,142.659 63.1029,140.825 62.5,139C 64.2251,139.409 65.8918,139.242 67.5,138.5C 66.1632,138.26 64.4965,137.76 62.5,137C 63.938,136.781 65.2713,136.281 66.5,135.5C 63.9066,133.929 62.9066,131.596 63.5,128.5C 60.0328,129.441 56.6995,129.275 53.5,128C 57.0252,127.821 60.3586,127.321 63.5,126.5C 64.209,125.596 65.209,125.263 66.5,125.5C 65.5829,128.005 65.5829,130.338 66.5,132.5C 68.171,135.254 70.671,136.587 74,136.5C 79.1767,134.884 84.3434,133.051 89.5,131C 91.5,130.333 93.5,130.333 95.5,131C 91.2316,131.534 87.2316,132.867 83.5,135C 81.0062,137.423 81.0062,139.756 83.5,142C 87.6357,142.671 91.6357,142.171 95.5,140.5C 98.5355,146.908 103.202,148.241 109.5,144.5C 110.244,145.991 110.91,147.491 111.5,149C 115.524,149.497 119.524,149.331 123.5,148.5C 124.643,148.908 125.643,149.575 126.5,150.5C 124.167,153.167 121.833,155.833 119.5,158.5C 120.85,159.95 122.516,160.617 124.5,160.5C 127.397,151.551 130.731,151.384 134.5,160C 136.319,160.783 137.652,160.283 138.5,158.5C 137.239,155.736 135.405,153.403 133,151.5C 132.333,150.833 132.333,150.167 133,149.5C 137.41,149.183 141.91,149.017 146.5,149C 147.781,147.591 148.781,146.091 149.5,144.5C 153.256,147.088 157.09,147.088 161,144.5C 161.333,142.833 161.667,141.167 162,139.5C 166.101,142.291 170.601,143.125 175.5,142C 176.097,140.938 176.43,139.772 176.5,138.5C 176.229,136.307 175.229,134.641 173.5,133.5C 178.912,136.718 184.579,137.218 190.5,135C 193.468,132.161 193.801,129.161 191.5,126C 197.205,126.998 202.872,126.664 208.5,125C 212.839,122.161 213.505,118.661 210.5,114.5C 218.675,113.904 225.675,110.904 231.5,105.5 Z"/></g>
<g><path style="opacity:1" fill="#141c2c" d="M 51.5,114.5 C 59.0053,113.988 66.3387,114.822 73.5,117C 69.8333,117.333 66.1667,117.667 62.5,118C 67.3038,118.368 71.9704,119.368 76.5,121C 67.8767,123.554 59.2101,123.887 50.5,122C 48.3331,119.389 48.6665,116.889 51.5,114.5 Z"/></g>
<g><path style="opacity:1" fill="#191f2e" d="M 191.5,114.5 C 196.511,114.334 201.511,114.501 206.5,115C 210.108,116.957 210.441,119.457 207.5,122.5C 199.377,123.992 191.377,123.492 183.5,121C 187.21,120.105 190.877,119.105 194.5,118C 191.833,117.667 189.167,117.333 186.5,117C 188.315,116.243 189.981,115.41 191.5,114.5 Z"/></g>
<g><path style="opacity:1" fill="#446f8b" d="M 169.5,122.5 C 168.652,123.625 167.652,123.625 166.5,122.5C 168.424,119.157 169.591,115.491 170,111.5C 170.804,115.204 170.304,118.704 168.5,122C 168.728,122.399 169.062,122.565 169.5,122.5 Z"/></g>
<g><path style="opacity:1" fill="#437895" d="M 174.5,125.5 C 176.663,126.469 178.996,127.302 181.5,128C 177.848,128.499 174.182,128.665 170.5,128.5C 170.918,127.778 171.584,127.278 172.5,127C 172.167,126.667 171.833,126.333 171.5,126C 172.448,125.517 173.448,125.351 174.5,125.5 Z"/></g>
<g><path style="opacity:1" fill="#171e2c" d="M 174.5,125.5 C 179.599,125.175 184.599,125.675 189.5,127C 190.357,127.689 191.023,128.522 191.5,129.5C 190.079,134.077 187.079,135.577 182.5,134C 178.145,132.486 173.812,130.986 169.5,129.5C 169.5,128.833 169.833,128.5 170.5,128.5C 174.182,128.665 177.848,128.499 181.5,128C 178.996,127.302 176.663,126.469 174.5,125.5 Z"/></g>
<g><path style="opacity:1" fill="#477997" d="M 159.5,129.5 C 159.189,130.478 158.522,131.145 157.5,131.5C 155.517,131.185 154.184,130.185 153.5,128.5C 154.117,128.611 154.617,128.944 155,129.5C 155.822,127.212 156.489,124.878 157,122.5C 157.333,124.167 157.667,125.833 158,127.5C 159.64,123.874 159.806,120.207 158.5,116.5C 154.309,115.084 152.309,116.751 152.5,121.5C 152.728,123.207 153.062,124.874 153.5,126.5C 153.292,130.352 151.792,133.685 149,136.5C 148.667,136.167 148.333,135.833 148,135.5C 146.556,137.155 144.722,137.822 142.5,137.5C 142.806,134.615 142.473,131.948 141.5,129.5C 143.352,124.297 146.518,123.297 151,126.5C 151.333,123.167 151.667,119.833 152,116.5C 155.523,112.299 158.523,112.632 161,117.5C 161.81,121.69 161.31,125.69 159.5,129.5 Z"/></g>
<g><path style="opacity:1" fill="#142437" d="M 153.5,128.5 C 153.5,127.833 153.5,127.167 153.5,126.5C 153.062,124.874 152.728,123.207 152.5,121.5C 152.309,116.751 154.309,115.084 158.5,116.5C 159.806,120.207 159.64,123.874 158,127.5C 157.667,125.833 157.333,124.167 157,122.5C 156.489,124.878 155.822,127.212 155,129.5C 154.617,128.944 154.117,128.611 153.5,128.5 Z"/></g>
<g><path style="opacity:1" fill="#151a29" d="M 89.5,128.5 C 84.5692,130.873 79.4026,132.873 74,134.5C 71.2884,134.609 69.1217,133.609 67.5,131.5C 67.4521,128.708 68.7854,126.875 71.5,126C 76.1667,125.333 80.8333,125.333 85.5,126C 82.7679,126.413 80.1013,127.08 77.5,128C 81.4862,128.499 85.4862,128.666 89.5,128.5 Z"/></g>
<g><path style="opacity:1" fill="#4a82a0" d="M 118.5,140.5 C 115.63,139.567 113.296,137.9 111.5,135.5C 109.692,136.317 108.192,135.65 107,133.5C 106.819,130.305 106.319,127.305 105.5,124.5C 105.98,121.315 105.314,118.481 103.5,116C 101.112,115.135 99.6122,115.968 99,118.5C 98.4024,122.053 99.0691,125.386 101,128.5C 101.882,124.958 102.715,125.292 103.5,129.5C 101.914,130.148 100.247,130.648 98.5,131C 100.679,131.442 101.345,132.442 100.5,134C 105.82,136.897 111.154,139.897 116.5,143C 117.252,143.671 117.586,144.504 117.5,145.5C 111.609,145.605 111.275,146.605 116.5,148.5C 118.026,148.006 119.359,147.339 120.5,146.5C 121.71,146.932 122.71,147.599 123.5,148.5C 119.524,149.331 115.524,149.497 111.5,149C 110.91,147.491 110.244,145.991 109.5,144.5C 103.202,148.241 98.5355,146.908 95.5,140.5C 91.6357,142.171 87.6357,142.671 83.5,142C 81.0062,139.756 81.0062,137.423 83.5,135C 87.2316,132.867 91.2316,131.534 95.5,131C 93.5,130.333 91.5,130.333 89.5,131C 84.3434,133.051 79.1767,134.884 74,136.5C 70.671,136.587 68.171,135.254 66.5,132.5C 67.1667,132.5 67.5,132.167 67.5,131.5C 69.1217,133.609 71.2884,134.609 74,134.5C 79.4026,132.873 84.5692,130.873 89.5,128.5C 91.941,129.756 94.2743,129.756 96.5,128.5C 97.7666,129.087 98.7666,129.087 99.5,128.5C 97.5776,124.701 97.0776,120.701 98,116.5C 101,112.5 104,112.5 107,116.5C 107.179,119.553 107.679,122.553 108.5,125.5C 110.702,124.22 112.868,124.22 115,125.5C 116.948,130.326 118.115,135.326 118.5,140.5 Z"/></g>
<g><path style="opacity:1" fill="#132337" d="M 105.5,124.5 C 105.224,127.025 104.557,128.692 103.5,129.5C 102.715,125.292 101.882,124.958 101,128.5C 99.0691,125.386 98.4024,122.053 99,118.5C 99.6122,115.968 101.112,115.135 103.5,116C 105.314,118.481 105.98,121.315 105.5,124.5 Z"/></g>
<g><path style="opacity:1" fill="#1b4b66" d="M 649.5,130.5 C 644.167,130.5 638.833,130.5 633.5,130.5C 633.5,138.5 633.5,146.5 633.5,154.5C 633.5,154.833 633.5,155.167 633.5,155.5C 632.507,147.016 632.174,138.349 632.5,129.5C 638.358,129.178 644.025,129.511 649.5,130.5 Z"/></g>
<g><path style="opacity:1" fill="#1a4c6b" d="M 835.5,130.5 C 835.5,138.5 835.5,146.5 835.5,154.5C 836.833,154.5 838.167,154.5 839.5,154.5C 838.081,155.451 836.415,155.784 834.5,155.5C 834.174,146.983 834.507,138.65 835.5,130.5 Z"/></g>
<g><path style="opacity:1" fill="#2b546e" d="M 168.5,130.5 C 170.368,131.263 172.035,132.263 173.5,133.5C 170.797,133.045 168.13,132.378 165.5,131.5C 164.287,131.747 163.62,132.414 163.5,133.5C 165.019,134.41 166.685,135.243 168.5,136C 165.681,135.508 163.014,135.674 160.5,136.5C 159.833,136.5 159.167,136.5 158.5,136.5C 158.389,135.883 158.056,135.383 157.5,135C 158.938,134.781 160.271,134.281 161.5,133.5C 161.154,132.304 160.654,132.304 160,133.5C 159.312,132.668 159.479,132.002 160.5,131.5C 163.084,130.607 165.751,130.274 168.5,130.5 Z"/></g>
<g><path style="opacity:1" fill="#3a6b88" d="M 424.5,130.5 C 424.5,138.5 424.5,146.5 424.5,154.5C 425.833,154.5 427.167,154.5 428.5,154.5C 427.081,155.451 425.415,155.784 423.5,155.5C 423.174,146.983 423.507,138.65 424.5,130.5 Z"/></g>
<g><path style="opacity:1" fill="#50afda" d="M 687.5,151.5 C 690.689,152.166 694.023,152.833 697.5,153.5C 692.88,154.493 688.214,154.827 683.5,154.5C 683.5,146.5 683.5,138.5 683.5,130.5C 684.833,130.5 686.167,130.5 687.5,130.5C 687.5,137.5 687.5,144.5 687.5,151.5 Z"/></g>
<g><path style="opacity:1" fill="#47a5cf" d="M 729.5,130.5 C 730.833,130.5 732.167,130.5 733.5,130.5C 733.5,137.5 733.5,144.5 733.5,151.5C 736.833,151.5 740.167,151.5 743.5,151.5C 743.5,152.5 743.5,153.5 743.5,154.5C 738.833,154.5 734.167,154.5 729.5,154.5C 729.5,146.5 729.5,138.5 729.5,130.5 Z"/></g>
<g><path style="opacity:1" fill="#48aad5" d="M 888.5,130.5 C 893.833,130.5 899.167,130.5 904.5,130.5C 904.5,131.833 904.5,133.167 904.5,134.5C 900.833,134.5 897.167,134.5 893.5,134.5C 892.539,136.265 892.205,138.265 892.5,140.5C 896.5,140.5 900.5,140.5 904.5,140.5C 904.5,141.5 904.5,142.5 904.5,143.5C 900.5,143.5 896.5,143.5 892.5,143.5C 892.5,146.167 892.5,148.833 892.5,151.5C 896.5,151.5 900.5,151.5 904.5,151.5C 904.5,152.5 904.5,153.5 904.5,154.5C 899.167,154.5 893.833,154.5 888.5,154.5C 888.5,146.5 888.5,138.5 888.5,130.5 Z"/></g>
<g><path style="opacity:1" fill="#142032" d="M 90.5,133.5 C 92.5273,133.338 94.5273,133.505 96.5,134C 95.1667,134.333 93.8333,134.667 92.5,135C 94.5,135.333 96.5,135.667 98.5,136C 94.2084,139.81 89.2084,141.31 83.5,140.5C 83.3505,139.448 83.5172,138.448 84,137.5C 86.0129,135.752 88.1795,134.418 90.5,133.5 Z"/></g>
<g><path style="opacity:1" fill="#4ba6d0" d="M 494.5,130.5 C 498.182,130.335 501.848,130.501 505.5,131C 506.973,131.71 507.64,132.876 507.5,134.5C 494.775,131.724 490.275,136.391 494,148.5C 497.545,151.579 501.545,152.246 506,150.5C 508.994,151.487 509.161,152.82 506.5,154.5C 492.671,157.172 486.838,151.506 489,137.5C 490.666,135.004 492.5,132.671 494.5,130.5 Z"/></g>
<g><path style="opacity:1" fill="#4baad5" d="M 581.5,131.5 C 582.979,137.438 585.146,143.105 588,148.5C 590.949,143.052 593.449,137.386 595.5,131.5C 596.689,130.571 598.022,130.238 599.5,130.5C 596.313,138.724 593.313,147.057 590.5,155.5C 588.712,155.785 587.045,155.452 585.5,154.5C 583.837,149.564 581.837,144.897 579.5,140.5C 578.492,137.156 577.492,133.823 576.5,130.5C 578.292,130.366 579.958,130.699 581.5,131.5 Z"/></g>
<g><path style="opacity:1" fill="#151f2f" d="M 163.5,133.5 C 167.44,133.758 171.107,134.924 174.5,137C 175.451,137.718 175.617,138.551 175,139.5C 169.599,141.303 164.765,140.303 160.5,136.5C 163.014,135.674 165.681,135.508 168.5,136C 166.685,135.243 165.019,134.41 163.5,133.5 Z"/></g>
<g><path style="opacity:1" fill="#477f9e" d="M 173.5,133.5 C 175.229,134.641 176.229,136.307 176.5,138.5C 176.43,139.772 176.097,140.938 175.5,142C 170.601,143.125 166.101,142.291 162,139.5C 161.667,141.167 161.333,142.833 161,144.5C 157.09,147.088 153.256,147.088 149.5,144.5C 150.492,144.672 151.158,144.338 151.5,143.5C 154.746,145.115 157.746,144.782 160.5,142.5C 158.822,140.148 156.489,138.814 153.5,138.5C 151.142,139.154 149.475,140.487 148.5,142.5C 147.761,142.631 147.094,142.464 146.5,142C 149.162,137.486 153.162,135.652 158.5,136.5C 159.167,136.5 159.833,136.5 160.5,136.5C 164.765,140.303 169.599,141.303 175,139.5C 175.617,138.551 175.451,137.718 174.5,137C 171.107,134.924 167.44,133.758 163.5,133.5C 163.62,132.414 164.287,131.747 165.5,131.5C 168.13,132.378 170.797,133.045 173.5,133.5 Z"/></g>
<g><path style="opacity:1" fill="#18212e" d="M 99.5,139.5 C 103.426,139.232 107.093,140.065 110.5,142C 107.378,143.904 104.045,144.571 100.5,144C 98.2177,142.916 97.8843,141.416 99.5,139.5 Z"/></g>
<g><path style="opacity:1" fill="#1b2637" d="M 151.5,143.5 C 150.609,142.89 149.609,142.557 148.5,142.5C 149.475,140.487 151.142,139.154 153.5,138.5C 156.489,138.814 158.822,140.148 160.5,142.5C 157.746,144.782 154.746,145.115 151.5,143.5 Z"/></g>
<g><path style="opacity:1" fill="#4babd6" d="M 424.5,130.5 C 426.288,130.215 427.955,130.548 429.5,131.5C 431.774,135.772 434.441,139.772 437.5,143.5C 440.883,139.447 443.883,135.114 446.5,130.5C 448.167,130.5 449.833,130.5 451.5,130.5C 451.5,138.5 451.5,146.5 451.5,154.5C 450.167,154.5 448.833,154.5 447.5,154.5C 447.666,149.156 447.499,143.823 447,138.5C 444.68,141.331 442.513,144.331 440.5,147.5C 438.955,148.452 437.288,148.785 435.5,148.5C 433.593,145.025 431.426,141.691 429,138.5C 428.501,143.823 428.334,149.156 428.5,154.5C 427.167,154.5 425.833,154.5 424.5,154.5C 424.5,146.5 424.5,138.5 424.5,130.5 Z"/></g>
<g><path style="opacity:1" fill="#4dacd6" d="M 649.5,130.5 C 649.5,131.833 649.5,133.167 649.5,134.5C 645.5,134.5 641.5,134.5 637.5,134.5C 637.5,136.167 637.5,137.833 637.5,139.5C 641.298,140.483 645.298,140.817 649.5,140.5C 649.5,141.5 649.5,142.5 649.5,143.5C 645.5,143.5 641.5,143.5 637.5,143.5C 637.5,146.167 637.5,148.833 637.5,151.5C 641.353,152.166 645.353,152.833 649.5,153.5C 644.208,154.495 638.875,154.828 633.5,154.5C 633.5,146.5 633.5,138.5 633.5,130.5C 638.833,130.5 644.167,130.5 649.5,130.5 Z"/></g>
<g><path style="opacity:1" fill="#4aa7d1" d="M 835.5,130.5 C 840.179,130.334 844.845,130.501 849.5,131C 856.142,135.901 856.142,140.901 849.5,146C 851.644,148.979 853.978,151.812 856.5,154.5C 854.926,155.631 853.259,155.798 851.5,155C 848.912,149.875 844.912,147.042 839.5,146.5C 839.5,149.167 839.5,151.833 839.5,154.5C 838.167,154.5 836.833,154.5 835.5,154.5C 835.5,146.5 835.5,138.5 835.5,130.5 Z"/></g>
<g><path style="opacity:1" fill="#151b2c" d="M 839.5,134.5 C 842.518,134.335 845.518,134.502 848.5,135C 850.059,137.642 849.725,139.975 847.5,142C 844.854,142.497 842.187,142.664 839.5,142.5C 839.5,139.833 839.5,137.167 839.5,134.5 Z"/></g>
<g><path style="opacity:1" fill="#4ba5ce" d="M 385.5,154.5 C 378.698,157.052 373.198,155.385 369,149.5C 365.956,142.234 367.456,136.234 373.5,131.5C 378.344,129.911 383.01,130.244 387.5,132.5C 387.081,133.672 386.415,134.672 385.5,135.5C 378.181,132.473 373.514,134.64 371.5,142C 372.704,151.101 377.37,153.601 385.5,149.5C 387.984,151.369 387.984,153.036 385.5,154.5 Z"/></g>
<g><path style="opacity:1" fill="#11263c" d="M 117.5,145.5 C 118.791,145.263 119.791,145.596 120.5,146.5C 119.359,147.339 118.026,148.006 116.5,148.5C 111.275,146.605 111.609,145.605 117.5,145.5 Z"/></g>
<g><path style="opacity:1" fill="#49a7d1" d="M 782.5,129.5 C 795.177,129.679 800.344,136.012 798,148.5C 794.441,155.188 788.941,157.355 781.5,155C 775.412,150.748 773.246,144.915 775,137.5C 777.028,134.308 779.528,131.641 782.5,129.5 Z"/></g>
<g><path style="opacity:1" fill="#191e2d" d="M 782.5,134.5 C 794.569,134.402 797.569,139.569 791.5,150C 784.172,152.856 779.839,150.356 778.5,142.5C 778.782,139.269 780.115,136.602 782.5,134.5 Z"/></g>
<g><path style="opacity:1" fill="#1e374c" d="M 446.5,130.5 C 448.607,129.532 450.941,129.198 453.5,129.5C 453.666,137.84 453.5,146.173 453,154.5C 450.619,155.435 448.119,155.768 445.5,155.5C 445.666,151.486 445.499,147.486 445,143.5C 443.5,145.833 442,148.167 440.5,150.5C 438.664,149.972 436.997,149.306 435.5,148.5C 437.288,148.785 438.955,148.452 440.5,147.5C 442.513,144.331 444.68,141.331 447,138.5C 447.499,143.823 447.666,149.156 447.5,154.5C 448.833,154.5 450.167,154.5 451.5,154.5C 451.5,146.5 451.5,138.5 451.5,130.5C 449.833,130.5 448.167,130.5 446.5,130.5 Z"/></g>
<g><path style="opacity:1" fill="#173951" d="M 637.5,139.5 C 642.167,139.5 646.833,139.5 651.5,139.5C 651.5,141.167 651.5,142.833 651.5,144.5C 647.167,144.5 642.833,144.5 638.5,144.5C 638.5,146.5 638.5,148.5 638.5,150.5C 642.833,150.5 647.167,150.5 651.5,150.5C 651.768,152.099 651.434,153.432 650.5,154.5C 650.5,153.5 650.5,152.5 650.5,151.5C 646.167,151.5 641.833,151.5 637.5,151.5C 637.5,148.833 637.5,146.167 637.5,143.5C 641.5,143.5 645.5,143.5 649.5,143.5C 649.5,142.5 649.5,141.5 649.5,140.5C 645.298,140.817 641.298,140.483 637.5,139.5 Z"/></g>
<g><path style="opacity:1" fill="#4aa1ca" d="M 171.5,121.5 C 171.771,123.43 172.771,124.764 174.5,125.5C 173.448,125.351 172.448,125.517 171.5,126C 171.833,126.333 172.167,126.667 172.5,127C 171.584,127.278 170.918,127.778 170.5,128.5C 169.833,128.5 169.5,128.833 169.5,129.5C 168.833,129.5 168.5,129.833 168.5,130.5C 165.751,130.274 163.084,130.607 160.5,131.5C 159.479,132.002 159.312,132.668 160,133.5C 160.654,132.304 161.154,132.304 161.5,133.5C 160.271,134.281 158.938,134.781 157.5,135C 158.056,135.383 158.389,135.883 158.5,136.5C 153.162,135.652 149.162,137.486 146.5,142C 147.094,142.464 147.761,142.631 148.5,142.5C 149.609,142.557 150.609,142.89 151.5,143.5C 151.158,144.338 150.492,144.672 149.5,144.5C 148.781,146.091 147.781,147.591 146.5,149C 141.91,149.017 137.41,149.183 133,149.5C 132.333,150.167 132.333,150.833 133,151.5C 135.405,153.403 137.239,155.736 138.5,158.5C 137.652,160.283 136.319,160.783 134.5,160C 130.731,151.384 127.397,151.551 124.5,160.5C 122.516,160.617 120.85,159.95 119.5,158.5C 121.833,155.833 124.167,153.167 126.5,150.5C 125.643,149.575 124.643,148.908 123.5,148.5C 122.71,147.599 121.71,146.932 120.5,146.5C 119.791,145.596 118.791,145.263 117.5,145.5C 117.586,144.504 117.252,143.671 116.5,143C 111.154,139.897 105.82,136.897 100.5,134C 101.345,132.442 100.679,131.442 98.5,131C 100.247,130.648 101.914,130.148 103.5,129.5C 104.557,128.692 105.224,127.025 105.5,124.5C 106.319,127.305 106.819,130.305 107,133.5C 108.192,135.65 109.692,136.317 111.5,135.5C 113.296,137.9 115.63,139.567 118.5,140.5C 118.623,138.792 118.956,136.959 119.5,135C 121.167,134.333 122.833,134.333 124.5,135C 126.101,138.267 126.934,141.767 127,145.5C 128.667,148.167 130.333,148.167 132,145.5C 132.333,142.5 132.667,139.5 133,136.5C 135.393,133.959 137.56,133.959 139.5,136.5C 139.307,140.449 138.807,140.449 138,136.5C 137.282,135.549 136.449,135.383 135.5,136C 133.9,137.971 133.734,139.804 135,141.5C 135.667,137.5 136.333,137.5 137,141.5C 138.135,141.273 139.302,140.94 140.5,140.5C 141.407,137.579 141.74,134.579 141.5,131.5C 141.5,130.833 141.5,130.167 141.5,129.5C 142.473,131.948 142.806,134.615 142.5,137.5C 144.722,137.822 146.556,137.155 148,135.5C 148.333,135.833 148.667,136.167 149,136.5C 151.792,133.685 153.292,130.352 153.5,126.5C 153.5,127.167 153.5,127.833 153.5,128.5C 154.184,130.185 155.517,131.185 157.5,131.5C 158.522,131.145 159.189,130.478 159.5,129.5C 161.822,128.198 163.155,126.198 163.5,123.5C 164.459,127.361 165.459,127.361 166.5,123.5C 166.5,123.167 166.5,122.833 166.5,122.5C 167.652,123.625 168.652,123.625 169.5,122.5C 170.167,122.167 170.833,121.833 171.5,121.5 Z"/></g>
<g><path style="opacity:1" fill="#12283d" d="M 139.5,145.5 C 141.924,145.192 144.257,145.526 146.5,146.5C 146,147.881 145,148.547 143.5,148.5C 141.803,148.101 140.137,147.601 138.5,147C 139.056,146.617 139.389,146.117 139.5,145.5 Z"/></g>
<g><path style="opacity:1" fill="#112338" d="M 120.5,136.5 C 124.071,136.408 125.238,138.074 124,141.5C 123,141.167 122,140.833 121,140.5C 120.51,139.207 120.343,137.873 120.5,136.5 Z"/></g>
<g><path style="opacity:1" fill="#103c59" d="M 141.5,131.5 C 141.74,134.579 141.407,137.579 140.5,140.5C 139.302,140.94 138.135,141.273 137,141.5C 136.333,137.5 135.667,137.5 135,141.5C 133.734,139.804 133.9,137.971 135.5,136C 136.449,135.383 137.282,135.549 138,136.5C 138.807,140.449 139.307,140.449 139.5,136.5C 140.167,134.833 140.833,133.167 141.5,131.5 Z"/></g>
<g><path style="opacity:1" fill="#101f33" d="M 144.5,126.5 C 146.167,126.5 147.833,126.5 149.5,126.5C 149.702,128.989 149.202,131.323 148,133.5C 147.667,132.833 147.333,132.167 147,131.5C 145.748,133.001 144.748,134.668 144,136.5C 143.341,133.112 143.508,129.779 144.5,126.5 Z"/></g>
<g><path style="opacity:1" fill="#12263b" d="M 111.5,135.5 C 109.732,132.838 109.065,129.838 109.5,126.5C 111.722,126.178 113.556,126.845 115,128.5C 115.667,131.167 115.667,133.833 115,136.5C 114.047,134.627 112.88,134.294 111.5,135.5 Z"/></g>
<g><path style="opacity:1" fill="#407e9e" d="M 637.5,151.5 C 641.833,151.5 646.167,151.5 650.5,151.5C 650.5,152.5 650.5,153.5 650.5,154.5C 645.025,155.489 639.358,155.822 633.5,155.5C 633.5,155.167 633.5,154.833 633.5,154.5C 638.875,154.828 644.208,154.495 649.5,153.5C 645.353,152.833 641.353,152.166 637.5,151.5 Z"/></g>
<g><path style="opacity:1" fill="#407f9e" d="M 687.5,151.5 C 691.167,151.5 694.833,151.5 698.5,151.5C 698.5,152.833 698.5,154.167 698.5,155.5C 693.305,155.821 688.305,155.487 683.5,154.5C 688.214,154.827 692.88,154.493 697.5,153.5C 694.023,152.833 690.689,152.166 687.5,151.5 Z"/></g>
<g><path style="opacity:1" fill="#3f7e9d" d="M 729.5,130.5 C 729.5,138.5 729.5,146.5 729.5,154.5C 734.167,154.5 738.833,154.5 743.5,154.5C 738.695,155.487 733.695,155.821 728.5,155.5C 728.174,146.983 728.507,138.65 729.5,130.5 Z"/></g>
<g><path style="opacity:1" fill="#2e5e7b" d="M 888.5,130.5 C 888.5,138.5 888.5,146.5 888.5,154.5C 893.833,154.5 899.167,154.5 904.5,154.5C 904.5,153.5 904.5,152.5 904.5,151.5C 905.434,152.568 905.768,153.901 905.5,155.5C 899.5,155.5 893.5,155.5 887.5,155.5C 887.174,146.983 887.507,138.65 888.5,130.5 Z"/></g>
</svg>
